<svg width="852" height="161" viewBox="0 0 852 161" fill="none" xmlns="http://www.w3.org/2000/svg">
<g clip-path="url(#clip0_14_4341)">
<path d="M85.7699 83.78H33.8699L29.61 134.56H16.7L24.82 37.72H37.7299L34.9 71.49H86.8L85.7699 83.78Z" stroke="url(#paint0_linear_14_4341)" stroke-width="30" stroke-linejoin="round"/>
<path d="M106.91 83.4101L107.9 71.6201H181.4C180.58 80.3901 178.44 88.4201 174.97 95.7101C171.5 102.99 166.97 108.95 161.37 113.59C156.02 118.23 150.29 121.87 144.19 124.52C139.2 126.84 134.39 128.57 129.79 129.73C125.18 130.89 119.98 131.92 114.2 132.83L115.26 120.17C123.96 119.1 132.52 116.61 140.96 112.72C146.56 110.07 151.7 106.26 156.38 101.3C161.06 96.3301 164.35 90.3701 166.26 83.4201H106.92L106.91 83.4101ZM113.86 41.9401H178.42L177.45 53.4901H112.89L113.86 41.9401Z" stroke="url(#paint1_linear_14_4341)" stroke-width="30" stroke-linejoin="round"/>
<path d="M278.24 64.1701C274.22 75.5901 268.55 85.9001 261.25 95.0801C253.94 104.27 246.26 111.47 238.21 116.68C231.21 121.15 224.5 124.48 218.07 126.67C211.64 128.86 204.99 130.37 198.14 131.2L199.21 118.41C204.96 118 210.55 116.88 216 115.06C221.45 113.24 227.08 110.26 232.89 106.12C247.21 96.1901 258.11 82.2001 265.58 64.1601H278.24V64.1701ZM205.5 43.3101H237.28L236.26 55.4801H204.48L205.5 43.3101Z" stroke="url(#paint2_linear_14_4341)" stroke-width="30" stroke-linejoin="round"/>
<path d="M300.09 55.23L301.13 42.81H370.28L369.05 57.46C368.14 68.3 365.7 77.95 361.72 86.39C357.74 94.83 352.81 102.08 346.93 108.12C341.86 113.33 336.46 117.52 330.73 120.66C321.38 125.63 311.74 129.02 301.82 130.84L302.85 118.55C308.66 117.39 314.14 115.72 319.29 113.52C324.44 111.33 329.5 108.2 334.48 104.15C340.45 99.1 345.36 92.81 349.22 85.28C353.08 77.75 355.74 67.73 357.2 55.24H300.09V55.23ZM360.86 18.98C363.73 16.33 367.07 15.01 370.88 15.01C374.69 15.01 377.82 16.36 380.29 19.05C382.75 21.74 383.83 24.99 383.51 28.8C383.19 32.61 381.57 35.84 378.66 38.48C375.75 41.13 372.39 42.45 368.58 42.45C364.77 42.45 361.65 41.13 359.23 38.48C356.8 35.83 355.75 32.6 356.07 28.8C356.39 24.99 357.99 21.72 360.86 18.99V18.98ZM375.93 28.79C376.08 26.97 375.61 25.48 374.5 24.32C373.4 23.16 371.98 22.58 370.24 22.58C368.5 22.58 367 23.16 365.75 24.32C364.49 25.48 363.79 26.97 363.64 28.79C363.49 30.53 363.95 31.98 365.01 33.13C366.07 34.29 367.47 34.87 369.21 34.87C370.95 34.87 372.47 34.29 373.76 33.13C375.06 31.97 375.78 30.52 375.93 28.79Z" stroke="url(#paint3_linear_14_4341)" stroke-width="30" stroke-linejoin="round"/>
<path d="M466.33 64.17C462.14 75.59 456.42 85.9 449.15 95.08C441.88 104.27 434.26 111.47 426.3 116.68C419.3 121.15 412.59 124.48 406.16 126.67C399.73 128.86 393.08 130.37 386.23 131.2L387.27 118.78C393.63 117.95 399.43 116.67 404.66 114.93C409.9 113.19 415.33 110.3 420.97 106.24C435.31 96.14 446.21 82.11 453.67 64.15H466.33V64.17ZM391.18 71.99H420.6L419.59 84.03H390.17L391.18 71.99ZM393.71 41.82H423.13L422.12 53.86H392.7L393.71 41.82ZM449.28 18.73H458.72L457.18 37.1H447.74L449.28 18.73ZM464.05 18.73H473.49L471.95 37.1H462.51L464.05 18.73Z" stroke="url(#paint4_linear_14_4341)" stroke-width="30" stroke-linejoin="round"/>
<path d="M497.68 134.43L495.58 79.43L483.13 79.8L484.03 69L495.35 68.75L494.81 52.98H505.73L506.29 68.5L549.24 67.13L548.16 80.04C546.31 86.33 543.41 91.79 539.46 96.43C536.32 100.32 532.93 103.74 529.29 106.67C525.65 109.61 522.03 111.78 518.44 113.19L519.46 101.02C528.01 95.72 533.98 88.19 537.37 78.42L506.51 79.29L508.6 134.41H497.67L497.68 134.43Z" stroke="url(#paint5_linear_14_4341)" stroke-width="30" stroke-linejoin="round"/>
<path d="M644.35 64.1701C640.33 75.5901 634.66 85.9001 627.36 95.0801C620.05 104.27 612.37 111.47 604.32 116.68C597.32 121.15 590.61 124.48 584.18 126.67C577.75 128.86 571.1 130.37 564.25 131.2L565.32 118.41C571.07 118 576.66 116.88 582.11 115.06C587.56 113.24 593.19 110.26 599 106.12C613.32 96.1901 624.22 82.2001 631.69 64.1601H644.35V64.1701ZM571.61 43.3101H603.39L602.37 55.4801H570.59L571.61 43.3101Z" stroke="url(#paint6_linear_14_4341)" stroke-width="30" stroke-linejoin="round"/>
<path d="M698.67 36.73L696.81 42.69C696.23 44.68 694.4 49.27 691.31 56.47H744.32L743.3 68.64H724.18C721.7 81.39 718.08 91.79 713.31 99.86C708.54 107.93 702.88 114.45 696.34 119.41C687.21 126.61 677.71 131.83 667.84 135.05L668.93 122.01C674.74 119.78 680.06 117.04 684.89 113.82C698.56 104.8 707.47 89.74 711.64 68.63H685.82C678.24 80.05 669.95 88.62 660.95 94.33L662.21 79.31C667.67 74.43 672.47 68.18 676.63 60.56C680.78 52.95 683.96 45 686.14 36.72H698.68L698.67 36.73Z" stroke="url(#paint7_linear_14_4341)" stroke-width="30" stroke-linejoin="round"/>
<path d="M836.79 64.1701C832.77 75.5901 827.1 85.9001 819.8 95.0801C812.49 104.27 804.81 111.47 796.76 116.68C789.76 121.15 783.05 124.48 776.62 126.67C770.19 128.86 763.54 130.37 756.69 131.2L757.76 118.41C763.51 118 769.1 116.88 774.55 115.06C780 113.24 785.63 110.26 791.44 106.12C805.76 96.1901 816.66 82.2001 824.13 64.1601H836.79V64.1701ZM764.05 43.3101H795.83L794.81 55.4801H763.03L764.05 43.3101Z" stroke="url(#paint8_linear_14_4341)" stroke-width="30" stroke-linejoin="round"/>
<path d="M85.7699 83.78H33.8699L29.61 134.56H16.7L24.82 37.72H37.7299L34.9 71.49H86.8L85.7699 83.78Z" fill="url(#paint9_linear_14_4341)"/>
<path d="M106.91 83.4101L107.9 71.6201H181.4C180.58 80.3901 178.44 88.4201 174.97 95.7101C171.5 102.99 166.97 108.95 161.37 113.59C156.02 118.23 150.29 121.87 144.19 124.52C139.2 126.84 134.39 128.57 129.79 129.73C125.18 130.89 119.98 131.92 114.2 132.83L115.26 120.17C123.96 119.1 132.52 116.61 140.96 112.72C146.56 110.07 151.7 106.26 156.38 101.3C161.06 96.3301 164.35 90.3701 166.26 83.4201H106.92L106.91 83.4101ZM113.86 41.9401H178.42L177.45 53.4901H112.89L113.86 41.9401Z" fill="url(#paint10_linear_14_4341)"/>
<path d="M278.24 64.1701C274.22 75.5901 268.55 85.9001 261.25 95.0801C253.94 104.27 246.26 111.47 238.21 116.68C231.21 121.15 224.5 124.48 218.07 126.67C211.64 128.86 204.99 130.37 198.14 131.2L199.21 118.41C204.96 118 210.55 116.88 216 115.06C221.45 113.24 227.08 110.26 232.89 106.12C247.21 96.1901 258.11 82.2001 265.58 64.1601H278.24V64.1701ZM205.5 43.3101H237.28L236.26 55.4801H204.48L205.5 43.3101Z" fill="url(#paint11_linear_14_4341)"/>
<path d="M300.09 55.23L301.13 42.81H370.28L369.05 57.46C368.14 68.3 365.7 77.95 361.72 86.39C357.74 94.83 352.81 102.08 346.93 108.12C341.86 113.33 336.46 117.52 330.73 120.66C321.38 125.63 311.74 129.02 301.82 130.84L302.85 118.55C308.66 117.39 314.14 115.72 319.29 113.52C324.44 111.33 329.5 108.2 334.48 104.15C340.45 99.1 345.36 92.81 349.22 85.28C353.08 77.75 355.74 67.73 357.2 55.24H300.09V55.23ZM360.86 18.98C363.73 16.33 367.07 15.01 370.88 15.01C374.69 15.01 377.82 16.36 380.29 19.05C382.75 21.74 383.83 24.99 383.51 28.8C383.19 32.61 381.57 35.84 378.66 38.48C375.75 41.13 372.39 42.45 368.58 42.45C364.77 42.45 361.65 41.13 359.23 38.48C356.8 35.83 355.75 32.6 356.07 28.8C356.39 24.99 357.99 21.72 360.86 18.99V18.98ZM375.93 28.79C376.08 26.97 375.61 25.48 374.5 24.32C373.4 23.16 371.98 22.58 370.24 22.58C368.5 22.58 367 23.16 365.75 24.32C364.49 25.48 363.79 26.97 363.64 28.79C363.49 30.53 363.95 31.98 365.01 33.13C366.07 34.29 367.47 34.87 369.21 34.87C370.95 34.87 372.47 34.29 373.76 33.13C375.06 31.97 375.78 30.52 375.93 28.79Z" fill="url(#paint12_linear_14_4341)"/>
<path d="M466.33 64.17C462.14 75.59 456.42 85.9 449.15 95.08C441.88 104.27 434.26 111.47 426.3 116.68C419.3 121.15 412.59 124.48 406.16 126.67C399.73 128.86 393.08 130.37 386.23 131.2L387.27 118.78C393.63 117.95 399.43 116.67 404.66 114.93C409.9 113.19 415.33 110.3 420.97 106.24C435.31 96.14 446.21 82.11 453.67 64.15H466.33V64.17ZM391.18 71.99H420.6L419.59 84.03H390.17L391.18 71.99ZM393.71 41.82H423.13L422.12 53.86H392.7L393.71 41.82ZM449.28 18.73H458.72L457.18 37.1H447.74L449.28 18.73ZM464.05 18.73H473.49L471.95 37.1H462.51L464.05 18.73Z" fill="url(#paint13_linear_14_4341)"/>
<path d="M497.68 134.43L495.58 79.43L483.13 79.8L484.03 69L495.35 68.75L494.81 52.98H505.73L506.29 68.5L549.24 67.13L548.16 80.04C546.31 86.33 543.41 91.79 539.46 96.43C536.32 100.32 532.93 103.74 529.29 106.67C525.65 109.61 522.03 111.78 518.44 113.19L519.46 101.02C528.01 95.72 533.98 88.19 537.37 78.42L506.51 79.29L508.6 134.41H497.67L497.68 134.43Z" fill="url(#paint14_linear_14_4341)"/>
<path d="M644.35 64.1701C640.33 75.5901 634.66 85.9001 627.36 95.0801C620.05 104.27 612.37 111.47 604.32 116.68C597.32 121.15 590.61 124.48 584.18 126.67C577.75 128.86 571.1 130.37 564.25 131.2L565.32 118.41C571.07 118 576.66 116.88 582.11 115.06C587.56 113.24 593.19 110.26 599 106.12C613.32 96.1901 624.22 82.2001 631.69 64.1601H644.35V64.1701ZM571.61 43.3101H603.39L602.37 55.4801H570.59L571.61 43.3101Z" fill="url(#paint15_linear_14_4341)"/>
<path d="M698.67 36.73L696.81 42.69C696.23 44.68 694.4 49.27 691.31 56.47H744.32L743.3 68.64H724.18C721.7 81.39 718.08 91.79 713.31 99.86C708.54 107.93 702.88 114.45 696.34 119.41C687.21 126.61 677.71 131.83 667.84 135.05L668.93 122.01C674.74 119.78 680.06 117.04 684.89 113.82C698.56 104.8 707.47 89.74 711.64 68.63H685.82C678.24 80.05 669.95 88.62 660.95 94.33L662.21 79.31C667.67 74.43 672.47 68.18 676.63 60.56C680.78 52.95 683.96 45 686.14 36.72H698.68L698.67 36.73Z" fill="url(#paint16_linear_14_4341)"/>
<path d="M836.79 64.1701C832.77 75.5901 827.1 85.9001 819.8 95.0801C812.49 104.27 804.81 111.47 796.76 116.68C789.76 121.15 783.05 124.48 776.62 126.67C770.19 128.86 763.54 130.37 756.69 131.2L757.76 118.41C763.51 118 769.1 116.88 774.55 115.06C780 113.24 785.63 110.26 791.44 106.12C805.76 96.1901 816.66 82.2001 824.13 64.1601H836.79V64.1701ZM764.05 43.3101H795.83L794.81 55.4801H763.03L764.05 43.3101Z" fill="url(#paint17_linear_14_4341)"/>
</g>
<defs>
<linearGradient id="paint0_linear_14_4341" x1="16.71" y1="75.03" x2="836.79" y2="75.03" gradientUnits="userSpaceOnUse">
<stop stop-color="#BA7802"/>
<stop offset="0.18" stop-color="#D19A2C"/>
<stop offset="0.39" stop-color="#EBC15C"/>
<stop offset="0.5" stop-color="#F5D06F"/>
<stop offset="0.61" stop-color="#EBC15C"/>
<stop offset="0.82" stop-color="#D19A2C"/>
<stop offset="1" stop-color="#BA7802"/>
</linearGradient>
<linearGradient id="paint1_linear_14_4341" x1="16.7099" y1="75.0301" x2="836.79" y2="75.0301" gradientUnits="userSpaceOnUse">
<stop stop-color="#BA7802"/>
<stop offset="0.18" stop-color="#D19A2C"/>
<stop offset="0.39" stop-color="#EBC15C"/>
<stop offset="0.5" stop-color="#F5D06F"/>
<stop offset="0.61" stop-color="#EBC15C"/>
<stop offset="0.82" stop-color="#D19A2C"/>
<stop offset="1" stop-color="#BA7802"/>
</linearGradient>
<linearGradient id="paint2_linear_14_4341" x1="16.7099" y1="75.0301" x2="836.79" y2="75.0301" gradientUnits="userSpaceOnUse">
<stop stop-color="#BA7802"/>
<stop offset="0.18" stop-color="#D19A2C"/>
<stop offset="0.39" stop-color="#EBC15C"/>
<stop offset="0.5" stop-color="#F5D06F"/>
<stop offset="0.61" stop-color="#EBC15C"/>
<stop offset="0.82" stop-color="#D19A2C"/>
<stop offset="1" stop-color="#BA7802"/>
</linearGradient>
<linearGradient id="paint3_linear_14_4341" x1="16.7098" y1="75.03" x2="836.79" y2="75.03" gradientUnits="userSpaceOnUse">
<stop stop-color="#BA7802"/>
<stop offset="0.18" stop-color="#D19A2C"/>
<stop offset="0.39" stop-color="#EBC15C"/>
<stop offset="0.5" stop-color="#F5D06F"/>
<stop offset="0.61" stop-color="#EBC15C"/>
<stop offset="0.82" stop-color="#D19A2C"/>
<stop offset="1" stop-color="#BA7802"/>
</linearGradient>
<linearGradient id="paint4_linear_14_4341" x1="16.7101" y1="75.03" x2="836.79" y2="75.03" gradientUnits="userSpaceOnUse">
<stop stop-color="#BA7802"/>
<stop offset="0.18" stop-color="#D19A2C"/>
<stop offset="0.39" stop-color="#EBC15C"/>
<stop offset="0.5" stop-color="#F5D06F"/>
<stop offset="0.61" stop-color="#EBC15C"/>
<stop offset="0.82" stop-color="#D19A2C"/>
<stop offset="1" stop-color="#BA7802"/>
</linearGradient>
<linearGradient id="paint5_linear_14_4341" x1="16.71" y1="75.03" x2="836.79" y2="75.03" gradientUnits="userSpaceOnUse">
<stop stop-color="#BA7802"/>
<stop offset="0.18" stop-color="#D19A2C"/>
<stop offset="0.39" stop-color="#EBC15C"/>
<stop offset="0.5" stop-color="#F5D06F"/>
<stop offset="0.61" stop-color="#EBC15C"/>
<stop offset="0.82" stop-color="#D19A2C"/>
<stop offset="1" stop-color="#BA7802"/>
</linearGradient>
<linearGradient id="paint6_linear_14_4341" x1="16.7102" y1="75.0301" x2="836.79" y2="75.0301" gradientUnits="userSpaceOnUse">
<stop stop-color="#BA7802"/>
<stop offset="0.18" stop-color="#D19A2C"/>
<stop offset="0.39" stop-color="#EBC15C"/>
<stop offset="0.5" stop-color="#F5D06F"/>
<stop offset="0.61" stop-color="#EBC15C"/>
<stop offset="0.82" stop-color="#D19A2C"/>
<stop offset="1" stop-color="#BA7802"/>
</linearGradient>
<linearGradient id="paint7_linear_14_4341" x1="16.71" y1="75.03" x2="836.79" y2="75.03" gradientUnits="userSpaceOnUse">
<stop stop-color="#BA7802"/>
<stop offset="0.18" stop-color="#D19A2C"/>
<stop offset="0.39" stop-color="#EBC15C"/>
<stop offset="0.5" stop-color="#F5D06F"/>
<stop offset="0.61" stop-color="#EBC15C"/>
<stop offset="0.82" stop-color="#D19A2C"/>
<stop offset="1" stop-color="#BA7802"/>
</linearGradient>
<linearGradient id="paint8_linear_14_4341" x1="16.7102" y1="75.0301" x2="836.79" y2="75.0301" gradientUnits="userSpaceOnUse">
<stop stop-color="#BA7802"/>
<stop offset="0.18" stop-color="#D19A2C"/>
<stop offset="0.39" stop-color="#EBC15C"/>
<stop offset="0.5" stop-color="#F5D06F"/>
<stop offset="0.61" stop-color="#EBC15C"/>
<stop offset="0.82" stop-color="#D19A2C"/>
<stop offset="1" stop-color="#BA7802"/>
</linearGradient>
<linearGradient id="paint9_linear_14_4341" x1="16.71" y1="75.03" x2="836.79" y2="75.03" gradientUnits="userSpaceOnUse">
<stop stop-color="white"/>
</linearGradient>
<linearGradient id="paint10_linear_14_4341" x1="16.7099" y1="75.0301" x2="836.79" y2="75.0301" gradientUnits="userSpaceOnUse">
<stop stop-color="white"/>
</linearGradient>
<linearGradient id="paint11_linear_14_4341" x1="16.7099" y1="75.0301" x2="836.79" y2="75.0301" gradientUnits="userSpaceOnUse">
<stop stop-color="white"/>
</linearGradient>
<linearGradient id="paint12_linear_14_4341" x1="16.7098" y1="75.03" x2="836.79" y2="75.03" gradientUnits="userSpaceOnUse">
<stop offset="0.17" stop-color="white"/>
</linearGradient>
<linearGradient id="paint13_linear_14_4341" x1="16.7101" y1="75.03" x2="836.79" y2="75.03" gradientUnits="userSpaceOnUse">
<stop stop-color="white"/>
</linearGradient>
<linearGradient id="paint14_linear_14_4341" x1="16.71" y1="75.03" x2="836.79" y2="75.03" gradientUnits="userSpaceOnUse">
<stop stop-color="white"/>
</linearGradient>
<linearGradient id="paint15_linear_14_4341" x1="16.7102" y1="75.0301" x2="836.79" y2="75.0301" gradientUnits="userSpaceOnUse">
<stop stop-color="white"/>
</linearGradient>
<linearGradient id="paint16_linear_14_4341" x1="16.71" y1="75.03" x2="836.79" y2="75.03" gradientUnits="userSpaceOnUse">
<stop stop-color="white"/>
</linearGradient>
<linearGradient id="paint17_linear_14_4341" x1="16.7102" y1="75.0301" x2="836.79" y2="75.0301" gradientUnits="userSpaceOnUse">
<stop stop-color="white"/>
</linearGradient>
<clipPath id="clip0_14_4341">
<rect width="851.79" height="160.63" fill="white"/>
</clipPath>
</defs>
</svg>
