<svg xmlns="http://www.w3.org/2000/svg" width="360" height="540" viewBox="0 0 360 540">
  <g id="g3026" transform="translate(0 -512.362)">
    <rect id="rect6472-82" width="359" height="539" rx="29.944" transform="translate(0.5 512.862)" fill="#fff" stroke="#000" stroke-width="1"/>
    <path id="rect3163-52-9-8-1-38-1" d="M30,542.362a9.978,9.978,0,0,0-10,10v5h5v-5a5,5,0,0,1,10,0v5a8.091,8.091,0,0,1-1,3.9c-4.463,9.1-9.278,17.129-14,26.1v5H40v-10H35v5H25.5c4.489-7.915,8.218-15.572,12.5-23.6a11.207,11.207,0,0,0,2-6.4v-5A9.978,9.978,0,0,0,30,542.362Z"/>
    <path id="rect3163-52-9-8-1-38-8-6" d="M330,1022.362a9.978,9.978,0,0,0,10-10v-5h-5v5a5,5,0,0,1-10,0v-5a8.091,8.091,0,0,1,1-3.9c4.463-9.1,9.278-17.129,14-26.1v-5H320v10h5v-5h9.5c-4.489,7.916-8.218,15.572-12.5,23.6a11.207,11.207,0,0,0-2,6.4v5A9.978,9.978,0,0,0,330,1022.362Z"/>
    <path id="path3037-1-83" d="M32.5,630.362c1,2,3.5,5,6,5,4.5,0,6.5-4,6.5-9s-2-9.5-6.5-9.5c-2.5,0-4,2.5-5.5,4-.5.5-1,0-.5-.5,1.5-1.5,4-5.5,4-9,0-4-2.5-9-6.5-9s-6.5,5-6.5,9c0,3.5,2.5,7.5,4,9,.5.5,0,1-.5.5-1.5-1.5-3-4-5.5-4-4.5,0-6.5,4.5-6.5,9.5s2,9,6.5,9c2.5,0,5-3,6-5,.5-.5.5,0,.5.5-.5,4-.5,5-1,8s-2,8.5-2,8.5a17.042,17.042,0,0,1,10,0s-1.5-5.5-2-8.5-.5-4-1-8C32,630.362,32,629.862,32.5,630.362Z"/>
    <path id="path3037-1-1-14" d="M332.5,934.362c1-2,3.5-5,6-5,4.5,0,6.5,4,6.5,9s-2,9.5-6.5,9.5c-2.5,0-4-2.5-5.5-4-.5-.5-1,0-.5.5,1.5,1.5,4,5.5,4,9,0,4-2.5,9-6.5,9s-6.5-5-6.5-9c0-3.5,2.5-7.5,4-9,.5-.5,0-1-.5-.5-1.5,1.5-3,4-5.5,4-4.5,0-6.5-4.5-6.5-9.5s2-9,6.5-9c2.5,0,5,3,6,5,.5.5.5,0,.5-.5-.5-4-.5-5-1-8s-2-8.5-2-8.5a17.042,17.042,0,0,0,10,0s-1.5,5.5-2,8.5-.5,4-1,8C332,934.362,332,934.862,332.5,934.362Z"/>
    <path id="path3037-84" d="M185,613.362c2,4,7,10,12,10,9,0,13-8,13-18s-4-19-13-19c-5,0-8,5-11,8-1,1-2,0-1-1,3-3,8-11,8-18,0-8-5-18-13-18s-13,10-13,18c0,7,5,15,8,18,1,1,0,2-1,1-3-3-6-8-11-8-9,0-13,9-13,19s4,18,13,18c5,0,10-6,12-10,1-1,1,0,1,1-1,8-1,10-2,16s-4,17-4,17c5-2,15-2,20,0,0,0-3-11-4-17s-1-8-2-16C184,613.362,184,612.362,185,613.362Z"/>
    <path id="path3037-7-92" d="M185,951.362c2-4,7-10,12-10,9,0,13,8,13,18s-4,19-13,19c-5,0-8-5-11-8-1-1-2,0-1,1,3,3,8,11,8,18,0,8-5,18-13,18s-13-10-13-18c0-7,5-15,8-18,1-1,0-2-1-1-3,3-6,8-11,8-9,0-13-9-13-19s4-18,13-18c5,0,10,6,12,10,1,1,1,0,1-1-1-8-1-10-2-16s-4-17-4-17c5,2,15,2,20,0,0,0-3,11-4,17s-1,8-2,16C184,951.362,184,952.362,185,951.362Z"/>
  </g>
</svg>
