<svg xmlns="http://www.w3.org/2000/svg" width="360" height="540" viewBox="0 0 360 540">
  <g id="g3087" transform="translate(0 -512.362)">
    <rect id="rect6472-13" width="359" height="539" rx="29.944" transform="translate(0.5 512.862)" fill="#fff" stroke="#000" stroke-width="1"/>
    <path id="rect3163-5-18-0-7-5" d="M30,542.362a9.978,9.978,0,0,0-10,10v5a9.938,9.938,0,0,0,3.406,7.5,9.938,9.938,0,0,0-3.406,7.5v10a10,10,0,0,0,20,0v-10a9.939,9.939,0,0,0-3.406-7.5,9.939,9.939,0,0,0,3.406-7.5v-5A9.978,9.978,0,0,0,30,542.362Zm0,5a4.989,4.989,0,0,1,5,5v5a5,5,0,0,1-10,0v-5A4.989,4.989,0,0,1,30,547.362Zm0,20a4.989,4.989,0,0,1,5,5v10a5,5,0,0,1-10,0v-10A4.989,4.989,0,0,1,30,567.362Z"/>
    <path id="rect3163-5-18-0-7-4-9" d="M330,1022.362a9.978,9.978,0,0,1-10-10v-5a9.938,9.938,0,0,1,3.406-7.5,9.938,9.938,0,0,1-3.406-7.5v-10a10,10,0,0,1,20,0v10a9.938,9.938,0,0,1-3.406,7.5,9.939,9.939,0,0,1,3.406,7.5v5a9.978,9.978,0,0,1-10,10Zm0-5a4.989,4.989,0,0,0,5-5v-5a5,5,0,0,0-10,0v5A4.989,4.989,0,0,0,330,1017.362Zm0-20a4.989,4.989,0,0,0,5-5v-10a5,5,0,0,0-10,0v10A4.989,4.989,0,0,0,330,997.362Z"/>
    <path id="path3037-1-8" d="M32.5,630.362c1,2,3.5,5,6,5,4.5,0,6.5-4,6.5-9s-2-9.5-6.5-9.5c-2.5,0-4,2.5-5.5,4-.5.5-1,0-.5-.5,1.5-1.5,4-5.5,4-9,0-4-2.5-9-6.5-9s-6.5,5-6.5,9c0,3.5,2.5,7.5,4,9,.5.5,0,1-.5.5-1.5-1.5-3-4-5.5-4-4.5,0-6.5,4.5-6.5,9.5s2,9,6.5,9c2.5,0,5-3,6-5,.5-.5.5,0,.5.5-.5,4-.5,5-1,8s-2,8.5-2,8.5a17.042,17.042,0,0,1,10,0s-1.5-5.5-2-8.5-.5-4-1-8C32,630.362,32,629.862,32.5,630.362Z"/>
    <path id="path3037-1-1-4" d="M332.5,934.362c1-2,3.5-5,6-5,4.5,0,6.5,4,6.5,9s-2,9.5-6.5,9.5c-2.5,0-4-2.5-5.5-4-.5-.5-1,0-.5.5,1.5,1.5,4,5.5,4,9,0,4-2.5,9-6.5,9s-6.5-5-6.5-9c0-3.5,2.5-7.5,4-9,.5-.5,0-1-.5-.5-1.5,1.5-3,4-5.5,4-4.5,0-6.5-4.5-6.5-9.5s2-9,6.5-9c2.5,0,5,3,6,5,.5.5.5,0,.5-.5-.5-4-.5-5-1-8s-2-8.5-2-8.5a17.042,17.042,0,0,0,10,0s-1.5,5.5-2,8.5-.5,4-1,8C332,934.362,332,934.862,332.5,934.362Z"/>
    <path id="path3037-07" d="M95,613.362c2,4,7,10,12,10,9,0,13-8,13-18s-4-19-13-19c-5,0-8,5-11,8-1,1-2,0-1-1,3-3,8-11,8-18,0-8-5-18-13-18s-13,10-13,18c0,7,5,15,8,18,1,1,0,2-1,1-3-3-6-8-11-8-9,0-13,9-13,19s4,18,13,18c5,0,10-6,12-10,1-1,1,0,1,1-1,8-1,10-2,16s-4,17-4,17c5-2,15-2,20,0,0,0-3-11-4-17s-1-8-2-16C94,613.362,94,612.362,95,613.362Z"/>
    <path id="path3037-7-6" d="M275,613.362c2,4,7,10,12,10,9,0,13-8,13-18s-4-19-13-19c-5,0-8,5-11,8-1,1-2,0-1-1,3-3,8-11,8-18,0-8-5-18-13-18s-13,10-13,18c0,7,5,15,8,18,1,1,0,2-1,1-3-3-6-8-11-8-9,0-13,9-13,19s4,18,13,18c5,0,10-6,12-10,1-1,1,0,1,1-1,8-1,10-2,16s-4,17-4,17c5-2,15-2,20,0,0,0-3-11-4-17s-1-8-2-16C274,613.362,274,612.362,275,613.362Z"/>
    <path id="path3037-4-3" d="M185,703.362c2,4,7,10,12,10,9,0,13-8,13-18s-4-19-13-19c-5,0-8,5-11,8-1,1-2,0-1-1,3-3,8-11,8-18,0-8-5-18-13-18s-13,10-13,18c0,7,5,15,8,18,1,1,0,2-1,1-3-3-6-8-11-8-9,0-13,9-13,19s4,18,13,18c5,0,10-6,12-10,1-1,1,0,1,1-1,8-1,10-2,16s-4,17-4,17c5-2,15-2,20,0,0,0-3-11-4-17s-1-8-2-16C184,703.362,184,702.362,185,703.362Z"/>
    <path id="path3037-0-6" d="M95,793.362c2,4,7,10,12,10,9,0,13-8,13-18s-4-19-13-19c-5,0-8,5-11,8-1,1-2,0-1-1,3-3,8-11,8-18,0-8-5-18-13-18s-13,10-13,18c0,7,5,15,8,18,1,1,0,2-1,1-3-3-6-8-11-8-9,0-13,9-13,19s4,18,13,18c5,0,10-6,12-10,1-1,1,0,1,1-1,8-1,10-2,16s-4,17-4,17c5-2,15-2,20,0,0,0-3-11-4-17s-1-8-2-16C94,793.362,94,792.362,95,793.362Z"/>
    <path id="path3037-9-1" d="M275,793.362c2,4,7,10,12,10,9,0,13-8,13-18s-4-19-13-19c-5,0-8,5-11,8-1,1-2,0-1-1,3-3,8-11,8-18,0-8-5-18-13-18s-13,10-13,18c0,7,5,15,8,18,1,1,0,2-1,1-3-3-6-8-11-8-9,0-13,9-13,19s4,18,13,18c5,0,10-6,12-10,1-1,1,0,1,1-1,8-1,10-2,16s-4,17-4,17c5-2,15-2,20,0,0,0-3-11-4-17s-1-8-2-16C274,793.362,274,792.362,275,793.362Z"/>
    <path id="path3037-488-5" d="M185,861.362c2-4,7-10,12-10,9,0,13,8,13,18s-4,19-13,19c-5,0-8-5-11-8-1-1-2,0-1,1,3,3,8,11,8,18,0,8-5,18-13,18s-13-10-13-18c0-7,5-15,8-18,1-1,0-2-1-1-3,3-6,8-11,8-9,0-13-9-13-19s4-18,13-18c5,0,10,6,12,10,1,1,1,0,1-1-1-8-1-10-2-16s-4-17-4-17c5,2,15,2,20,0,0,0-3,11-4,17s-1,8-2,16C184,861.362,184,862.362,185,861.362Z"/>
    <path id="path3037-2-4" d="M95,951.362c2-4,7-10,12-10,9,0,13,8,13,18s-4,19-13,19c-5,0-8-5-11-8-1-1-2,0-1,1,3,3,8,11,8,18,0,8-5,18-13,18s-13-10-13-18c0-7,5-15,8-18,1-1,0-2-1-1-3,3-6,8-11,8-9,0-13-9-13-19s4-18,13-18c5,0,10,6,12,10,1,1,1,0,1-1-1-8-1-10-2-16s-4-17-4-17c5,2,15,2,20,0,0,0-3,11-4,17s-1,8-2,16C94,951.362,94,952.362,95,951.362Z"/>
    <path id="path3037-45-2" d="M275,951.362c2-4,7-10,12-10,9,0,13,8,13,18s-4,19-13,19c-5,0-8-5-11-8-1-1-2,0-1,1,3,3,8,11,8,18,0,8-5,18-13,18s-13-10-13-18c0-7,5-15,8-18,1-1,0-2-1-1-3,3-6,8-11,8-9,0-13-9-13-19s4-18,13-18c5,0,10,6,12,10,1,1,1,0,1-1-1-8-1-10-2-16s-4-17-4-17c5,2,15,2,20,0,0,0-3,11-4,17s-1,8-2,16C274,951.362,274,952.362,275,951.362Z"/>
  </g>
</svg>
