<svg id="g9009" xmlns="http://www.w3.org/2000/svg" width="360" height="540" viewBox="0 0 360 540">
  <path id="path9011" d="M30.437.5H329.563A29.881,29.881,0,0,1,359.5,30.437V509.563A29.881,29.881,0,0,1,329.563,539.5H30.437A29.881,29.881,0,0,1,.5,509.563V30.437A29.881,29.881,0,0,1,30.437.5Z" fill="#fff" stroke="#000" stroke-width="0.992"/>
  <path id="path9013" d="M260.22,302.315l-9.531.673-12.224-2.374L225,295.335l-11.728-6.626-9.035-7.512-16.654-20.764-8.858-12.4L170.4,240.7,154.2,228.791l-13.961-7.476-17.185-5.1-13.429-1.382-9.709-.177-11.055,3.26,11.2,19.665,9.532-.673,12.26,2.409,13.429,5.244,11.764,6.661,9,7.476,16.689,20.764,8.858,12.437,8.327,7.3L206.079,311.1l13.961,7.512,17.185,5.1,13.429,1.346,9.709.177,11.055-3.224Z" fill="#ff5"/>
  <path id="path9015" d="M59.988,30.012h270v360h0" fill="none" stroke="#55a" stroke-width="1.984"/>
  <path id="path9017" d="M30.012,30.012v5h5V70.016a5,5,0,1,1-9.992,0V64.984H19.984v5.031a10.01,10.01,0,0,0,20.02,0v-40Z"/>
  <path id="path9019" d="M329.988,509.988v-5h-5V469.984a5,5,0,0,1,9.992,0v5.031h5.031v-5.031a10.01,10.01,0,0,0-20.02,0v40Z"/>
  <path id="path9021" d="M170.079,184.429l37.878,30.756-.283,62.717-3.862,2.658-6.8-6.8-10.346-13.89-8.575-12.118-3.862-4.146-4.713-3.862Z" fill="#ff5"/>
  <path id="path9023" d="M222.165,293.28,247,275.244l2.374,4.748-21.3,16.866Z" fill="#ff5"/>
  <path id="path9025" d="M203.811,279.992l36.106-23.669,2.055,4.713L208.24,283.252Z" fill="#ff5"/>
  <path id="path9027" d="M217.134,208.382l-.319,63.035,23.988-15.7-3.862-17.752-2.657-17.15-.6-15.98.319-8.575Z" fill="#f55"/>
  <path id="path9029" d="M207.673,283.252l34.3-22.783s2.409,6.094,3.543,9.177c.709,1.843,2.091,5.6,2.091,5.6L222.165,293.6s-6.484-2.126-9.177-4.146c-2.2-1.63-5.315-6.2-5.315-6.2Z"/>
  <path id="path9031" d="M148,167.74l59.244,47.268L234,198l-.248-14,.744-13.252.5-10.488-27.248,18.5-35.008-28.772-4.5-2.232-2.48-2.268-4-.5-2.268-3.26-2.976.78-3.012-3.756h-3.012L148,136.488Z"/>
  <path id="path9033" d="M138.012,131.492l-.248,89.008,5.988,2.232,5,2.764L148.5,136.24l-3.26-.5-3.224-3.26-2.02.78Z"/>
  <path id="path9035" d="M260.008,208.24l20.232-9.992s3.9,11.055,6.024,16.512S290.3,225.78,293,230.988a64.932,64.932,0,0,0,6.236,10.028,102.747,102.747,0,0,0,8.008,8.22l-.248,78.52s-9.886-11.976-14-18.5c-3.579-5.7-6.307-11.941-9.248-18-3.827-7.937-7.9-15.768-10.984-24.024a166.49,166.49,0,0,1-5.031-16.972c-1.524-5.953-2.87-11.976-3.969-18-.815-4.394-1.311-8.858-2.02-13.252-.567-3.614-1.736-10.772-1.736-10.772Z" fill="#f55" stroke="#55a" stroke-linecap="round" stroke-linejoin="round" stroke-width="1.984"/>
  <path id="path9037" d="M263.764,149.492l27.248,14.74-2.764,10.276.992,9.992,3.012,6.732-8.008,6.024L270.5,203.244l-10.24,4.252-.992-9.992V185.492l.744-14,2.232-15.732Z" fill="#ff5"/>
  <path id="path9039" d="M226.488,296.752l22.748-17.008s3.969,8.681,6.024,13c1.63,3.437,5,10.24,5,10.24s-11.091.709-16.512-.248c-5.988-1.063-17.256-5.988-17.256-5.988Z" fill="#55a"/>
  <path id="path9041" d="M329.988,382.748l-16.866-14.634L313.37,88.37l16.618-.106Z"/>
  <path id="path9043" d="M95.988,148.606l.177,66.827-6.909,2.126s-11.2-15.626-16.937-23.35c-4.181-5.563-8.681-10.913-12.756-16.618-.992-1.382-2.835-4.217-2.835-4.217s11.091-8.079,16.8-11.87c4.075-2.657,8.185-5.173,12.4-7.583C89.22,152.043,95.988,148.606,95.988,148.606Z" fill="#55a"/>
  <path id="path9045" d="M112.252,140.492l-.354,74.232s-5.528-.283-8.291-.177c-2.87.142-8.5.886-8.5.886l.177-66.827s6.307-3.4,9.531-4.925C107.256,142.512,112.252,140.492,112.252,140.492Z"/>
  <path id="path9047" d="M205.228,64.134c-7.051.106-14.138-.106-21.189.354-5.882.354-11.728,1.028-17.5,1.913-3.827.6-7.547,1.559-11.339,2.3-.567,4.146-1.2,8.256-1.772,12.366-.6,4.677-1.1,9.319-1.736,14-.5,3.472-.78,6.98-1.594,10.417-.5,2.055-1.311,4-1.949,6.024l-2.657.354c-.886-.886-1.453-2.3-2.657-2.657a6.708,6.708,0,0,0-4.961.886,14.132,14.132,0,0,0-4.925,5.28,15.742,15.742,0,0,0-2.48,6.555,9.064,9.064,0,0,0,.709,4.429,5.128,5.128,0,0,0,2.126,2.657c.992.461,2.232,0,3.366,0a10.915,10.915,0,0,0,1.736,2.445c1.2.992,2.835,1.311,4.252,1.949.78.886,1.24,2.161,2.3,2.657.921.425,2.02,0,3.012,0,.886.815,1.524,2.02,2.657,2.48.921.354,1.984,0,2.976,0,1.028,1.169,1.594,2.906,3.012,3.543,1.028.425,2.232-.142,3.366-.177.886,1.063,1.417,2.587,2.657,3.189,1.028.461,2.232,0,3.366,0a27.86,27.86,0,0,0,3.331,2.8,16.379,16.379,0,0,0,4.606,1.949,11.106,11.106,0,0,0,10.276-1.949,17.3,17.3,0,0,0,4.217-4.571,31.016,31.016,0,0,0,3.543-7.8c1.594-4.925,2.091-10.1,3.012-15.2,1.169-6.626,2.02-13.323,3.189-19.984,1.134-6.591,2.409-13.217,3.685-19.772,1.1-5.492,2.268-10.984,3.366-16.441Z" fill="#ff5"/>
  <path id="path9049" d="M131.988,30.012l20.02,40s10.169-2.693,15.378-3.543a197.859,197.859,0,0,1,24.626-2.48,256.545,256.545,0,0,1,29.976.992C233.752,66.047,257,70.016,257,70.016l23-40Z" fill="#f55" stroke="#55a" stroke-linecap="round" stroke-linejoin="round" stroke-width="1.984"/>
  <path id="path9051" d="M146.835,31.465,162,61.016c6.484-2.268,11.409-2.339,19.7-3.26l-3.9-26.291h-5.74l5.1,22.748c-4.748.319-8.5.283-12.614,1.913L153.425,31.465Z" fill="#55a" stroke="#55a" stroke-linecap="round" stroke-linejoin="round" stroke-width="1.984"/>
  <path id="path9053" d="M186.7,31.465l3.047,25.3c10.063-.921,18.142-1.488,28.2-.461l5.492-24.839h-6.449l-3.047,19.807c-7.9-.461-12.579.035-19.2.5l-2.232-20.3Z" fill="#55a" stroke="#55a" stroke-linecap="round" stroke-linejoin="round" stroke-width="1.984"/>
  <path id="path9055" d="M233.256,31.465l-7.335,25.051c7.37.638,18.071,1.594,26.079,3.472l13.713-28.524H259.37L248.988,54.992c-4.465-1.2-12.012-1.736-16.476-2.374l6.236-21.154Z" fill="#55a" stroke="#55a" stroke-linecap="round" stroke-linejoin="round" stroke-width="1.984"/>
  <path id="path9057" d="M205.016,64.984S201.543,81.638,199.984,90c-1.807,9.957-2.906,20.091-5,30.012-1.382,6.732-1.594,14-5,19.984-2.3,4.11-5.421,8.787-9.992,9.992-4.429,1.169-10.2-.177-13.252-3.579-2.551-2.87-3.083-7.8-1.736-11.409,1.417-3.933,5.28-8.327,9.461-8.185,4.358.142,9.177,4.89,9.248,9.213.035,3.9-4.181,8.256-8.079,8.5A5.867,5.867,0,0,1,170.008,140c-.39-2.8,2.161-6.839,5-6.8,1.7,0,4,1.984,2.941,4.146" fill="none" stroke="#55a" stroke-linecap="round" stroke-linejoin="round" stroke-width="1.984"/>
  <path id="path9059" d="M199.169,64.169c-2.941,8.965-3.685,18.071-5.244,27.177-1.594,9.035-2.02,18.248-4.146,27.177-1.7,7.087-3.614,14.634-6.8,20.764" fill="none" stroke="#55a" stroke-linecap="round" stroke-linejoin="round" stroke-width="1.984"/>
  <path id="path9061" d="M192.472,64.169c-2.232,7.8-2.906,16.051-4.146,24.094-1.2,7.866-1.63,15.874-3.154,23.669-1.1,5.669-1.913,11.339-4.323,16.689" fill="none" stroke="#55a" stroke-linecap="round" stroke-linejoin="round" stroke-width="1.984"/>
  <path id="path9063" d="M186.52,64.559C184.535,72,183.933,79.9,182.835,87.591c-1.063,7.512-1.453,15.2-2.8,22.642-.992,5.386-1.7,10.843-3.862,15.945" fill="none" stroke="#55a" stroke-linecap="round" stroke-linejoin="round" stroke-width="1.984"/>
  <path id="path9065" d="M180.709,65.2c-1.807,7.087-2.339,14.563-3.331,21.9-.957,7.122-1.311,14.386-2.516,21.472-.886,5.138-1.524,10.311-3.472,15.13" fill="none" stroke="#55a" stroke-linecap="round" stroke-linejoin="round" stroke-width="1.984"/>
  <path id="path9067" d="M175,65.728c-1.772,6.732-2.339,13.854-3.3,20.8-.992,6.8-1.311,13.713-2.551,20.445-.886,4.89-1.524,9.78-3.472,14.386" fill="none" stroke="#55a" stroke-linecap="round" stroke-linejoin="round" stroke-width="1.984"/>
  <path id="path9069" d="M168.626,66.614c-1.736,6.307-2.126,12.579-3.047,18.85-.921,6.343-1.276,12.756-2.48,19.028-.85,4.535-1.453,9.106-3.366,13.394" fill="none" stroke="#55a" stroke-linecap="round" stroke-linejoin="round" stroke-width="1.984"/>
  <path id="path9071" d="M162.461,67.535c-1.665,5.74-2.161,11.8-3.047,17.717-.886,5.776-1.2,11.657-2.3,17.4-.815,4.146-1.417,8.327-3.189,12.26" fill="none" stroke="#55a" stroke-linecap="round" stroke-linejoin="round" stroke-width="1.984"/>
  <path id="path9073" d="M155.48,69.484c-1.417,5.138-1.843,10.2-2.587,15.343-.78,5.173-1.028,10.453-1.984,15.591-.673,3.72-1.169,7.476-2.693,10.984" fill="none" stroke="#55a" stroke-linecap="round" stroke-linejoin="round" stroke-width="1.984"/>
  <path id="path9075" d="M175.429,127.2c-1.63-1.1-3.083-3.083-5.031-3.154-3.224-.106-6.413,2.055-8.5,4.465a13.854,13.854,0,0,0-3.331,9.673,9.16,9.16,0,0,0,3.3,6.555c.957.709,2.02.531,3.579.673" fill="none" stroke="#55a" stroke-linecap="round" stroke-linejoin="round" stroke-width="1.984"/>
  <path id="path9077" d="M168.945,123.98c-1.346-1.488-2.374-2.657-3.969-2.764-3.224-.177-6.413,2.055-8.5,4.5a13.71,13.71,0,0,0-3.331,9.638c.142,2.445,1.2,5.28,3.3,6.555.992.6,1.878.709,3.472-.071" fill="none" stroke="#55a" stroke-linecap="round" stroke-linejoin="round" stroke-width="1.984"/>
  <path id="path9079" d="M164.055,121c-1.63-1.1-3.083-3.083-5.031-3.154-3.224-.106-6.413,2.055-8.5,4.5a13.71,13.71,0,0,0-3.331,9.638c.142,2.445,1.2,5.244,3.3,6.555.886.567,1.63.6,3.189.071" fill="none" stroke="#55a" stroke-linecap="round" stroke-linejoin="round" stroke-width="1.984"/>
  <path id="path9081" d="M157.323,117.638c-1.24-1.772-2.48-2.657-4.146-2.764-3.189-.142-6.413,2.055-8.5,4.5a14.044,14.044,0,0,0-3.331,9.638,9.031,9.031,0,0,0,3.3,6.555c.921.638,1.63.85,3.366.461" fill="none" stroke="#55a" stroke-linecap="round" stroke-linejoin="round" stroke-width="1.984"/>
  <path id="path9083" d="M151.618,114.272a4.523,4.523,0,0,0-3.756-2.622c-3.189-.213-6.413,2.055-8.469,4.465a14.053,14.053,0,0,0-3.366,9.673,8.869,8.869,0,0,0,3.331,6.52c.744.567,1.169.248,2.728.39" fill="none" stroke="#55a" stroke-linecap="round" stroke-linejoin="round" stroke-width="1.984"/>
  <path id="path9085" d="M145.665,111.685a3.3,3.3,0,0,0-3.083-2.48c-3.189-.319-6.413,2.02-8.5,4.465a14.46,14.46,0,0,0-3.331,9.638,6.9,6.9,0,0,0,1.984,5c1.063.957,2.551.992,4.11,1.1" fill="none" stroke="#55a" stroke-linecap="round" stroke-linejoin="round" stroke-width="1.984"/>
  <path id="path9087" d="M256.783,70.476c-.85,10.169-1.453,20.3-2.516,30.437-.567,5.528-1.063,11.091-2.02,16.583-1.311,7.264-1.63,14.988-5,21.543a31.107,31.107,0,0,1-8.858,9.992,29.586,29.586,0,0,1-10.913,5.457,29.069,29.069,0,0,1-12.72.248c-4.146-.886-7.831-3.224-11.551-5.244-4.677-2.516-8.929-5.74-13.394-8.61" fill="none" stroke="#55a" stroke-linecap="round" stroke-linejoin="round" stroke-width="1.984"/>
  <path id="path9089" d="M202.961,83.87c3.933-1.134,7.76-2.764,11.8-3.4,2.622-.39,5.421-.921,7.972-.213,1.276.354,3.579,1.382,3.4,2.161-.106.39-.744.319-1.134.319-1.488.035-2.835-.921-4.323-1.134a29.279,29.279,0,0,0-6.591,0c-3.756.39-7.406,1.524-11.126,2.268Z" fill="none" stroke="#55a" stroke-linecap="round" stroke-linejoin="round" stroke-width="1.984"/>
  <path id="path9091" d="M225,92.161c.461-.5,1.736-.921,1.346-1.453-.461-.744-3.3-2.551-5.209-3.3a16.662,16.662,0,0,0-5.776-1.028,21.494,21.494,0,0,0-6.165.78,32.675,32.675,0,0,0-4.039,1.665" fill="none" stroke="#55a" stroke-linecap="round" stroke-linejoin="round" stroke-width="1.984"/>
  <path id="path9093" d="M200.8,93.437c3.331-.85,6.591-2.126,9.992-2.516a23.767,23.767,0,0,1,7.264.106,15.825,15.825,0,0,1,5.492,2.2,13.471,13.471,0,0,1,2.693,2.8,31.577,31.577,0,0,1-4.89,2.161,23.163,23.163,0,0,1-8.4.673,22.1,22.1,0,0,1-6.8-2.161A55.287,55.287,0,0,1,200.8,93.437Z" fill="none" stroke="#55a" stroke-linecap="round" stroke-linejoin="round" stroke-width="1.984"/>
  <path id="path9095" d="M209.2,91.949c.106,1.169-.319,2.48.248,3.508a6,6,0,0,0,3.4,2.516,5.5,5.5,0,0,0,3.3,0,4.985,4.985,0,0,0,2.374-2.055c.744-1.24.6-2.8.921-4.217" fill="none" stroke="#55a" stroke-linecap="round" stroke-linejoin="round" stroke-width="1.984"/>
  <path id="path9097" d="M212.988,92.764a1.294,1.294,0,0,0,.071,1.417A1.671,1.671,0,0,0,214.37,95a1.5,1.5,0,0,0,1.311-.744c.319-.461.5-1.24.106-1.63a2.289,2.289,0,0,0-2.8.142Z" fill="#55a" stroke="#55a" stroke-linecap="round" stroke-linejoin="round" stroke-width="1.984"/>
  <path id="path9099" d="M208.878,103.854a52.184,52.184,0,0,0,8.4-2.02c2.374-.921,4.642-2.693,6.7-3.65" fill="#55a" stroke="#55a" stroke-linecap="round" stroke-linejoin="round" stroke-width="1.984"/>
  <path id="path9101" d="M237.154,86.492a26.6,26.6,0,0,0-1.843,4.429c-.567,3.189-.142,6.52.248,9.78.461,3.968,1.913,7.831,2.587,11.8.425,2.268,1.453,4.642.921,6.909a5.96,5.96,0,0,1-1.913,2.835,19.8,19.8,0,0,1-3.65,2.161" fill="none" stroke="#55a" stroke-linecap="round" stroke-linejoin="round" stroke-width="1.984"/>
  <path id="path9103" d="M223.866,111.26c-1.559,1.7-3.827,2.941-4.677,5.1a4.416,4.416,0,0,0,0,3.3,4.624,4.624,0,0,0,2.976,2.48,4.758,4.758,0,0,0,3.047-.78c1.2-.638,1.878-2.055,3.083-2.622a3.723,3.723,0,0,1,2.835-.567c.283.106.638.5.567.78-.319,1.028-1.984.78-2.941,1.134-1.311.5-2.587.921-3.862,1.382" fill="none" stroke="#55a" stroke-linecap="round" stroke-linejoin="round" stroke-width="1.984"/>
  <path id="path9105" d="M216.319,132.449c1.594-.815,3.862-.638,5.776-.6,1.984.035,3.9.957,5.846.886,2.232-.106,4.287-1.594,6.555-1.594a17.56,17.56,0,0,1,4.783,1.063,3.2,3.2,0,0,0,0,1.736c-1.63-.6-3.969-1.488-5.988-1.24-1.913.248-3.3,2.445-5.244,2.48-2.232.071-3.969-2.48-6.236-2.587-2.161-.071-4.429,1.63-6.13,2.02a4.016,4.016,0,0,0,.638-2.161Z" fill="#55a" stroke="#55a" stroke-linecap="round" stroke-linejoin="round" stroke-width="1.984"/>
  <path id="path9107" d="M220.252,139.394c1.594.673,3.083,1.7,4.783,2.02a10.124,10.124,0,0,0,3.862-.035,12.651,12.651,0,0,0,2.445-.886c.744-.319,1.453-.709,2.2-1.028" fill="none" stroke="#55a" stroke-linecap="round" stroke-linejoin="round" stroke-width="1.984"/>
  <path id="path9109" d="M231.768,144.39a8.892,8.892,0,0,0-3.437-.921,6.851,6.851,0,0,0-2.835.815" fill="none" stroke="#55a" stroke-linecap="round" stroke-linejoin="round" stroke-width="1.984"/>
  <path id="path9111" d="M238.287,83.551c1.559-1.843,5-2.3,7.689-2.516a16.591,16.591,0,0,1,5.846.957,27.656,27.656,0,0,1,3.933,1.736,42.07,42.07,0,0,0-6.626-1.276,24.929,24.929,0,0,0-5.811.78,16.227,16.227,0,0,0-3.791,1.594c-.5.283-1.63-.815-1.24-1.276Z" fill="#55a" stroke="#55a" stroke-linecap="round" stroke-linejoin="round" stroke-width="1.984"/>
  <path id="path9113" d="M237.72,90.354a24.438,24.438,0,0,1,4.642-2.268,16.323,16.323,0,0,1,7.264-.567c1.594.283,2.941,1.346,4.429,1.984" fill="none" stroke="#55a" stroke-linecap="round" stroke-linejoin="round" stroke-width="1.984"/>
  <path id="path9115" d="M236.693,93.65a24.951,24.951,0,0,1,5.7-1.453,27.041,27.041,0,0,1,6.768-.071,10.514,10.514,0,0,1,3.862,1.1,10.712,10.712,0,0,1,1.772,1.807l-.354,2.728A21.382,21.382,0,0,1,250.866,99a20.755,20.755,0,0,1-5.138.213,17.774,17.774,0,0,1-5.457-.886,13.847,13.847,0,0,1-3.579-2.339,13.134,13.134,0,0,1-.957-1.028c.319-.425.461-1.1.957-1.311Z" fill="none" stroke="#55a" stroke-linecap="round" stroke-linejoin="round" stroke-width="1.984"/>
  <path id="path9117" d="M241.087,92.906c.071,1.169-.319,2.48.248,3.508a5.85,5.85,0,0,0,3.4,2.516,5,5,0,0,0,3.3,0,4.781,4.781,0,0,0,2.374-2.055c.744-1.2.6-2.8.921-4.181" fill="none" stroke="#55a" stroke-linecap="round" stroke-linejoin="round" stroke-width="1.984"/>
  <path id="path9119" d="M244.559,93.756a1.3,1.3,0,0,0,.071,1.417,1.875,1.875,0,0,0,1.311.815,1.581,1.581,0,0,0,1.311-.744c.319-.461.5-1.276.106-1.665a2.3,2.3,0,0,0-2.8.177Z" fill="#55a" stroke="#55a" stroke-linecap="round" stroke-linejoin="round" stroke-width="1.984"/>
  <path id="path9121" d="M237.508,99.071a35.415,35.415,0,0,0,3.791,4.181,26.992,26.992,0,0,0,4,2.126" fill="none" stroke="#55a" stroke-linecap="round" stroke-linejoin="round" stroke-width="1.984"/>
  <path id="path9123" d="M253.559,108.6a23.712,23.712,0,0,0,2.622,7.016,17.125,17.125,0,0,0,4.783,5.634,9.091,9.091,0,0,0,5.563,1.736,6.823,6.823,0,0,0,4.748-2.409,7.967,7.967,0,0,0,1.169-5.28,7.808,7.808,0,0,0-1.665-4.642,5.961,5.961,0,0,0-3.862-2.055,3.747,3.747,0,0,0-2.941.78,3.135,3.135,0,0,0-.78,2.232c.035.85-.071,1.736.992,2.339-.78-.319-1.311-1.311-1.878-2.055a19.654,19.654,0,0,1-1.913-3.508,30.059,30.059,0,0,1-1.488-4.358c-.531-2.02-.921-4.11-1.346-6.13-.709-3.224-1.524-7.087-2.055-9.638-.567,5.528-1.346,14.776-1.949,20.339Z" fill="#ff5" stroke="#55a" stroke-linecap="round" stroke-linejoin="round" stroke-width="1.984"/>
  <path id="path9125" d="M250.831,128.587a49.2,49.2,0,0,0,4.854,12.366,18.839,18.839,0,0,0,4.783,5.634c1.594,1.169,3.472,2.48,5.457,2.339a7.037,7.037,0,0,0,4.854-3.012,8.4,8.4,0,0,0,1.169-5.244,7.828,7.828,0,0,0-1.665-4.677,6.288,6.288,0,0,0-3.9-2.055,3.844,3.844,0,0,0-2.906.78,2.987,2.987,0,0,0-.78,2.232c.071.815.035,1.559,1.063,2.161a5.66,5.66,0,0,1-1.949-1.843,18.844,18.844,0,0,1-1.949-3.508c-.6-1.417-.992-2.941-1.453-4.394-.531-1.736-1.028-3.508-1.559-5.244-1.169-4.11-2.976-9.709-3.508-12.26-.567,5.528-1.949,11.161-2.516,16.724Z" fill="#ff5" stroke="#55a" stroke-linecap="round" stroke-linejoin="round" stroke-width="1.984"/>
  <path id="path9127" d="M248.6,136.417s.921,2.87,1.559,4.217c.744,1.524,2.622,4.358,2.622,4.358s3.224,1.453,4.89,2.055c1.559.567,4.748,1.453,4.748,1.453a42.236,42.236,0,0,1-5.138-4.677,25.665,25.665,0,0,1-3.047-5.244,57.605,57.605,0,0,1-2.02-5.563c-.567-1.665-1.559-5.067-1.559-5.067s-.567,3.331-.992,5c-.283,1.169-1.063,3.472-1.063,3.472Z" fill="#ff5" stroke="#55a" stroke-linecap="round" stroke-linejoin="round" stroke-width="1.984"/>
  <path id="path9129" d="M252.78,144.992l-6.8-3.9,2.622-4.748Z" fill="#ff5" stroke="#55a" stroke-linecap="round" stroke-linejoin="round" stroke-width="1.984"/>
  <path id="path9131" d="M182.409,149.209,207.319,169.9l28.063-18.461-.673,8.965-27.035,18.6-35.114-28.984A13.256,13.256,0,0,0,182.409,149.209Z" fill="#ff5" stroke="#55a" stroke-linecap="round" stroke-linejoin="round" stroke-width="1.984"/>
  <path id="path9133" d="M112.252,158.528l9.354,10.594-9.177,9.709" fill="none" stroke="#55a" stroke-linecap="round" stroke-linejoin="round" stroke-width="1.984"/>
  <path id="path9135" d="M112.606,164.941l3.366,3.9-3.366,3.508" fill="none" stroke="#55a" stroke-linecap="round" stroke-linejoin="round" stroke-width="1.984"/>
  <path id="path9137" d="M125.5,146.516l-9.354,9.709,9,9.886,9.106-9.886Zm-.177,4.181,5.35,5-5.35,5.882-5.173-5.173Z" fill="#55a" stroke="#55a" stroke-linecap="round" stroke-linejoin="round" stroke-width="1.984"/>
  <path id="path9139" d="M329.988,52.016,292,88.016h37.984Z" fill="#ff5" stroke="#55a" stroke-linecap="round" stroke-linejoin="round" stroke-width="1.984"/>
  <path id="path9141" d="M329.988,59.988l-23,22h23Z" fill="#f55" stroke="#55a" stroke-linecap="round" stroke-linejoin="round" stroke-width="1.984"/>
  <path id="path9143" d="M111.685,184.11l9.354,10.63-9.177,9.709" fill="none" stroke="#55a" stroke-linecap="round" stroke-linejoin="round" stroke-width="1.984"/>
  <path id="path9145" d="M112.039,190.559l3.366,3.862-3.366,3.543" fill="none" stroke="#55a" stroke-linecap="round" stroke-linejoin="round" stroke-width="1.984"/>
  <path id="path9147" d="M137.161,159.626l-9.177,9.85,9.177,9.709" fill="none" stroke="#55a" stroke-linecap="round" stroke-linejoin="round" stroke-width="1.984"/>
  <path id="path9149" d="M136.984,165.3l-3.366,3.9,3.366,3.508" fill="none" stroke="#55a" stroke-linecap="round" stroke-linejoin="round" stroke-width="1.984"/>
  <path id="path9151" d="M136.453,203.669l-8.61-9.283,9.177-9.709" fill="none" stroke="#55a" stroke-linecap="round" stroke-linejoin="round" stroke-width="1.984"/>
  <path id="path9153" d="M136.843,198.567l-3.331-3.862,3.331-3.543" fill="none" stroke="#55a" stroke-linecap="round" stroke-linejoin="round" stroke-width="1.984"/>
  <path id="path9155" d="M124.512,172.276l-9.354,9.709,9,9.886,9.5-10.063Zm-.177,4.181,5.35,5-5.35,5.882-5.173-5.173Z" fill="#55a" stroke="#55a" stroke-linecap="round" stroke-linejoin="round" stroke-width="1.984"/>
  <path id="path9157" d="M124.9,197.646l-9.319,9.709,9,9.425,9.673-9.213Zm-.142,4.181,5.35,5-5.35,5.882-5.209-5.138Z" fill="#55a" stroke="#55a" stroke-linecap="round" stroke-linejoin="round" stroke-width="1.984"/>
  <path id="path9159" d="M137.374,152.291l-8.4-9.071,7.831-8.4" fill="none" stroke="#55a" stroke-linecap="round" stroke-linejoin="round" stroke-width="1.984"/>
  <path id="path9161" d="M137.232,147.012l-3.366-3.508,2.764-3.331" fill="none" stroke="#55a" stroke-linecap="round" stroke-linejoin="round" stroke-width="1.984"/>
  <path id="path9163" d="M112.642,154.2l9.957-10.417-5.74-6.059" fill="none" stroke="#55a" stroke-linecap="round" stroke-linejoin="round" stroke-width="1.984"/>
  <path id="path9165" d="M113,147.791l3.366-3.9L113,140.35" fill="none" stroke="#55a" stroke-linecap="round" stroke-linejoin="round" stroke-width="1.984"/>
  <path id="path9167" d="M111.756,210.3l3.862,4.606" fill="#f55" stroke="#55a" stroke-linecap="round" stroke-linejoin="round" stroke-width="1.984"/>
  <path id="path9169" d="M137.48,210.083l-7.087,7.3" fill="#f55" stroke="#55a" stroke-linecap="round" stroke-linejoin="round" stroke-width="1.984"/>
  <path id="path9171" d="M112.146,140.776l-.567,73.878" fill="#f55" stroke="#55a" stroke-linecap="round" stroke-linejoin="round" stroke-width="1.984"/>
  <path id="path9173" d="M137.693,131.74l-.213,88.406" fill="#f55" stroke="#55a" stroke-linecap="round" stroke-linejoin="round" stroke-width="1.984"/>
  <path id="path9175" d="M121.181,136.169l4.394,4.394,8.469-8.433-1.346-2.3Z" fill="#55a" stroke="#55a" stroke-linecap="round" stroke-linejoin="round" stroke-width="1.984"/>
  <path id="path9177" d="M306.992,88.016v70.972l6.024,2.02V88.016Z" fill="#ff5" stroke="#55a" stroke-linecap="round" stroke-linejoin="round" stroke-width="1.984"/>
  <path id="path9179" d="M313.016,368.008V166h-6.024V369.992l23,20.02V383Z" fill="#ff5" stroke="#55a" stroke-linecap="round" stroke-linejoin="round" stroke-width="1.984"/>
  <path id="path9181" d="M321.484,90A2.5,2.5,0,1,0,324,92.516,2.793,2.793,0,0,0,321.484,90Z" fill="#ff5"/>
  <path id="path9183" d="M321.484,104A2.5,2.5,0,1,0,324,106.512,2.793,2.793,0,0,0,321.484,104Z" fill="#ff5"/>
  <path id="path9185" d="M324.5,97.016a2.79,2.79,0,0,0-2.48,2.48,2.826,2.826,0,0,0,2.48,2.516,2.862,2.862,0,0,0,2.516-2.516A2.826,2.826,0,0,0,324.5,97.016Z" fill="#ff5"/>
  <path id="path9187" d="M318.508,97.016a2.826,2.826,0,0,0-2.516,2.48,2.862,2.862,0,0,0,2.516,2.516,2.826,2.826,0,0,0,2.48-2.516A2.79,2.79,0,0,0,318.508,97.016Z" fill="#ff5"/>
  <path id="path9189" d="M321.661,138.756a2.5,2.5,0,1,0,2.48,2.516A2.8,2.8,0,0,0,321.661,138.756Z" fill="#ff5"/>
  <path id="path9191" d="M321.661,152.752a2.828,2.828,0,0,0-2.516,2.516,2.5,2.5,0,0,0,5,0A2.826,2.826,0,0,0,321.661,152.752Z" fill="#ff5"/>
  <path id="path9193" d="M324.638,145.772a2.5,2.5,0,1,0,2.516,2.48A2.79,2.79,0,0,0,324.638,145.772Z" fill="#ff5"/>
  <path id="path9195" d="M318.65,145.772a2.5,2.5,0,1,0,2.516,2.48A2.826,2.826,0,0,0,318.65,145.772Z" fill="#ff5"/>
  <path id="path9197" d="M321.449,187.547a2.5,2.5,0,0,0,0,5,2.5,2.5,0,1,0,0-5Z" fill="#ff5"/>
  <path id="path9199" d="M321.449,201.543a2.5,2.5,0,0,0,0,5,2.5,2.5,0,1,0,0-5Z" fill="#ff5"/>
  <path id="path9201" d="M324.461,194.528a2.862,2.862,0,0,0-2.516,2.516,2.826,2.826,0,0,0,2.516,2.48,2.79,2.79,0,0,0,2.48-2.48A2.826,2.826,0,0,0,324.461,194.528Z" fill="#ff5"/>
  <path id="path9203" d="M318.472,194.528a2.828,2.828,0,0,0-2.516,2.516,2.5,2.5,0,0,0,5,0A2.826,2.826,0,0,0,318.472,194.528Z" fill="#ff5"/>
  <path id="path9205" d="M321.272,237.083a2.5,2.5,0,1,0,0,5,2.5,2.5,0,0,0,0-5Z" fill="#ff5"/>
  <path id="path9207" d="M321.272,251.079a2.5,2.5,0,1,0,0,5,2.5,2.5,0,0,0,0-5Z" fill="#ff5"/>
  <path id="path9209" d="M324.248,244.063a2.516,2.516,0,1,0,2.516,2.516A2.826,2.826,0,0,0,324.248,244.063Z" fill="#ff5"/>
  <path id="path9211" d="M318.26,244.063a2.516,2.516,0,0,0,0,5.031,2.516,2.516,0,1,0,0-5.031Z" fill="#ff5"/>
  <path id="path9213" d="M321.272,285.484a2.826,2.826,0,0,0-2.516,2.48,2.862,2.862,0,0,0,2.516,2.516,2.826,2.826,0,0,0,2.48-2.516A2.79,2.79,0,0,0,321.272,285.484Z" fill="#ff5"/>
  <path id="path9215" d="M321.272,299.48a2.5,2.5,0,1,0,0,5,2.5,2.5,0,0,0,0-5Z" fill="#ff5"/>
  <path id="path9217" d="M324.248,292.465a2.5,2.5,0,1,0,2.516,2.516A2.793,2.793,0,0,0,324.248,292.465Z" fill="#ff5"/>
  <path id="path9219" d="M318.26,292.465a2.5,2.5,0,0,0,0,5,2.5,2.5,0,1,0,0-5Z" fill="#ff5"/>
  <path id="path9221" d="M320.7,334.063a2.5,2.5,0,1,0,2.48,2.48A2.793,2.793,0,0,0,320.7,334.063Z" fill="#ff5"/>
  <path id="path9223" d="M320.7,348.059a2.5,2.5,0,1,0,2.48,2.48A2.793,2.793,0,0,0,320.7,348.059Z" fill="#ff5"/>
  <path id="path9225" d="M323.681,341.043a2.826,2.826,0,0,0-2.48,2.516,2.79,2.79,0,0,0,2.48,2.48,2.826,2.826,0,0,0,2.516-2.48A2.862,2.862,0,0,0,323.681,341.043Z" fill="#ff5"/>
  <path id="path9227" d="M317.693,341.043a2.862,2.862,0,0,0-2.516,2.516,2.826,2.826,0,0,0,2.516,2.48,2.79,2.79,0,0,0,2.48-2.48A2.826,2.826,0,0,0,317.693,341.043Z" fill="#ff5"/>
  <path id="path9229" d="M315,126.992v-5l13-12.012v5.032Z" fill="#ff5"/>
  <path id="path9231" d="M315,135v-5l13-12.012v5Z" fill="#ff5"/>
  <path id="path9233" d="M315,176.988v-5l13-11.976v5Z" fill="#ff5"/>
  <path id="path9235" d="M315,185v-5l13-12.012v5Z" fill="#ff5"/>
  <path id="path9237" d="M315,226.984v-5l13-11.976v5Z" fill="#ff5"/>
  <path id="path9239" d="M315,234.992v-5l13-12.012v5.031Z" fill="#ff5"/>
  <path id="path9241" d="M315,275v-5l13-12.012v5Z" fill="#ff5"/>
  <path id="path9243" d="M315,283v-5L328,266v5Z" fill="#ff5"/>
  <path id="path9245" d="M315,322.016v-5.031l13-11.976v5Z" fill="#ff5"/>
  <path id="path9247" d="M315,329.988v-5l13-11.976v5Z" fill="#ff5"/>
  <path id="path9249" d="M315.142,368.256l-.142-1.24L328,355v5l-9.992,9.886Z" fill="#ff5"/>
  <path id="path9251" d="M321.732,373.5l-2.374-1.984,8.646-8.5v5Z" fill="#ff5"/>
  <path id="path9253" d="M247.5,170.965l-9.354,9.744,9,9.886,9.673-9.709Zm-.177,4.217,5.35,5-5.35,5.846-5.173-5.138Z" fill="#55a" stroke="#55a" stroke-linecap="round" stroke-linejoin="round" stroke-width="1.984"/>
  <path id="path9255" d="M251.22,143.469,240.7,151.937l7.689,10.949,10.807-8.4Zm-.673,4.146,4.642,5.634-6.059,5.138-4.465-5.776Z" fill="#55a" stroke="#55a" stroke-linecap="round" stroke-linejoin="round" stroke-width="1.984"/>
  <path id="path9257" d="M247.146,196.831l-8.256,9.921,10.028,8.22,8.362-9.921Zm.283,3.9,5.846,4.075-4.677,5.953-5.7-4.252Z" fill="#55a" stroke="#55a" stroke-linecap="round" stroke-linejoin="round" stroke-width="1.984"/>
  <path id="path9259" d="M249.591,220.217,241.76,231.2l10.346,8.5,8.185-11.02Zm.461,4.181,6.024,4.146-4.429,6.591-5.882-4.323Z" fill="#55a" stroke="#55a" stroke-linecap="round" stroke-linejoin="round" stroke-width="1.984"/>
  <path id="path9261" d="M253.772,246.012l-6.024,12.047,11.516,6.8,6.378-12.154Zm1.1,4.039,6.591,3.189-3.366,7.193-6.484-3.366Z" fill="#55a" stroke="#55a" stroke-linecap="round" stroke-linejoin="round" stroke-width="1.984"/>
  <path id="path9263" d="M261.035,271.417,256.146,284l12.118,5.669,5.209-12.685Zm1.488,3.933,6.839,2.551-2.657,7.476-6.768-2.728Z" fill="#55a" stroke="#55a" stroke-linecap="round" stroke-linejoin="round" stroke-width="1.984"/>
  <path id="path9265" d="M271.772,297.071l-2.409,13.252,12.969,3.3,2.693-13.429Zm2.2,3.579,7.228,1.2-1.24,7.831-7.157-1.417Z" fill="#55a" stroke="#55a" stroke-linecap="round" stroke-linejoin="round" stroke-width="1.984"/>
  <path id="path9267" d="M285.236,320.776,283.961,334.2l13.217,2.161,1.524-13.642Zm2.48,3.4,7.3.567-.531,7.937-7.264-.815Z" fill="#55a" stroke="#55a" stroke-linecap="round" stroke-linejoin="round" stroke-width="1.984"/>
  <path id="path9269" d="M261.248,158.776l-10.2,8.185,8.079,9.992" fill="none" stroke="#55a" stroke-linecap="round" stroke-linejoin="round" stroke-width="1.984"/>
  <path id="path9271" d="M260.469,163.984l-3.756,3.3,2.941,3.614" fill="none" stroke="#55a" stroke-linecap="round" stroke-linejoin="round" stroke-width="1.984"/>
  <path id="path9273" d="M262.488,149.492s-1.453,12.331-1.984,18.5c-.744,8.575-1.843,17.15-1.772,25.76a199.507,199.507,0,0,0,2.02,22.5c1.028,7.972,2.2,15.909,4,23.74a232.619,232.619,0,0,0,7.476,25.76A212.218,212.218,0,0,0,281.764,288a242.054,242.054,0,0,0,12.72,22.748c3.543,5.6,11.516,16.264,11.516,16.264" fill="none" stroke="#55a" stroke-linecap="round" stroke-linejoin="round" stroke-width="1.984"/>
  <path id="path9275" d="M235.028,176.138l10.63-11.339-9.5-11.409" fill="none" stroke="#55a" stroke-linecap="round" stroke-linejoin="round" stroke-width="1.984"/>
  <path id="path9277" d="M235.453,169.618l4.535-4.748-4.181-5.173" fill="none" stroke="#55a" stroke-linecap="round" stroke-linejoin="round" stroke-width="1.984"/>
  <path id="path9279" d="M258.52,184.571l-8.539,8.22,7.9,8.681" fill="none" stroke="#55a" stroke-linecap="round" stroke-linejoin="round" stroke-width="1.984"/>
  <path id="path9281" d="M258.2,189.425l-3.154,3.26,2.906,3.154" fill="none" stroke="#55a" stroke-linecap="round" stroke-linejoin="round" stroke-width="1.984"/>
  <path id="path9283" d="M234.071,206.043l10.24-11.693-9.85-11.091" fill="none" stroke="#55a" stroke-linecap="round" stroke-linejoin="round" stroke-width="1.984"/>
  <path id="path9285" d="M234.283,199.524l4.358-4.925-4.358-5" fill="none" stroke="#55a" stroke-linecap="round" stroke-linejoin="round" stroke-width="1.984"/>
  <path id="path9287" d="M236.835,231.343l8.965-12.685L234.886,208.63" fill="none" stroke="#55a" stroke-linecap="round" stroke-linejoin="round" stroke-width="1.984"/>
  <path id="path9289" d="M236.374,224.823l3.827-5.315-4.854-4.571" fill="none" stroke="#55a" stroke-linecap="round" stroke-linejoin="round" stroke-width="1.984"/>
  <path id="path9291" d="M241.583,256.677l7.441-13.642-12.047-8.681" fill="none" stroke="#55a" stroke-linecap="round" stroke-linejoin="round" stroke-width="1.984"/>
  <path id="path9293" d="M240.378,250.264l3.189-5.74-5.35-3.969" fill="none" stroke="#55a" stroke-linecap="round" stroke-linejoin="round" stroke-width="1.984"/>
  <path id="path9295" d="M252,282.756l5.315-14.634-13.181-6.768" fill="none" stroke="#55a" stroke-linecap="round" stroke-linejoin="round" stroke-width="1.984"/>
  <path id="path9297" d="M249.839,276.591l2.3-6.165-5.882-3.118" fill="none" stroke="#55a" stroke-linecap="round" stroke-linejoin="round" stroke-width="1.984"/>
  <path id="path9299" d="M264.543,309.224l3.543-15.165-13.925-5.138" fill="none" stroke="#55a" stroke-linecap="round" stroke-linejoin="round" stroke-width="1.984"/>
  <path id="path9301" d="M261.673,303.343l1.524-6.378-6.2-2.374" fill="none" stroke="#55a" stroke-linecap="round" stroke-linejoin="round" stroke-width="1.984"/>
  <path id="path9303" d="M279.319,333.354l2.02-15.413-13.217-3.9" fill="none" stroke="#55a" stroke-linecap="round" stroke-linejoin="round" stroke-width="2.055"/>
  <path id="path9305" d="M276.165,327.756l.921-6.484-5.917-1.843" fill="none" stroke="#55a" stroke-linecap="round" stroke-linejoin="round" stroke-width="2.055"/>
  <path id="path9307" d="M297.213,356.7l-.744-16.051-13.677-1.488" fill="none" stroke="#55a" stroke-linecap="round" stroke-linejoin="round" stroke-width="2.055"/>
  <path id="path9309" d="M293.138,351.071l-.248-6.484-6.13-.744" fill="none" stroke="#55a" stroke-linecap="round" stroke-linejoin="round" stroke-width="2.055"/>
  <path id="path9311" d="M260.752,303.732c4,6.7,7.8,13.465,12.012,20.02,5.386,8.433,10.878,16.8,16.972,24.732,5.173,6.732,11.02,12.862,16.512,19.276" fill="none" stroke="#55a" stroke-linecap="round" stroke-linejoin="round" stroke-width="1.984"/>
  <path id="path9313" d="M300.756,360.248l5.74.744" fill="none" stroke="#55a" stroke-linecap="round" stroke-linejoin="round" stroke-width="1.984"/>
  <path id="path9315" d="M306.248,356.988l-5.492-1.24.5-14.492,5,1.24Z" fill="#55a" stroke="#55a" stroke-linecap="round" stroke-linejoin="round" stroke-width="1.984"/>
  <path id="path9317" d="M302.244,323.256l-.992,13,5,1.24" fill="none" stroke="#55a" stroke-linecap="round" stroke-linejoin="round" stroke-width="1.984"/>
  <path id="path9319" d="M259.689,207.815l-7.476,9.283,8.965,7.583" fill="none" stroke="#55a" stroke-linecap="round" stroke-linejoin="round" stroke-width="1.984"/>
  <path id="path9321" d="M259.972,212.7l-2.728,3.65,3.26,2.764" fill="none" stroke="#55a" stroke-linecap="round" stroke-linejoin="round" stroke-width="1.984"/>
  <path id="path9323" d="M261.992,232.441l-5.74,10.382,10.1,5.953" fill="none" stroke="#55a" stroke-linecap="round" stroke-linejoin="round" stroke-width="1.984"/>
  <path id="path9325" d="M263.126,237.189l-2.055,4.039,3.685,2.161" fill="none" stroke="#55a" stroke-linecap="round" stroke-linejoin="round" stroke-width="1.984"/>
  <path id="path9327" d="M268.512,256.783l-4.854,10.843,10.559,5.1" fill="none" stroke="#55a" stroke-linecap="round" stroke-linejoin="round" stroke-width="1.984"/>
  <path id="path9329" d="M270.035,261.461l-1.7,4.181,3.862,1.843" fill="none" stroke="#55a" stroke-linecap="round" stroke-linejoin="round" stroke-width="1.984"/>
  <path id="path9331" d="M276.7,281.232l-2.906,11.516,11.3,3.189" fill="none" stroke="#55a" stroke-linecap="round" stroke-linejoin="round" stroke-width="1.984"/>
  <path id="path9333" d="M279,285.555l-.957,4.429,4.146,1.134" fill="none" stroke="#55a" stroke-linecap="round" stroke-linejoin="round" stroke-width="1.984"/>
  <path id="path9335" d="M288.673,304.264l-1.559,11.8,11.587,1.843" fill="none" stroke="#55a" stroke-linecap="round" stroke-linejoin="round" stroke-width="1.984"/>
  <path id="path9337" d="M291.472,308.3l-.425,4.5,4.217.673" fill="none" stroke="#55a" stroke-linecap="round" stroke-linejoin="round" stroke-width="1.984"/>
  <path id="path9339" d="M280.984,198.5c3.189,8.752,5.811,17.717,9.531,26.256,2.339,5.386,4.606,10.913,7.972,15.732,2.232,3.189,5.35,5.669,8.008,8.5l-.248-14-4.5.992,2.516-6.236-5.776-.248L302,225.248l-5.244-.5,3.26-4.5L294.236,220l4-5-6.484-.5,3.756-5-5.776-.531,3.508-4.748-5-.744,3.26-5.492-7.016-.248Z" fill="#55a" stroke="#55a" stroke-linecap="round" stroke-linejoin="round" stroke-width="1.984"/>
  <path id="path9341" d="M292,164.232c2.339-2.516,6.2-3.154,9.5-4.181a16.336,16.336,0,0,1,5.492-.992,11.571,11.571,0,0,1,6.024,1.736A4.2,4.2,0,0,1,315,163.559a2.951,2.951,0,0,1-1.24,2.232,5.365,5.365,0,0,1-2.268.744c-1.24.354-2.622.142-3.756.744a5.263,5.263,0,0,0-2.409,2.551,7.351,7.351,0,0,0-.106,4.11,14.557,14.557,0,0,0,1.772,4.287l-.248,14.28c-2.835.319-5.811,1.24-8.752.992-1.736-.142-3.685-.354-5-1.488-2.374-2.126-3.012-5.669-3.756-8.752a27.391,27.391,0,0,1-.5-9.744c.461-3.26,1.028-6.874,3.26-9.283Z" fill="#fff" stroke="#55a" stroke-linecap="round" stroke-linejoin="round" stroke-width="1.984"/>
  <path id="path9343" d="M260.752,207.5c4.5-1.843,8.079-3.366,12.012-5.244,3.366-1.63,6.7-3.437,9.992-5.244,3.118-1.7,6.732-3.579,9.248-5.244" fill="#fff" stroke="#55a" stroke-linecap="round" stroke-linejoin="round" stroke-width="1.984"/>
  <path id="path9345" d="M262.24,149.244c5.421,2.587,10.913,5.067,16.264,7.76,4.287,2.161,8.5,4.5,12.756,6.732" fill="#fff" stroke="#55a" stroke-linecap="round" stroke-linejoin="round" stroke-width="1.984"/>
  <path id="path9347" d="M286.512,161.5a85.5,85.5,0,0,0-2.764,10.984,41.784,41.784,0,0,0,0,11.516c.567,3.366,3.26,9.744,3.26,9.744l-12.756,7.264,5.492-9-5.988-6.024,6.484-7.228-5.988-8.256,5.244-4.252-3.26-9.992Z" fill="#fff" stroke="#55a" stroke-linecap="round" stroke-linejoin="round" stroke-width="1.984"/>
  <path id="path9349" d="M264.012,151.264l7.476,12.224L265,169.76l6.236,8.5-6.484,7.972,5.74,5.776-6.98,13.5" fill="none" stroke="#55a" stroke-linecap="round" stroke-linejoin="round" stroke-width="1.984"/>
  <path id="path9351" d="M262.488,157.748l2.516,4-3.756,3.012" fill="none" stroke="#55a" stroke-linecap="round" stroke-linejoin="round" stroke-width="1.984"/>
  <path id="path9353" d="M260.5,174.756l3.012,3.756-3.26,4.252" fill="none" stroke="#55a" stroke-linecap="round" stroke-linejoin="round" stroke-width="1.984"/>
  <path id="path9355" d="M259.76,189.248l3.224,4.5-3.224,5" fill="none" stroke="#55a" stroke-linecap="round" stroke-linejoin="round" stroke-width="1.984"/>
  <path id="path9357" d="M266.74,213.732l11.268-5.492s3.4,11.445,5.492,17.008c1.772,4.748,3.472,9.6,5.988,14,2.941,5.067,10.524,14,10.524,14V305.5s-9.886-15.7-14-23.988a200.966,200.966,0,0,1-11.02-26.5,186.03,186.03,0,0,1-5.74-23.28C268.122,225.815,266.74,213.732,266.74,213.732Z" fill="#ff5" stroke="#55a" stroke-linecap="round" stroke-linejoin="round" stroke-width="1.984"/>
  <path id="path9359" d="M264.685,56.516s.673,7.3,2.3,10.488A22.647,22.647,0,0,0,274,74.764a21.29,21.29,0,0,0,8.256,3.472,25.179,25.179,0,0,0,7.476,0,42.219,42.219,0,0,0,5-.992s-3.189-1.028-4.217-2.232c-2.232-2.551-2.551-6.272-3.508-9.5s-1.169-6.626-2.268-9.78c-1.1-3.189-2.091-6.626-4.252-9.248a11.1,11.1,0,0,0-4.5-3.224,13.7,13.7,0,0,0-3.3-.531Z" fill="#ff5" stroke="#55a" stroke-linecap="round" stroke-linejoin="round" stroke-width="1.984"/>
  <path id="path9361" d="M269.5,49.465c1.2,3.969,2.232,7.8,4.252,11.268a41.423,41.423,0,0,0,6.484,8.008c1.559,1.63,3.331,3.012,5,4.5" fill="none" stroke="#55a" stroke-linecap="round" stroke-linejoin="round" stroke-width="1.984"/>
  <path id="path9363" d="M278.114,52.618c-1.772.957-5.7.106-7.654-.283-1.346,2.657-2.445,4.713-2.339,7.193" fill="none" stroke="#55a" stroke-linecap="round" stroke-linejoin="round" stroke-width="1.984"/>
  <path id="path9365" d="M279.709,57.154c-1.772.957-5.1.673-7.051.283-1.346,2.657-2.445,5.244-2.339,7.724" fill="none" stroke="#55a" stroke-linecap="round" stroke-linejoin="round" stroke-width="1.984"/>
  <path id="path9367" d="M281.976,63.319c-1.807.957-4.358.248-6.307-.142-1.346,2.657-1.063,5.067-.957,7.547" fill="none" stroke="#55a" stroke-linecap="round" stroke-linejoin="round" stroke-width="1.984"/>
  <path id="path9369" d="M284.563,67.819c-1.772.992-2.906.071-4.854-.319-1.346,2.657-.638,3.685-.531,6.165" fill="none" stroke="#55a" stroke-linecap="round" stroke-linejoin="round" stroke-width="1.984"/>
  <path id="path9371" d="M270,48.366a9.115,9.115,0,0,0,5.315-.354" fill="none" stroke="#55a" stroke-linecap="round" stroke-linejoin="round" stroke-width="1.984"/>
  <path id="path9373" d="M149.917,141.591c-.85.319-1.949.886-2.055,1.807-.106.886.886,1.665,1.63,2.161a6.888,6.888,0,0,0,1.524.425c.531.177,1.24.248,1.594.744s.106,1.24.248,1.843c.425,1.488.6,3.26,1.736,4.287a6.4,6.4,0,0,0,3.862,1.276,16.333,16.333,0,0,0,3.472-.425,14.327,14.327,0,0,1,2.728-.319,2.707,2.707,0,0,1,1.311.39,1.943,1.943,0,0,1,.5,1.134,12.892,12.892,0,0,1,.106,2.622,15.156,15.156,0,0,0,.106,3.366,6.6,6.6,0,0,0,1.913,3.472,6.891,6.891,0,0,0,4,1.169,17.078,17.078,0,0,0,3.472-.638,11.346,11.346,0,0,1,2.657-.5,1.57,1.57,0,0,1,1.134.283c.177.142.177.461.213.673a11.533,11.533,0,0,1-.213,2.2,12.359,12.359,0,0,0-.248,3.012,6.29,6.29,0,0,0,1.382,3.437,7.2,7.2,0,0,0,3.791,1.63,19.913,19.913,0,0,0,3.543-.283c1.453,0,3.224-.744,4.358.177.886.709.567,2.161.78,3.26a16.2,16.2,0,0,0,.5,3.012,6.384,6.384,0,0,0,2.161,2.976,5.047,5.047,0,0,0,2.976.531,10.416,10.416,0,0,0,2.2-.673c.6-.177,1.276-.78,1.878-.531.177.071.213.319.248.5a16.573,16.573,0,0,1,.6,1.878,6.972,6.972,0,0,0,.957,2.374,4.4,4.4,0,0,0,3.083,1.807,4.515,4.515,0,0,0,3.012-1.807,7,7,0,0,0,.815-2.374c.213-.6.319-1.2.531-1.807.071-.106.071-.283.177-.319.142-.106.354-.035.531,0a14.33,14.33,0,0,1,1.7.709,10.29,10.29,0,0,0,2.409.85,4.972,4.972,0,0,0,3.3-.638,5.631,5.631,0,0,0,1.807-3.366,11.555,11.555,0,0,0-.106-3.118,11.282,11.282,0,0,1-.106-2.2c.035-.177,0-.39.142-.5.283-.248.744-.142,1.1-.142a10.884,10.884,0,0,1,2.374.5c1.063.354,2.02,1.2,3.118,1.276.957.035,2.339,0,2.764-.85.461-.85-.283-2.02-.921-2.728-.957-.957-2.48-1.1-3.756-1.488a12.165,12.165,0,0,0-3.331-.709,6.293,6.293,0,0,0-3.614.85,5.78,5.78,0,0,0-1.843,3.366,12.869,12.869,0,0,0,.071,3.083c.035.78.638,1.807.071,2.339-.461.425-1.24-.035-1.843-.177-.815-.213-1.524-.78-2.339-.921a5.86,5.86,0,0,0-3.224.213,6.19,6.19,0,0,0-2.161,2.409c-.39.673-.035,2.161-.815,2.161-.815,0-.425-1.594-.815-2.3a5.123,5.123,0,0,0-2.2-2.445c-1.559-.638-3.366.425-5.067.39-.638,0-1.453.248-1.949-.177-.567-.531-.213-1.524-.425-2.268-.6-2.091-.6-4.713-2.3-6.059-1.949-1.559-4.89-.957-7.37-1.028a23.78,23.78,0,0,1-2.693.248,1.961,1.961,0,0,1-1.276-.5,1.248,1.248,0,0,1-.248-.744,11.96,11.96,0,0,1,.248-2.232,14.939,14.939,0,0,0,.248-3.047,5.818,5.818,0,0,0-1.559-3.4,6.637,6.637,0,0,0-3.933-1.311,14.619,14.619,0,0,0-3.472.638,18.409,18.409,0,0,1-2.728.5,2.067,2.067,0,0,1-1.24-.248,2.008,2.008,0,0,1-.531-1.1,15.359,15.359,0,0,1-.071-2.551,15.544,15.544,0,0,0-.142-3.4,6.5,6.5,0,0,0-1.843-3.508,6.907,6.907,0,0,0-3.827-1.311,14.745,14.745,0,0,0-3.508.354,18.436,18.436,0,0,1-2.764.354c-.461-.035-1.063,0-1.346-.354-.354-.354-.142-.992-.248-1.453-.319-1.453-.354-3.118-1.311-4.287a7.568,7.568,0,0,0-3.331-1.878,12.083,12.083,0,0,0-1.949-.5,1.26,1.26,0,0,0-.354-.071h0Z" fill="#ff5"/>
  <path id="path9375" d="M150.024,153.142a2.153,2.153,0,0,0-1.878,1.382,2.078,2.078,0,0,0,.709,2.232L207,202.642a2.079,2.079,0,0,0,2.374.035l22.748-15.945a2,2,0,1,0-2.268-3.3l-21.579,15.13L151.3,153.6a2.082,2.082,0,0,0-1.276-.461Z" fill="#ff5"/>
  <path id="path9377" d="M207.071,213.732v63.886l9.744-6.8.319-63.319Z"/>
  <path id="path9379" d="M148.5,167.882l21.012,16.866.283,54.425-21.3-14.492Z" fill="#f55"/>
  <path id="path9381" d="M169.8,183.827l.6,56.232" fill="none" stroke="#000" stroke-linecap="round" stroke-linejoin="round" stroke-width="1.984"/>
  <path id="path9383" d="M175.713,188.043,176,245.374" fill="none" stroke="#000" stroke-linecap="round" stroke-linejoin="round" stroke-width="1.984"/>
  <path id="path9385" d="M202.642,210.756l.283,68.35" fill="none" stroke="#000" stroke-linecap="round" stroke-linejoin="round" stroke-width="1.984"/>
  <path id="path9387" d="M240.484,255.437l-36.39,24.236" fill="none" stroke="#55a" stroke-linecap="round" stroke-linejoin="round" stroke-width="1.984"/>
  <path id="path9389" d="M202.606,269.752,176.28,242.894l26.5-25.654L176,189.744" fill="none" stroke="#000" stroke-linecap="round" stroke-linejoin="round" stroke-width="1.984"/>
  <path id="path9391" d="M191.87,201.189l-16.051,16.406,26.787,27.921-15.165,14.173" fill="none" stroke="#000" stroke-linecap="round" stroke-linejoin="round" stroke-width="1.984"/>
  <path id="path9393" d="M189.035,211.429l-4.925,5.28,4.925,5.811,5.1-5.28Z" fill="none" stroke="#000" stroke-linecap="round" stroke-linejoin="round" stroke-width="1.984"/>
  <path id="path9395" d="M188.894,239.1l-4.287,4.713,4.854,4.925,4.323-4.606Z" fill="none" stroke="#000" stroke-linecap="round" stroke-linejoin="round" stroke-width="1.984"/>
  <path id="path9397" d="M176.882,197.681l4.89,5.35-5.138,5.421Z" stroke="#000" stroke-linecap="round" stroke-linejoin="round" stroke-width="1.984"/>
  <path id="path9399" d="M202.075,225.709l-5.244,5.457,5.315,5.173Z" stroke="#000" stroke-linecap="round" stroke-linejoin="round" stroke-width="1.984"/>
  <path id="path9401" d="M176.6,225.673l4.819,5.244-4.925,4.535Z" stroke="#000" stroke-linecap="round" stroke-linejoin="round" stroke-width="1.984"/>
  <path id="path9403" d="M202.217,253.2l-4.606,4.748,4.854,4.748Z" stroke="#000" stroke-linecap="round" stroke-linejoin="round" stroke-width="1.984"/>
  <path id="path9405" d="M132.945,129.508c-7.087,3.543-14.173,7.051-21.224,10.63-5.067,2.551-10.2,5.031-15.2,7.76-7.193,3.933-14.35,7.937-21.224,12.4-6.449,4.181-12.472,8.929-18.744,13.429,4.146,5.528,8.185,11.126,12.4,16.618,3.579,4.642,7.476,9.071,10.949,13.783,3.224,4.358,6.13,8.965,9.177,13.429a61.275,61.275,0,0,1,7.441-2.126,72.6,72.6,0,0,1,15.2-.354,91.756,91.756,0,0,1,12.012,1.772,93.251,93.251,0,0,1,12.756,3.189,81.062,81.062,0,0,1,12.366,5.669,124.718,124.718,0,0,1,13.075,8.469A107.436,107.436,0,0,1,175,244.772c3.862,3.862,6.945,8.433,10.276,12.756,3.614,4.748,6.839,9.815,10.594,14.492a95.069,95.069,0,0,0,8.114,9.177,81.723,81.723,0,0,0,13.11,10.594,76.088,76.088,0,0,0,14.138,6.732,66.691,66.691,0,0,0,14.492,4.252c4.89.709,9.886,0,14.846,0-2.728-5.563-5.634-10.984-8.15-16.618-3.118-7.087-6.059-14.244-8.469-21.579a193.1,193.1,0,0,1-5.669-20.87c-1.488-7.228-2.409-14.563-3.189-21.9-.567-5.528-.886-11.091-1.063-16.618-.177-6.13-.035-12.26,0-18.39.071-5.776.142-11.551.354-17.327.248-6.024.709-12.012,1.063-18.035" fill="none" stroke="#55a" stroke-linecap="round" stroke-linejoin="round" stroke-width="1.984"/>
  <path id="path9407" d="M189.921,355.571l-37.878-30.756.283-62.717,3.862-2.658,6.8,6.8,10.346,13.89,8.575,12.118,3.862,4.146,4.713,3.862Z" fill="#ff5"/>
  <path id="path9409" d="M137.835,246.72,113,264.756l-2.374-4.748,21.3-16.866Z" fill="#ff5"/>
  <path id="path9411" d="M156.189,260.008l-36.106,23.669-2.055-4.713,33.732-22.217Z" fill="#ff5"/>
  <path id="path9413" d="M142.866,331.618l.319-63.035L119.2,284.28l3.862,17.752,2.657,17.15.6,15.98L126,343.736Z" fill="#f55"/>
  <path id="path9415" d="M152.327,256.748l-34.3,22.783s-2.409-6.094-3.543-9.177c-.709-1.843-2.091-5.6-2.091-5.6L137.835,246.4s6.484,2.126,9.177,4.146c2.2,1.63,5.315,6.2,5.315,6.2Z"/>
  <path id="path9417" d="M212,372.26l-59.244-47.268L126,342l.248,14-.744,13.252-.5,10.488,27.248-18.5,35.008,28.772,4.5,2.232,2.48,2.268,4,.5,2.268,3.26,2.976-.78,3.012,3.756h3.012l2.48,2.268Z"/>
  <path id="path9419" d="M221.988,408.508l.248-89.008-5.988-2.232-5-2.764.248,89.256,3.26.5,3.224,3.26,2.02-.78Z"/>
  <path id="path9421" d="M99.992,331.76,79.76,341.752s-3.9-11.055-6.024-16.512S69.7,314.22,67,309.012a62.525,62.525,0,0,0-6.272-10.028,98.207,98.207,0,0,0-7.972-8.22l.248-78.52s9.886,11.976,14,18.5c3.579,5.7,6.307,11.941,9.248,18,3.827,7.937,7.9,15.768,10.984,24.024a157.772,157.772,0,0,1,5,16.972c1.559,5.953,2.906,11.976,4,18,.815,4.394,1.311,8.858,2.02,13.252C98.823,324.6,99.992,331.76,99.992,331.76Z" fill="#f55" stroke="#55a" stroke-linecap="round" stroke-linejoin="round" stroke-width="1.984"/>
  <path id="path9423" d="M96.236,390.508l-27.248-14.74,2.764-10.276L70.76,355.5l-3.012-6.732,8.008-6.024L89.5,336.756l10.24-4.252.992,9.992v12.012l-.744,14L97.76,384.236Z" fill="#ff5"/>
  <path id="path9425" d="M133.512,243.248l-22.748,17.008s-3.968-8.681-6.024-13c-1.63-3.437-5-10.24-5-10.24s11.091-.709,16.512.248c5.988,1.063,17.256,5.988,17.256,5.988Z" fill="#55a"/>
  <path id="path9427" d="M30.012,157.252l16.866,14.634L46.63,451.63l-16.618.106Z"/>
  <path id="path9429" d="M264.012,391.394l-.177-66.827,6.909-2.126s11.2,15.626,16.937,23.35c4.181,5.563,8.681,10.913,12.756,16.618.992,1.382,2.835,4.217,2.835,4.217s-11.091,8.079-16.8,11.87c-4.075,2.657-8.185,5.173-12.4,7.583-3.3,1.878-10.063,5.315-10.063,5.315Z" fill="#55a"/>
  <path id="path9431" d="M247.748,399.508l.354-74.232s5.528.283,8.291.177c2.87-.142,8.5-.886,8.5-.886l-.177,66.827s-6.307,3.4-9.531,4.925c-2.445,1.169-7.441,3.189-7.441,3.189Z"/>
  <path id="path9433" d="M154.772,475.866c7.051-.106,14.138.106,21.189-.354,5.882-.354,11.728-1.028,17.5-1.913,3.827-.6,7.547-1.559,11.339-2.3.567-4.146,1.2-8.256,1.772-12.366.6-4.677,1.1-9.319,1.736-14,.5-3.472.78-6.98,1.594-10.417.5-2.055,1.311-4,1.949-6.024l2.657-.354c.886.886,1.453,2.3,2.657,2.657a6.708,6.708,0,0,0,4.961-.886,14.132,14.132,0,0,0,4.925-5.28,15.742,15.742,0,0,0,2.48-6.555,9.064,9.064,0,0,0-.709-4.429,5.128,5.128,0,0,0-2.126-2.657c-.992-.461-2.232,0-3.366,0a10.914,10.914,0,0,0-1.736-2.445c-1.2-.992-2.835-1.311-4.252-1.949-.78-.886-1.24-2.161-2.3-2.657-.921-.425-2.02,0-3.012,0-.886-.815-1.524-2.02-2.657-2.48-.921-.354-1.984,0-2.976,0-1.028-1.169-1.594-2.906-3.012-3.543-1.028-.425-2.232.142-3.366.177-.886-1.063-1.417-2.587-2.657-3.189-1.028-.461-2.232,0-3.366,0a27.862,27.862,0,0,0-3.331-2.8,16.378,16.378,0,0,0-4.606-1.949,11.106,11.106,0,0,0-10.276,1.949,17.3,17.3,0,0,0-4.217,4.571,31.017,31.017,0,0,0-3.543,7.8c-1.594,4.925-2.091,10.1-3.012,15.2-1.169,6.626-2.02,13.323-3.189,19.984-1.134,6.591-2.409,13.217-3.685,19.772-1.1,5.492-2.268,10.984-3.366,16.441Z" fill="#ff5"/>
  <path id="path9435" d="M228.012,509.988l-20.02-40s-10.169,2.693-15.378,3.543a197.86,197.86,0,0,1-24.626,2.48,256.541,256.541,0,0,1-29.976-.992C126.248,473.953,103,469.984,103,469.984l-23,40Z" fill="#f55" stroke="#55a" stroke-linecap="round" stroke-linejoin="round" stroke-width="1.984"/>
  <path id="path9437" d="M213.165,508.535,198,478.984c-6.484,2.268-11.409,2.339-19.7,3.26l3.9,26.291h5.74l-5.1-22.748c4.748-.319,8.5-.283,12.614-1.913l11.126,24.661Z" fill="#55a" stroke="#55a" stroke-linecap="round" stroke-linejoin="round" stroke-width="1.984"/>
  <path id="path9439" d="M173.3,508.535l-3.047-25.3c-10.063.921-18.142,1.488-28.2.461l-5.492,24.839h6.449l3.047-19.807c7.9.461,12.579-.035,19.2-.5l2.232,20.3Z" fill="#55a" stroke="#55a" stroke-linecap="round" stroke-linejoin="round" stroke-width="1.984"/>
  <path id="path9441" d="M126.744,508.535l7.335-25.051c-7.37-.638-18.071-1.559-26.079-3.472L94.287,508.535h6.343l10.382-23.528c4.465,1.2,12.012,1.736,16.476,2.374l-6.236,21.154Z" fill="#55a" stroke="#55a" stroke-linecap="round" stroke-linejoin="round" stroke-width="1.984"/>
  <path id="path9443" d="M154.984,475.016s3.472-16.654,5.031-25.016c1.807-9.957,2.906-20.091,5-30.012,1.382-6.732,1.594-14,5-19.984,2.3-4.11,5.421-8.787,9.992-9.992,4.429-1.169,10.2.177,13.252,3.579,2.551,2.87,3.083,7.8,1.736,11.409-1.417,3.933-5.28,8.327-9.461,8.185-4.358-.142-9.177-4.89-9.248-9.213-.035-3.9,4.181-8.256,8.079-8.5A5.867,5.867,0,0,1,189.992,400c.39,2.8-2.161,6.839-5,6.8-1.7,0-4-1.984-2.941-4.146" fill="none" stroke="#55a" stroke-linecap="round" stroke-linejoin="round" stroke-width="1.984"/>
  <path id="path9445" d="M160.831,475.831c2.941-8.965,3.685-18.071,5.244-27.177,1.594-9.035,2.02-18.248,4.146-27.177,1.7-7.087,3.614-14.634,6.8-20.764" fill="none" stroke="#55a" stroke-linecap="round" stroke-linejoin="round" stroke-width="1.984"/>
  <path id="path9447" d="M167.528,475.831c2.232-7.8,2.906-16.051,4.146-24.094,1.2-7.866,1.63-15.874,3.154-23.669,1.1-5.669,1.913-11.339,4.323-16.689" fill="none" stroke="#55a" stroke-linecap="round" stroke-linejoin="round" stroke-width="1.984"/>
  <path id="path9449" d="M173.48,475.441c1.984-7.441,2.587-15.342,3.685-23.031,1.063-7.512,1.453-15.2,2.8-22.642.992-5.386,1.7-10.843,3.862-15.945" fill="none" stroke="#55a" stroke-linecap="round" stroke-linejoin="round" stroke-width="1.984"/>
  <path id="path9451" d="M179.291,474.8c1.807-7.087,2.339-14.563,3.331-21.9.957-7.122,1.311-14.386,2.516-21.472.886-5.138,1.524-10.311,3.472-15.13" fill="none" stroke="#55a" stroke-linecap="round" stroke-linejoin="round" stroke-width="1.984"/>
  <path id="path9453" d="M185,474.272c1.772-6.732,2.339-13.854,3.3-20.8.992-6.8,1.311-13.713,2.551-20.445.886-4.89,1.524-9.78,3.472-14.386" fill="none" stroke="#55a" stroke-linecap="round" stroke-linejoin="round" stroke-width="1.984"/>
  <path id="path9455" d="M191.374,473.386c1.736-6.307,2.126-12.579,3.047-18.85.921-6.343,1.276-12.756,2.48-19.028.85-4.535,1.453-9.106,3.366-13.394" fill="none" stroke="#55a" stroke-linecap="round" stroke-linejoin="round" stroke-width="1.984"/>
  <path id="path9457" d="M197.539,472.465c1.665-5.74,2.161-11.8,3.047-17.717.886-5.776,1.2-11.657,2.3-17.4.815-4.146,1.417-8.327,3.189-12.26" fill="none" stroke="#55a" stroke-linecap="round" stroke-linejoin="round" stroke-width="1.984"/>
  <path id="path9459" d="M204.52,470.516c1.417-5.138,1.843-10.2,2.587-15.343.78-5.173,1.028-10.453,1.984-15.591.673-3.72,1.169-7.476,2.693-10.984" fill="none" stroke="#55a" stroke-linecap="round" stroke-linejoin="round" stroke-width="1.984"/>
  <path id="path9461" d="M184.571,412.8c1.63,1.134,3.083,3.083,5.031,3.154,3.224.106,6.413-2.055,8.5-4.465a13.854,13.854,0,0,0,3.331-9.673,9.16,9.16,0,0,0-3.3-6.555c-.957-.709-2.02-.531-3.579-.673" fill="none" stroke="#55a" stroke-linecap="round" stroke-linejoin="round" stroke-width="1.984"/>
  <path id="path9463" d="M191.055,416.02c1.346,1.488,2.374,2.657,3.969,2.764,3.224.177,6.413-2.055,8.5-4.5a13.71,13.71,0,0,0,3.331-9.638c-.142-2.445-1.2-5.28-3.3-6.555-.992-.6-1.878-.709-3.472.071" fill="none" stroke="#55a" stroke-linecap="round" stroke-linejoin="round" stroke-width="1.984"/>
  <path id="path9465" d="M195.945,419c1.63,1.1,3.083,3.083,5.031,3.154,3.224.106,6.413-2.055,8.5-4.5a13.71,13.71,0,0,0,3.331-9.638c-.142-2.445-1.2-5.244-3.3-6.555-.886-.567-1.63-.6-3.189-.071" fill="none" stroke="#55a" stroke-linecap="round" stroke-linejoin="round" stroke-width="1.984"/>
  <path id="path9467" d="M202.677,422.362c1.24,1.772,2.48,2.658,4.146,2.764,3.189.142,6.413-2.055,8.5-4.5a14.044,14.044,0,0,0,3.331-9.638,9.031,9.031,0,0,0-3.3-6.555c-.921-.638-1.63-.85-3.366-.461" fill="none" stroke="#55a" stroke-linecap="round" stroke-linejoin="round" stroke-width="1.984"/>
  <path id="path9469" d="M208.382,425.728a4.523,4.523,0,0,0,3.756,2.622c3.189.213,6.413-2.055,8.469-4.465a14.053,14.053,0,0,0,3.366-9.673,8.869,8.869,0,0,0-3.331-6.52c-.744-.567-1.169-.248-2.728-.39" fill="none" stroke="#55a" stroke-linecap="round" stroke-linejoin="round" stroke-width="1.984"/>
  <path id="path9471" d="M214.335,428.315a3.3,3.3,0,0,0,3.083,2.48c3.189.319,6.413-2.02,8.5-4.465a14.46,14.46,0,0,0,3.331-9.638,6.9,6.9,0,0,0-1.984-5c-1.063-.957-2.551-.992-4.11-1.1" fill="none" stroke="#55a" stroke-linecap="round" stroke-linejoin="round" stroke-width="1.984"/>
  <path id="path9473" d="M103.217,469.524c.85-10.169,1.453-20.3,2.516-30.437.567-5.528,1.063-11.091,2.02-16.583,1.311-7.264,1.63-14.988,5-21.543a31.107,31.107,0,0,1,8.858-9.992,29.586,29.586,0,0,1,10.913-5.457,29.068,29.068,0,0,1,12.72-.248c4.146.886,7.831,3.224,11.551,5.244,4.677,2.516,8.929,5.74,13.394,8.61" fill="none" stroke="#55a" stroke-linecap="round" stroke-linejoin="round" stroke-width="1.984"/>
  <path id="path9475" d="M157.039,456.13c-3.933,1.134-7.76,2.764-11.8,3.4-2.622.39-5.421.921-7.972.213-1.276-.354-3.579-1.382-3.4-2.161.106-.39.744-.319,1.134-.319,1.488-.035,2.835.921,4.323,1.134a29.281,29.281,0,0,0,6.591,0c3.756-.39,7.406-1.524,11.126-2.268Z" fill="none" stroke="#55a" stroke-linecap="round" stroke-linejoin="round" stroke-width="1.984"/>
  <path id="path9477" d="M135,447.839c-.461.5-1.736.921-1.346,1.453.461.744,3.3,2.551,5.209,3.3a16.661,16.661,0,0,0,5.776,1.028,21.494,21.494,0,0,0,6.165-.78,32.673,32.673,0,0,0,4.039-1.665" fill="none" stroke="#55a" stroke-linecap="round" stroke-linejoin="round" stroke-width="1.984"/>
  <path id="path9479" d="M159.2,446.563c-3.331.85-6.591,2.126-9.992,2.516a23.767,23.767,0,0,1-7.264-.106,15.826,15.826,0,0,1-5.492-2.2,13.47,13.47,0,0,1-2.693-2.8,31.58,31.58,0,0,1,4.89-2.161,23.163,23.163,0,0,1,8.4-.673,22.1,22.1,0,0,1,6.8,2.161A55.288,55.288,0,0,1,159.2,446.563Z" fill="none" stroke="#55a" stroke-linecap="round" stroke-linejoin="round" stroke-width="1.984"/>
  <path id="path9481" d="M150.8,448.051c-.106-1.169.319-2.48-.248-3.508a6,6,0,0,0-3.4-2.516,5.5,5.5,0,0,0-3.3,0,4.985,4.985,0,0,0-2.374,2.055c-.744,1.24-.6,2.8-.921,4.217" fill="none" stroke="#55a" stroke-linecap="round" stroke-linejoin="round" stroke-width="1.984"/>
  <path id="path9483" d="M147.012,447.236a1.294,1.294,0,0,0-.071-1.417A1.671,1.671,0,0,0,145.63,445a1.5,1.5,0,0,0-1.311.744c-.319.461-.5,1.24-.106,1.63a2.289,2.289,0,0,0,2.8-.142Z" fill="#55a" stroke="#55a" stroke-linecap="round" stroke-linejoin="round" stroke-width="1.984"/>
  <path id="path9485" d="M151.122,436.146a52.183,52.183,0,0,0-8.4,2.02c-2.374.921-4.642,2.693-6.7,3.65" fill="#55a" stroke="#55a" stroke-linecap="round" stroke-linejoin="round" stroke-width="1.984"/>
  <path id="path9487" d="M122.846,453.508a26.6,26.6,0,0,0,1.843-4.429c.567-3.189.142-6.52-.248-9.78-.461-3.969-1.913-7.831-2.587-11.8-.425-2.268-1.453-4.642-.921-6.909a5.96,5.96,0,0,1,1.913-2.835,19.8,19.8,0,0,1,3.65-2.161" fill="none" stroke="#55a" stroke-linecap="round" stroke-linejoin="round" stroke-width="1.984"/>
  <path id="path9489" d="M136.134,428.74c1.559-1.7,3.827-2.941,4.677-5.1a4.416,4.416,0,0,0,0-3.3,4.624,4.624,0,0,0-2.976-2.48,4.758,4.758,0,0,0-3.047.78c-1.2.638-1.878,2.055-3.083,2.622a3.723,3.723,0,0,1-2.835.567c-.283-.106-.638-.5-.567-.78.319-1.028,1.984-.78,2.941-1.134,1.311-.5,2.587-.921,3.862-1.382" fill="none" stroke="#55a" stroke-linecap="round" stroke-linejoin="round" stroke-width="1.984"/>
  <path id="path9491" d="M143.681,407.551c-1.594.815-3.862.638-5.776.6-1.984-.035-3.9-.957-5.846-.886-2.232.106-4.287,1.594-6.555,1.594a17.559,17.559,0,0,1-4.783-1.063,3.2,3.2,0,0,0,0-1.736c1.63.6,3.969,1.488,5.988,1.24,1.913-.248,3.3-2.445,5.244-2.48,2.232-.071,3.969,2.48,6.236,2.587,2.161.071,4.429-1.63,6.13-2.02a4.016,4.016,0,0,0-.638,2.161Z" fill="#55a" stroke="#55a" stroke-linecap="round" stroke-linejoin="round" stroke-width="1.984"/>
  <path id="path9493" d="M139.748,400.606c-1.594-.673-3.083-1.7-4.783-2.02a10.125,10.125,0,0,0-3.862.035,12.65,12.65,0,0,0-2.445.886c-.744.319-1.453.709-2.2,1.028" fill="none" stroke="#55a" stroke-linecap="round" stroke-linejoin="round" stroke-width="1.984"/>
  <path id="path9495" d="M128.232,395.61a8.892,8.892,0,0,0,3.437.921,6.851,6.851,0,0,0,2.835-.815" fill="none" stroke="#55a" stroke-linecap="round" stroke-linejoin="round" stroke-width="1.984"/>
  <path id="path9497" d="M121.713,456.449c-1.559,1.843-5,2.3-7.689,2.516a16.592,16.592,0,0,1-5.846-.957,27.659,27.659,0,0,1-3.933-1.736,42.069,42.069,0,0,0,6.626,1.276,24.932,24.932,0,0,0,5.811-.78,16.228,16.228,0,0,0,3.791-1.594c.5-.283,1.63.815,1.24,1.276Z" fill="#55a" stroke="#55a" stroke-linecap="round" stroke-linejoin="round" stroke-width="1.984"/>
  <path id="path9499" d="M122.28,449.646a24.437,24.437,0,0,1-4.642,2.268,16.323,16.323,0,0,1-7.264.567c-1.594-.283-2.941-1.346-4.429-1.984" fill="none" stroke="#55a" stroke-linecap="round" stroke-linejoin="round" stroke-width="1.984"/>
  <path id="path9501" d="M123.307,446.35a24.951,24.951,0,0,1-5.7,1.453,27.042,27.042,0,0,1-6.768.071,10.515,10.515,0,0,1-3.862-1.1,10.712,10.712,0,0,1-1.772-1.807l.354-2.728a21.382,21.382,0,0,1,3.579-1.24,20.754,20.754,0,0,1,5.138-.213,17.773,17.773,0,0,1,5.457.886,13.848,13.848,0,0,1,3.579,2.339,13.131,13.131,0,0,1,.957,1.028c-.319.425-.461,1.1-.957,1.311Z" fill="none" stroke="#55a" stroke-linecap="round" stroke-linejoin="round" stroke-width="1.984"/>
  <path id="path9503" d="M118.913,447.094c-.071-1.169.319-2.48-.248-3.508a5.85,5.85,0,0,0-3.4-2.516,5,5,0,0,0-3.3,0,4.781,4.781,0,0,0-2.374,2.055c-.744,1.2-.6,2.8-.921,4.181" fill="none" stroke="#55a" stroke-linecap="round" stroke-linejoin="round" stroke-width="1.984"/>
  <path id="path9505" d="M115.441,446.244a1.3,1.3,0,0,0-.071-1.417,1.875,1.875,0,0,0-1.311-.815,1.581,1.581,0,0,0-1.311.744c-.319.461-.5,1.276-.106,1.665a2.3,2.3,0,0,0,2.8-.177Z" fill="#55a" stroke="#55a" stroke-linecap="round" stroke-linejoin="round" stroke-width="1.984"/>
  <path id="path9507" d="M122.492,440.929a35.414,35.414,0,0,0-3.791-4.181,26.991,26.991,0,0,0-4-2.126" fill="none" stroke="#55a" stroke-linecap="round" stroke-linejoin="round" stroke-width="1.984"/>
  <path id="path9509" d="M106.441,431.4a23.713,23.713,0,0,0-2.622-7.016,17.125,17.125,0,0,0-4.783-5.634,9.091,9.091,0,0,0-5.563-1.736,6.823,6.823,0,0,0-4.748,2.409,7.967,7.967,0,0,0-1.169,5.28,7.808,7.808,0,0,0,1.665,4.642,5.961,5.961,0,0,0,3.862,2.055,3.747,3.747,0,0,0,2.941-.78,3.135,3.135,0,0,0,.78-2.232c-.035-.85.071-1.736-.992-2.339.78.319,1.311,1.311,1.878,2.055A19.653,19.653,0,0,1,99.6,431.61a30.059,30.059,0,0,1,1.488,4.358c.532,2.02.921,4.11,1.346,6.13.709,3.224,1.524,7.087,2.055,9.638C105.059,446.209,105.839,436.961,106.441,431.4Z" fill="#ff5" stroke="#55a" stroke-linecap="round" stroke-linejoin="round" stroke-width="1.984"/>
  <path id="path9511" d="M109.169,411.413a49.2,49.2,0,0,0-4.854-12.366,18.839,18.839,0,0,0-4.783-5.634c-1.594-1.169-3.472-2.48-5.457-2.339a7.037,7.037,0,0,0-4.854,3.012,8.4,8.4,0,0,0-1.169,5.244,7.828,7.828,0,0,0,1.665,4.677,6.288,6.288,0,0,0,3.9,2.055,3.844,3.844,0,0,0,2.906-.78,2.987,2.987,0,0,0,.78-2.232c-.071-.815-.035-1.559-1.063-2.161a5.66,5.66,0,0,1,1.949,1.843,18.845,18.845,0,0,1,1.949,3.508c.6,1.417.992,2.941,1.453,4.394.532,1.736,1.028,3.508,1.559,5.244,1.169,4.11,2.976,9.709,3.508,12.26.567-5.528,1.949-11.161,2.516-16.724Z" fill="#ff5" stroke="#55a" stroke-linecap="round" stroke-linejoin="round" stroke-width="1.984"/>
  <path id="path9513" d="M111.4,403.583s-.921-2.87-1.559-4.217c-.744-1.524-2.622-4.358-2.622-4.358s-3.224-1.453-4.89-2.055c-1.559-.567-4.748-1.453-4.748-1.453a42.236,42.236,0,0,1,5.138,4.677,25.666,25.666,0,0,1,3.047,5.244,57.6,57.6,0,0,1,2.02,5.563c.567,1.665,1.559,5.067,1.559,5.067s.567-3.331.992-5c.283-1.169,1.063-3.472,1.063-3.472Z" fill="#ff5" stroke="#55a" stroke-linecap="round" stroke-linejoin="round" stroke-width="1.984"/>
  <path id="path9515" d="M107.22,395.008l6.8,3.9-2.622,4.748Z" fill="#ff5" stroke="#55a" stroke-linecap="round" stroke-linejoin="round" stroke-width="1.984"/>
  <path id="path9517" d="M177.591,390.791,152.681,370.1l-28.063,18.461.673-8.965,27.035-18.6,35.114,28.984a13.256,13.256,0,0,0-9.85.815Z" fill="#ff5" stroke="#55a" stroke-linecap="round" stroke-linejoin="round" stroke-width="1.984"/>
  <path id="path9519" d="M247.748,381.472l-9.354-10.594,9.177-9.709" fill="none" stroke="#55a" stroke-linecap="round" stroke-linejoin="round" stroke-width="1.984"/>
  <path id="path9521" d="M247.394,375.059l-3.366-3.9,3.366-3.508" fill="none" stroke="#55a" stroke-linecap="round" stroke-linejoin="round" stroke-width="1.984"/>
  <path id="path9523" d="M234.5,393.484l9.354-9.709-9-9.886-9.106,9.886Zm.177-4.181-5.35-5,5.35-5.882,5.173,5.173Z" fill="#55a" stroke="#55a" stroke-linecap="round" stroke-linejoin="round" stroke-width="1.984"/>
  <path id="path9525" d="M30.012,487.984l37.984-36H30.012Z" fill="#ff5" stroke="#55a" stroke-linecap="round" stroke-linejoin="round" stroke-width="1.984"/>
  <path id="path9527" d="M30.012,480.012l23-22h-23Z" fill="#f55" stroke="#55a" stroke-linecap="round" stroke-linejoin="round" stroke-width="1.984"/>
  <path id="path9529" d="M248.315,355.89l-9.354-10.63,9.177-9.709" fill="none" stroke="#55a" stroke-linecap="round" stroke-linejoin="round" stroke-width="1.984"/>
  <path id="path9531" d="M247.961,349.441l-3.366-3.862,3.366-3.543" fill="none" stroke="#55a" stroke-linecap="round" stroke-linejoin="round" stroke-width="1.984"/>
  <path id="path9533" d="M222.839,380.374l9.177-9.85-9.177-9.709" fill="none" stroke="#55a" stroke-linecap="round" stroke-linejoin="round" stroke-width="1.984"/>
  <path id="path9535" d="M223.016,374.7l3.366-3.9-3.366-3.508" fill="none" stroke="#55a" stroke-linecap="round" stroke-linejoin="round" stroke-width="1.984"/>
  <path id="path9537" d="M223.547,336.331l8.61,9.283-9.177,9.709" fill="none" stroke="#55a" stroke-linecap="round" stroke-linejoin="round" stroke-width="1.984"/>
  <path id="path9539" d="M223.157,341.433l3.331,3.862-3.331,3.543" fill="none" stroke="#55a" stroke-linecap="round" stroke-linejoin="round" stroke-width="1.984"/>
  <path id="path9541" d="M235.488,367.724l9.354-9.709-9-9.886-9.5,10.063Zm.177-4.181-5.35-5,5.35-5.882,5.173,5.173Z" fill="#55a" stroke="#55a" stroke-linecap="round" stroke-linejoin="round" stroke-width="1.984"/>
  <path id="path9543" d="M235.1,342.354l9.319-9.709-9-9.567-9.673,9.354Zm.142-4.181-5.35-5,5.35-5.882,5.209,5.138Z" fill="#55a" stroke="#55a" stroke-linecap="round" stroke-linejoin="round" stroke-width="1.984"/>
  <path id="path9545" d="M222.626,387.709l8.4,9.071-7.831,8.4" fill="none" stroke="#55a" stroke-linecap="round" stroke-linejoin="round" stroke-width="1.984"/>
  <path id="path9547" d="M222.768,392.988l3.366,3.508-2.764,3.331" fill="none" stroke="#55a" stroke-linecap="round" stroke-linejoin="round" stroke-width="1.984"/>
  <path id="path9549" d="M247.358,385.8,237.4,396.213l5.74,6.059" fill="none" stroke="#55a" stroke-linecap="round" stroke-linejoin="round" stroke-width="1.984"/>
  <path id="path9551" d="M247,392.209l-3.366,3.9L247,399.65" fill="none" stroke="#55a" stroke-linecap="round" stroke-linejoin="round" stroke-width="1.984"/>
  <path id="path9553" d="M248.244,329.7l-3.862-4.606" fill="#f55" stroke="#55a" stroke-linecap="round" stroke-linejoin="round" stroke-width="1.984"/>
  <path id="path9555" d="M222.52,329.917l7.087-7.3" fill="#f55" stroke="#55a" stroke-linecap="round" stroke-linejoin="round" stroke-width="1.984"/>
  <path id="path9557" d="M247.854,399.224l.673-74.126" fill="#f55" stroke="#55a" stroke-linecap="round" stroke-linejoin="round" stroke-width="1.984"/>
  <path id="path9559" d="M222.307,408.26l.213-88.9" fill="#f55" stroke="#55a" stroke-linecap="round" stroke-linejoin="round" stroke-width="1.984"/>
  <path id="path9561" d="M238.819,403.831l-4.394-4.394-8.469,8.433,1.346,2.3Z" fill="#55a" stroke="#55a" stroke-linecap="round" stroke-linejoin="round" stroke-width="1.984"/>
  <path id="path9563" d="M53.008,451.984V381.012l-6.024-2.02v72.992Z" fill="#ff5" stroke="#55a" stroke-linecap="round" stroke-linejoin="round" stroke-width="1.984"/>
  <path id="path9565" d="M46.984,171.992V374h6.024V170.008l-23-20.02V157Z" fill="#ff5" stroke="#55a" stroke-linecap="round" stroke-linejoin="round" stroke-width="1.984"/>
  <path id="path9567" d="M38.516,450a2.5,2.5,0,0,0,0-5,2.5,2.5,0,1,0,0,5Z" fill="#ff5"/>
  <path id="path9569" d="M38.516,436a2.5,2.5,0,0,0,0-5,2.5,2.5,0,1,0,0,5Z" fill="#ff5"/>
  <path id="path9571" d="M35.5,442.984a2.79,2.79,0,0,0,2.48-2.48,2.826,2.826,0,0,0-2.48-2.516,2.862,2.862,0,0,0-2.516,2.516A2.826,2.826,0,0,0,35.5,442.984Z" fill="#ff5"/>
  <path id="path9573" d="M41.492,442.984a2.826,2.826,0,0,0,2.516-2.48,2.862,2.862,0,0,0-2.516-2.516,2.826,2.826,0,0,0-2.48,2.516A2.79,2.79,0,0,0,41.492,442.984Z" fill="#ff5"/>
  <path id="path9575" d="M38.339,401.244a2.5,2.5,0,1,0,0-5,2.5,2.5,0,0,0,0,5Z" fill="#ff5"/>
  <path id="path9577" d="M38.339,387.248a2.828,2.828,0,0,0,2.516-2.516,2.793,2.793,0,0,0-2.516-2.48,2.79,2.79,0,0,0-2.48,2.48A2.826,2.826,0,0,0,38.339,387.248Z" fill="#ff5"/>
  <path id="path9579" d="M35.362,394.228a2.5,2.5,0,0,0,0-5,2.5,2.5,0,1,0,0,5Z" fill="#ff5"/>
  <path id="path9581" d="M41.35,394.228a2.5,2.5,0,1,0,0-5,2.5,2.5,0,1,0,0,5Z" fill="#ff5"/>
  <path id="path9583" d="M38.551,352.453a2.5,2.5,0,0,0,0-5,2.5,2.5,0,1,0,0,5Z" fill="#ff5"/>
  <path id="path9585" d="M38.551,338.457a2.5,2.5,0,0,0,0-5,2.5,2.5,0,1,0,0,5Z" fill="#ff5"/>
  <path id="path9587" d="M35.539,345.472a2.862,2.862,0,0,0,2.516-2.516,2.826,2.826,0,0,0-2.516-2.48,2.79,2.79,0,0,0-2.48,2.48A2.826,2.826,0,0,0,35.539,345.472Z" fill="#ff5"/>
  <path id="path9589" d="M41.528,345.472a2.828,2.828,0,0,0,2.516-2.516,2.793,2.793,0,0,0-2.516-2.48,2.79,2.79,0,0,0-2.48,2.48A2.826,2.826,0,0,0,41.528,345.472Z" fill="#ff5"/>
  <path id="path9591" d="M38.728,302.917a2.5,2.5,0,1,0,0-5,2.5,2.5,0,0,0,0,5Z" fill="#ff5"/>
  <path id="path9593" d="M38.728,288.921a2.5,2.5,0,1,0,0-5,2.5,2.5,0,0,0,0,5Z" fill="#ff5"/>
  <path id="path9595" d="M35.752,295.937a2.516,2.516,0,0,0,0-5.031,2.516,2.516,0,0,0,0,5.031Z" fill="#ff5"/>
  <path id="path9597" d="M41.74,295.937a2.516,2.516,0,0,0,0-5.031,2.516,2.516,0,0,0,0,5.031Z" fill="#ff5"/>
  <path id="path9599" d="M38.728,254.516a2.826,2.826,0,0,0,2.516-2.48,2.862,2.862,0,0,0-2.516-2.516,2.826,2.826,0,0,0-2.48,2.516A2.79,2.79,0,0,0,38.728,254.516Z" fill="#ff5"/>
  <path id="path9601" d="M38.728,240.52a2.5,2.5,0,1,0,0-5,2.5,2.5,0,0,0,0,5Z" fill="#ff5"/>
  <path id="path9603" d="M35.752,247.535a2.5,2.5,0,0,0,0-5,2.5,2.5,0,1,0,0,5Z" fill="#ff5"/>
  <path id="path9605" d="M41.74,247.535a2.5,2.5,0,0,0,0-5,2.5,2.5,0,1,0,0,5Z" fill="#ff5"/>
  <path id="path9607" d="M39.3,205.937a2.5,2.5,0,1,0,0-5,2.5,2.5,0,0,0,0,5Z" fill="#ff5"/>
  <path id="path9609" d="M39.3,191.941a2.5,2.5,0,1,0,0-5,2.5,2.5,0,0,0,0,5Z" fill="#ff5"/>
  <path id="path9611" d="M36.319,198.957a2.826,2.826,0,0,0,2.48-2.516,2.79,2.79,0,0,0-2.48-2.48,2.826,2.826,0,0,0-2.516,2.48A2.862,2.862,0,0,0,36.319,198.957Z" fill="#ff5"/>
  <path id="path9613" d="M42.307,198.957a2.862,2.862,0,0,0,2.516-2.516,2.826,2.826,0,0,0-2.516-2.48,2.79,2.79,0,0,0-2.48,2.48A2.826,2.826,0,0,0,42.307,198.957Z" fill="#ff5"/>
  <path id="path9615" d="M45,413.008v5L32,430.016v-5.031Z" fill="#ff5"/>
  <path id="path9617" d="M45,405v5L32,422.008v-5Z" fill="#ff5"/>
  <path id="path9619" d="M45,363.012v5L32,379.984v-5Z" fill="#ff5"/>
  <path id="path9621" d="M45,355v5L32,372.012v-5Z" fill="#ff5"/>
  <path id="path9623" d="M45,313.016v5L32,329.988v-5Z" fill="#ff5"/>
  <path id="path9625" d="M45,305.008v5L32,322.016v-5.031Z" fill="#ff5"/>
  <path id="path9627" d="M45,265v5L32,282.012v-5Z" fill="#ff5"/>
  <path id="path9629" d="M45,257v5L32,274v-5Z" fill="#ff5"/>
  <path id="path9631" d="M45,217.984v5.031L32,234.992v-5Z" fill="#ff5"/>
  <path id="path9633" d="M45,210.012v5L32,226.984v-5Z" fill="#ff5"/>
  <path id="path9635" d="M44.858,171.744l.142,1.24L32,185v-5l9.992-9.886Z" fill="#ff5"/>
  <path id="path9637" d="M38.232,166.5l2.409,1.984L32,176.988v-5Z" fill="#ff5"/>
  <path id="path9639" d="M112.5,369.035l9.354-9.744-9-9.886-9.673,9.709Zm.177-4.217-5.35-5,5.35-5.846,5.173,5.138Z" fill="#55a" stroke="#55a" stroke-linecap="round" stroke-linejoin="round" stroke-width="1.984"/>
  <path id="path9641" d="M108.78,396.531l10.524-8.469-7.689-10.949-10.807,8.4Zm.673-4.146-4.642-5.634,6.059-5.138,4.465,5.776Z" fill="#55a" stroke="#55a" stroke-linecap="round" stroke-linejoin="round" stroke-width="1.984"/>
  <path id="path9643" d="M112.854,343.169l8.256-9.921-10.028-8.22-8.362,9.921Zm-.283-3.9-5.846-4.075,4.677-5.953,5.7,4.252Z" fill="#55a" stroke="#55a" stroke-linecap="round" stroke-linejoin="round" stroke-width="1.984"/>
  <path id="path9645" d="M110.409,319.783,118.24,308.8l-10.346-8.5-8.185,11.02Zm-.461-4.181-6.024-4.146,4.429-6.591,5.882,4.323Z" fill="#55a" stroke="#55a" stroke-linecap="round" stroke-linejoin="round" stroke-width="1.984"/>
  <path id="path9647" d="M106.228,293.988l6.024-12.047-11.516-6.8-6.378,12.154Zm-1.1-4.039-6.591-3.189,3.366-7.193,6.484,3.366Z" fill="#55a" stroke="#55a" stroke-linecap="round" stroke-linejoin="round" stroke-width="1.984"/>
  <path id="path9649" d="M98.965,268.583,103.854,256l-12.118-5.669L86.528,263.02Zm-1.488-3.933L90.638,262.1l2.657-7.476,6.768,2.728Z" fill="#55a" stroke="#55a" stroke-linecap="round" stroke-linejoin="round" stroke-width="1.984"/>
  <path id="path9651" d="M88.228,242.929l2.409-13.252-12.969-3.3-2.693,13.429Zm-2.2-3.579-7.228-1.2,1.24-7.831,7.157,1.417Z" fill="#55a" stroke="#55a" stroke-linecap="round" stroke-linejoin="round" stroke-width="1.984"/>
  <path id="path9653" d="M74.764,219.224,76.039,205.8l-13.217-2.161L61.3,217.276Zm-2.48-3.4-7.3-.567.531-7.937,7.264.815Z" fill="#55a" stroke="#55a" stroke-linecap="round" stroke-linejoin="round" stroke-width="1.984"/>
  <path id="path9655" d="M98.752,381.224l10.2-8.185-8.079-9.992" fill="none" stroke="#55a" stroke-linecap="round" stroke-linejoin="round" stroke-width="1.984"/>
  <path id="path9657" d="M99.531,376.016l3.756-3.3-2.941-3.614" fill="none" stroke="#55a" stroke-linecap="round" stroke-linejoin="round" stroke-width="1.984"/>
  <path id="path9659" d="M97.512,390.508s1.453-12.331,1.984-18.5c.744-8.575,1.843-17.15,1.736-25.76a191.551,191.551,0,0,0-1.984-22.5c-1.028-7.972-2.2-15.909-4-23.74a225.375,225.375,0,0,0-7.512-25.76A204.734,204.734,0,0,0,78.236,252a242.055,242.055,0,0,0-12.72-22.748C61.972,223.654,54,212.988,54,212.988" fill="none" stroke="#55a" stroke-linecap="round" stroke-linejoin="round" stroke-width="1.984"/>
  <path id="path9661" d="M124.972,363.862,114.343,375.2l9.5,11.409" fill="none" stroke="#55a" stroke-linecap="round" stroke-linejoin="round" stroke-width="1.984"/>
  <path id="path9663" d="M124.547,370.382l-4.535,4.748,4.181,5.173" fill="none" stroke="#55a" stroke-linecap="round" stroke-linejoin="round" stroke-width="1.984"/>
  <path id="path9665" d="M101.48,355.429l8.539-8.22-7.9-8.681" fill="none" stroke="#55a" stroke-linecap="round" stroke-linejoin="round" stroke-width="1.984"/>
  <path id="path9667" d="M101.8,350.575l3.154-3.26-2.906-3.154" fill="none" stroke="#55a" stroke-linecap="round" stroke-linejoin="round" stroke-width="1.984"/>
  <path id="path9669" d="M125.929,333.957l-10.24,11.693,9.85,11.091" fill="none" stroke="#55a" stroke-linecap="round" stroke-linejoin="round" stroke-width="1.984"/>
  <path id="path9671" d="M125.717,340.476l-4.358,4.925,4.358,5" fill="none" stroke="#55a" stroke-linecap="round" stroke-linejoin="round" stroke-width="1.984"/>
  <path id="path9673" d="M123.165,308.657,114.2,321.342l10.913,10.028" fill="none" stroke="#55a" stroke-linecap="round" stroke-linejoin="round" stroke-width="1.984"/>
  <path id="path9675" d="M123.626,315.177l-3.827,5.315,4.854,4.571" fill="none" stroke="#55a" stroke-linecap="round" stroke-linejoin="round" stroke-width="1.984"/>
  <path id="path9677" d="M118.417,283.323l-7.441,13.642,12.047,8.681" fill="none" stroke="#55a" stroke-linecap="round" stroke-linejoin="round" stroke-width="1.984"/>
  <path id="path9679" d="M119.622,289.736l-3.189,5.74,5.35,3.969" fill="none" stroke="#55a" stroke-linecap="round" stroke-linejoin="round" stroke-width="1.984"/>
  <path id="path9681" d="M108,257.244l-5.315,14.634,13.181,6.768" fill="none" stroke="#55a" stroke-linecap="round" stroke-linejoin="round" stroke-width="1.984"/>
  <path id="path9683" d="M110.161,263.409l-2.3,6.165,5.882,3.118" fill="none" stroke="#55a" stroke-linecap="round" stroke-linejoin="round" stroke-width="1.984"/>
  <path id="path9685" d="M95.457,230.776l-3.543,15.165,13.925,5.138" fill="none" stroke="#55a" stroke-linecap="round" stroke-linejoin="round" stroke-width="1.984"/>
  <path id="path9687" d="M98.327,236.657,96.8,243.035l6.2,2.374" fill="none" stroke="#55a" stroke-linecap="round" stroke-linejoin="round" stroke-width="1.984"/>
  <path id="path9689" d="M80.681,206.646l-2.02,15.413,13.217,3.9" fill="none" stroke="#55a" stroke-linecap="round" stroke-linejoin="round" stroke-width="2.055"/>
  <path id="path9691" d="M83.835,212.244l-.921,6.484,5.917,1.843" fill="none" stroke="#55a" stroke-linecap="round" stroke-linejoin="round" stroke-width="2.055"/>
  <path id="path9693" d="M62.787,183.3l.744,16.051,13.677,1.488" fill="none" stroke="#55a" stroke-linecap="round" stroke-linejoin="round" stroke-width="2.055"/>
  <path id="path9695" d="M66.862,188.929l.248,6.484,6.13.744" fill="none" stroke="#55a" stroke-linecap="round" stroke-linejoin="round" stroke-width="2.055"/>
  <path id="path9697" d="M99.248,236.268c-4-6.7-7.8-13.465-12.012-20.02-5.386-8.433-10.878-16.8-16.972-24.732-5.173-6.732-11.02-12.862-16.512-19.276" fill="none" stroke="#55a" stroke-linecap="round" stroke-linejoin="round" stroke-width="1.984"/>
  <path id="path9699" d="M59.244,179.752l-5.74-.744" fill="none" stroke="#55a" stroke-linecap="round" stroke-linejoin="round" stroke-width="1.984"/>
  <path id="path9701" d="M53.752,183.012l5.492,1.24-.5,14.492-5-1.24Z" fill="#55a" stroke="#55a" stroke-linecap="round" stroke-linejoin="round" stroke-width="1.984"/>
  <path id="path9703" d="M57.756,216.744l.992-13-5-1.24" fill="none" stroke="#55a" stroke-linecap="round" stroke-linejoin="round" stroke-width="1.984"/>
  <path id="path9705" d="M100.311,332.185l7.476-9.283-8.965-7.583" fill="none" stroke="#55a" stroke-linecap="round" stroke-linejoin="round" stroke-width="1.984"/>
  <path id="path9707" d="M100.028,327.3l2.728-3.65-3.26-2.764" fill="none" stroke="#55a" stroke-linecap="round" stroke-linejoin="round" stroke-width="1.984"/>
  <path id="path9709" d="M98.008,307.559l5.74-10.382-10.1-5.953" fill="none" stroke="#55a" stroke-linecap="round" stroke-linejoin="round" stroke-width="1.984"/>
  <path id="path9711" d="M96.874,302.811l2.055-4.039-3.685-2.161" fill="none" stroke="#55a" stroke-linecap="round" stroke-linejoin="round" stroke-width="1.984"/>
  <path id="path9713" d="M91.488,283.217l4.854-10.843-10.559-5.1" fill="none" stroke="#55a" stroke-linecap="round" stroke-linejoin="round" stroke-width="1.984"/>
  <path id="path9715" d="M89.965,278.539l1.7-4.181L87.8,272.516" fill="none" stroke="#55a" stroke-linecap="round" stroke-linejoin="round" stroke-width="1.984"/>
  <path id="path9717" d="M83.3,258.768l2.906-11.516-11.3-3.189" fill="none" stroke="#55a" stroke-linecap="round" stroke-linejoin="round" stroke-width="1.984"/>
  <path id="path9719" d="M81,254.445l.957-4.429-4.146-1.134" fill="none" stroke="#55a" stroke-linecap="round" stroke-linejoin="round" stroke-width="1.984"/>
  <path id="path9721" d="M71.327,235.736l1.559-11.8L61.3,222.094" fill="none" stroke="#55a" stroke-linecap="round" stroke-linejoin="round" stroke-width="1.984"/>
  <path id="path9723" d="M68.528,231.7l.425-4.5-4.217-.673" fill="none" stroke="#55a" stroke-linecap="round" stroke-linejoin="round" stroke-width="1.984"/>
  <path id="path9725" d="M79.016,341.5c-3.189-8.752-5.811-17.717-9.531-26.256-2.339-5.386-4.606-10.913-7.972-15.732-2.232-3.189-5.35-5.669-8.008-8.5l.248,14,4.5-.992-2.516,6.236,5.776.248L58,314.752l5.244.5-3.26,4.5,5.776.248-4,5,6.484.5-3.756,5,5.776.531-3.508,4.748,5,.744L68.492,342l7.016.248Z" fill="#55a" stroke="#55a" stroke-linecap="round" stroke-linejoin="round" stroke-width="1.984"/>
  <path id="path9727" d="M68,375.768c-2.339,2.516-6.2,3.154-9.5,4.181a16.337,16.337,0,0,1-5.492.992,11.572,11.572,0,0,1-6.024-1.736A4.2,4.2,0,0,1,45,376.441a2.951,2.951,0,0,1,1.24-2.232,5.365,5.365,0,0,1,2.268-.744c1.24-.354,2.622-.142,3.756-.744a5.263,5.263,0,0,0,2.409-2.551,7.351,7.351,0,0,0,.106-4.11,14.557,14.557,0,0,0-1.772-4.287l.248-14.28c2.835-.319,5.811-1.24,8.752-.992,1.736.142,3.685.354,5,1.488,2.374,2.126,3.012,5.669,3.756,8.752a27.39,27.39,0,0,1,.5,9.744c-.461,3.26-1.028,6.874-3.26,9.283Z" fill="#fff" stroke="#55a" stroke-linecap="round" stroke-linejoin="round" stroke-width="1.984"/>
  <path id="path9729" d="M99.248,332.5c-4.5,1.843-8.079,3.366-12.012,5.244-3.366,1.63-6.7,3.437-9.992,5.244-3.118,1.7-6.732,3.579-9.248,5.244" fill="#fff" stroke="#55a" stroke-linecap="round" stroke-linejoin="round" stroke-width="1.984"/>
  <path id="path9731" d="M97.76,390.756c-5.421-2.587-10.913-5.067-16.264-7.76-4.287-2.161-8.5-4.5-12.756-6.732" fill="#fff" stroke="#55a" stroke-linecap="round" stroke-linejoin="round" stroke-width="1.984"/>
  <path id="path9733" d="M73.488,378.5a85.506,85.506,0,0,0,2.764-10.984,41.784,41.784,0,0,0,0-11.516c-.567-3.366-3.26-9.744-3.26-9.744l12.756-7.264-5.492,9,5.988,6.024L79.76,361.24l5.988,8.256L80.5,373.748l3.26,9.992Z" fill="#fff" stroke="#55a" stroke-linecap="round" stroke-linejoin="round" stroke-width="1.984"/>
  <path id="path9735" d="M95.988,388.736l-7.476-12.224L95,370.24l-6.236-8.5,6.484-7.972-5.74-5.776,6.98-13.5" fill="none" stroke="#55a" stroke-linecap="round" stroke-linejoin="round" stroke-width="1.984"/>
  <path id="path9737" d="M97.512,382.252l-2.516-4,3.756-3.012" fill="none" stroke="#55a" stroke-linecap="round" stroke-linejoin="round" stroke-width="1.984"/>
  <path id="path9739" d="M99.5,365.244l-3.012-3.756,3.26-4.252" fill="none" stroke="#55a" stroke-linecap="round" stroke-linejoin="round" stroke-width="1.984"/>
  <path id="path9741" d="M100.24,350.752l-3.224-4.5,3.224-5" fill="none" stroke="#55a" stroke-linecap="round" stroke-linejoin="round" stroke-width="1.984"/>
  <path id="path9743" d="M93.26,326.268,81.992,331.76s-3.4-11.445-5.492-17.008c-1.772-4.748-3.472-9.6-5.988-14-2.941-5.067-10.524-14-10.524-14V234.5s9.886,15.7,14,23.988A200.968,200.968,0,0,1,85,284.988a186.035,186.035,0,0,1,5.74,23.28C91.878,314.185,93.26,326.268,93.26,326.268Z" fill="#ff5" stroke="#55a" stroke-linecap="round" stroke-linejoin="round" stroke-width="1.984"/>
  <path id="path9745" d="M95.315,483.484s-.673-7.3-2.3-10.488A22.647,22.647,0,0,0,86,465.236a21.29,21.29,0,0,0-8.256-3.472,25.18,25.18,0,0,0-7.476,0,43.346,43.346,0,0,0-5.031.992s3.224,1.028,4.252,2.232c2.232,2.551,2.551,6.272,3.508,9.5s1.169,6.626,2.268,9.78c1.1,3.189,2.091,6.626,4.252,9.248a11.1,11.1,0,0,0,4.5,3.224,13.7,13.7,0,0,0,3.3.531Z" fill="#ff5" stroke="#55a" stroke-linecap="round" stroke-linejoin="round" stroke-width="1.984"/>
  <path id="path9747" d="M90.5,490.535c-1.2-3.969-2.232-7.8-4.252-11.268a41.424,41.424,0,0,0-6.484-8.008c-1.559-1.63-3.331-3.012-5-4.5" fill="none" stroke="#55a" stroke-linecap="round" stroke-linejoin="round" stroke-width="1.984"/>
  <path id="path9749" d="M81.886,487.382c1.772-.957,5.7-.106,7.654.283,1.346-2.657,2.445-4.713,2.339-7.193" fill="none" stroke="#55a" stroke-linecap="round" stroke-linejoin="round" stroke-width="1.984"/>
  <path id="path9751" d="M80.291,482.846c1.772-.957,5.1-.673,7.051-.283,1.346-2.657,2.445-5.244,2.339-7.724" fill="none" stroke="#55a" stroke-linecap="round" stroke-linejoin="round" stroke-width="1.984"/>
  <path id="path9753" d="M78.024,476.681c1.807-.957,4.358-.248,6.307.142,1.346-2.657,1.063-5.067.957-7.547" fill="none" stroke="#55a" stroke-linecap="round" stroke-linejoin="round" stroke-width="1.984"/>
  <path id="path9755" d="M75.437,472.181c1.772-.992,2.906-.071,4.854.319,1.346-2.657.638-3.685.531-6.165" fill="none" stroke="#55a" stroke-linecap="round" stroke-linejoin="round" stroke-width="1.984"/>
  <path id="path9757" d="M90,491.634a9.115,9.115,0,0,0-5.315.354" fill="none" stroke="#55a" stroke-linecap="round" stroke-linejoin="round" stroke-width="1.984"/>
  <path id="path9759" d="M210.083,398.409c.85-.319,1.949-.886,2.055-1.807.106-.886-.886-1.665-1.63-2.161a6.891,6.891,0,0,0-1.524-.425c-.531-.177-1.24-.248-1.594-.744s-.106-1.24-.248-1.843c-.425-1.488-.6-3.26-1.736-4.287a6.4,6.4,0,0,0-3.862-1.276,16.334,16.334,0,0,0-3.472.425,14.327,14.327,0,0,1-2.728.319,2.707,2.707,0,0,1-1.311-.39,1.943,1.943,0,0,1-.5-1.134,12.892,12.892,0,0,1-.106-2.622,15.156,15.156,0,0,0-.106-3.366,6.6,6.6,0,0,0-1.913-3.472,7.161,7.161,0,0,0-4-1.169,17.079,17.079,0,0,0-3.472.638,11.346,11.346,0,0,1-2.657.5,1.57,1.57,0,0,1-1.134-.283c-.177-.142-.177-.461-.213-.673a11.533,11.533,0,0,1,.213-2.2,12.359,12.359,0,0,0,.248-3.012,6.29,6.29,0,0,0-1.382-3.437,7.2,7.2,0,0,0-3.791-1.63,19.912,19.912,0,0,0-3.543.283c-1.453,0-3.224.744-4.358-.177-.886-.709-.567-2.161-.78-3.26a16.2,16.2,0,0,0-.5-3.012,6.384,6.384,0,0,0-2.161-2.976,5.047,5.047,0,0,0-2.976-.531,10.417,10.417,0,0,0-2.2.673c-.6.177-1.276.78-1.878.531-.177-.071-.213-.319-.248-.5a16.573,16.573,0,0,1-.6-1.878,6.972,6.972,0,0,0-.957-2.374,4.4,4.4,0,0,0-3.083-1.807,4.515,4.515,0,0,0-3.012,1.807,7,7,0,0,0-.815,2.374c-.213.6-.319,1.2-.531,1.807-.071.106-.071.283-.177.319-.142.106-.354.035-.531,0a14.332,14.332,0,0,1-1.7-.709,10.291,10.291,0,0,0-2.409-.85,4.972,4.972,0,0,0-3.3.638,5.631,5.631,0,0,0-1.807,3.366,11.555,11.555,0,0,0,.106,3.118,11.282,11.282,0,0,1,.106,2.2c-.035.177,0,.39-.142.5-.283.248-.744.142-1.1.142a10.883,10.883,0,0,1-2.374-.5c-1.063-.354-2.02-1.2-3.118-1.276-.957-.035-2.339,0-2.764.85-.461.85.283,2.02.921,2.728.957.957,2.48,1.1,3.756,1.488a12.166,12.166,0,0,0,3.331.709,6.293,6.293,0,0,0,3.614-.85,5.78,5.78,0,0,0,1.843-3.366,12.868,12.868,0,0,0-.071-3.083c-.035-.78-.638-1.807-.071-2.339.461-.425,1.24.035,1.843.177.815.213,1.524.78,2.339.921a5.86,5.86,0,0,0,3.224-.213,6.19,6.19,0,0,0,2.161-2.409c.39-.673.035-2.161.815-2.161.815,0,.425,1.594.815,2.3a5.123,5.123,0,0,0,2.2,2.445c1.559.638,3.366-.425,5.067-.39.638,0,1.453-.248,1.949.177.567.531.213,1.524.425,2.268.6,2.091.6,4.713,2.3,6.059,1.949,1.559,4.89.957,7.37,1.028a23.777,23.777,0,0,1,2.693-.248,1.961,1.961,0,0,1,1.276.5,1.248,1.248,0,0,1,.248.744,11.96,11.96,0,0,1-.248,2.232,14.939,14.939,0,0,0-.248,3.047,5.818,5.818,0,0,0,1.559,3.4,6.637,6.637,0,0,0,3.933,1.311,14.621,14.621,0,0,0,3.472-.638,18.409,18.409,0,0,1,2.728-.5,2.067,2.067,0,0,1,1.24.248,2.008,2.008,0,0,1,.531,1.1,15.359,15.359,0,0,1,.071,2.551,15.544,15.544,0,0,0,.142,3.4,6.5,6.5,0,0,0,1.843,3.508,6.907,6.907,0,0,0,3.827,1.311,14.744,14.744,0,0,0,3.508-.354,18.436,18.436,0,0,1,2.764-.354c.461.035,1.063,0,1.346.354.354.354.142.992.248,1.453.319,1.453.354,3.118,1.311,4.287a7.568,7.568,0,0,0,3.331,1.878,12.083,12.083,0,0,0,1.949.5,1.26,1.26,0,0,0,.354.071h0Z" fill="#ff5"/>
  <path id="path9761" d="M209.976,386.858a2.153,2.153,0,0,0,1.878-1.382,2.078,2.078,0,0,0-.709-2.232L153,337.358a2.079,2.079,0,0,0-2.374-.035l-22.748,15.945a2,2,0,1,0,2.268,3.3l21.579-15.13L208.7,386.4a2.082,2.082,0,0,0,1.276.461Z" fill="#ff5"/>
  <path id="path9763" d="M152.929,326.268V262.382l-9.744,6.8-.319,63.319Z"/>
  <path id="path9765" d="M211.5,372.118l-21.012-16.866-.283-54.425,21.3,14.492Z" fill="#f55"/>
  <path id="path9767" d="M190.2,356.173l-.6-56.232" fill="none" stroke="#000" stroke-linecap="round" stroke-linejoin="round" stroke-width="1.984"/>
  <path id="path9769" d="M184.287,351.957,184,294.626" fill="none" stroke="#000" stroke-linecap="round" stroke-linejoin="round" stroke-width="1.984"/>
  <path id="path9771" d="M157.358,329.244l-.283-68.35" fill="none" stroke="#000" stroke-linecap="round" stroke-linejoin="round" stroke-width="1.984"/>
  <path id="path9773" d="M119.516,284.563l36.39-24.236" fill="none" stroke="#55a" stroke-linecap="round" stroke-linejoin="round" stroke-width="1.984"/>
  <path id="path9775" d="M157.394,270.248l26.327,26.858-26.5,25.654L184,350.256" fill="none" stroke="#000" stroke-linecap="round" stroke-linejoin="round" stroke-width="1.984"/>
  <path id="path9777" d="M168.13,338.811l16.051-16.406-26.787-27.921,15.165-14.173" fill="none" stroke="#000" stroke-linecap="round" stroke-linejoin="round" stroke-width="1.984"/>
  <path id="path9779" d="M170.965,328.571l4.925-5.28-4.925-5.811-5.1,5.28Z" fill="none" stroke="#000" stroke-linecap="round" stroke-linejoin="round" stroke-width="1.984"/>
  <path id="path9781" d="M171.106,300.9l4.287-4.713-4.854-4.925-4.323,4.606Z" fill="none" stroke="#000" stroke-linecap="round" stroke-linejoin="round" stroke-width="1.984"/>
  <path id="path9783" d="M183.118,342.319l-4.89-5.35,5.138-5.421Z" stroke="#000" stroke-linecap="round" stroke-linejoin="round" stroke-width="1.984"/>
  <path id="path9785" d="M157.925,314.291l5.244-5.457-5.315-5.173Z" stroke="#000" stroke-linecap="round" stroke-linejoin="round" stroke-width="1.984"/>
  <path id="path9787" d="M183.4,314.327l-4.819-5.244,4.925-4.535Z" stroke="#000" stroke-linecap="round" stroke-linejoin="round" stroke-width="1.984"/>
  <path id="path9789" d="M157.783,286.8l4.606-4.748-4.854-4.748Z" stroke="#000" stroke-linecap="round" stroke-linejoin="round" stroke-width="1.984"/>
  <path id="path9791" d="M227.055,410.492c7.087-3.543,14.173-7.051,21.224-10.63,5.067-2.551,10.2-5.031,15.2-7.76,7.193-3.933,14.35-7.937,21.224-12.4,6.449-4.181,12.472-8.929,18.744-13.429-4.146-5.528-8.185-11.126-12.4-16.618-3.579-4.642-7.476-9.071-10.949-13.783-3.224-4.358-6.13-8.965-9.177-13.429a61.27,61.27,0,0,1-7.441,2.126,72.605,72.605,0,0,1-15.2.354,91.756,91.756,0,0,1-12.012-1.772,93.247,93.247,0,0,1-12.756-3.189,81.064,81.064,0,0,1-12.366-5.669,124.718,124.718,0,0,1-13.075-8.469A107.436,107.436,0,0,1,185,295.228c-3.862-3.862-6.945-8.433-10.276-12.756-3.614-4.748-6.839-9.815-10.594-14.492a95.069,95.069,0,0,0-8.114-9.177,81.723,81.723,0,0,0-13.11-10.594,76.091,76.091,0,0,0-14.138-6.732,66.691,66.691,0,0,0-14.492-4.252c-4.89-.709-9.886,0-14.846,0,2.728,5.563,5.634,10.984,8.15,16.618,3.118,7.087,6.059,14.244,8.469,21.579a193.1,193.1,0,0,1,5.669,20.87c1.488,7.228,2.409,14.563,3.189,21.9.567,5.528.886,11.091,1.063,16.618.177,6.13.035,12.26,0,18.39-.071,5.776-.142,11.551-.354,17.327-.248,6.024-.709,12.012-1.063,18.035" fill="none" stroke="#55a" stroke-linecap="round" stroke-linejoin="round" stroke-width="1.984"/>
  <path id="path9793" d="M30.012,149.988v360h270" fill="none" stroke="#55a" stroke-width="1.984"/>
  <path id="path9795" d="M187.937,269.469c-.673.071-1.417.673-2.835,1.7l-3.118,2.2L178.9,275.6c-3.862,2.3-2.8,2.587-.177,5.74l2.941,3.543,2.906,3.508c2.693,3.614,2.551,3.862,5.7.957l2.835-2.587,2.835-2.587c3.331-2.587,2.657-2.764.142-5.776l-2.622-3.154-2.657-3.154c-1.382-1.913-2.02-2.693-2.87-2.622ZM187.406,275a2.853,2.853,0,0,1,1.949.744,2.04,2.04,0,0,1,.425,1.346c0,.213-.283.5-.106.673.142.142.39-.177.6-.177a2.129,2.129,0,0,1,1.382.5,2.706,2.706,0,0,1,.744,1.913,2.791,2.791,0,0,1-.744,1.949,2.286,2.286,0,0,1-1.382.425c-.213.035-.461-.283-.6-.106-.177.142.106.39.106.6a2.075,2.075,0,0,1-.425,1.382,2.924,2.924,0,0,1-3.9,0,2.312,2.312,0,0,1-.461-1.382c0-.213.319-.461.177-.6-.177-.177-.461.142-.673.106a2.18,2.18,0,0,1-1.346-.425,2.791,2.791,0,0,1-.744-1.949,2.706,2.706,0,0,1,.744-1.913,2.036,2.036,0,0,1,1.346-.5c.213,0,.5.319.673.177.142-.177-.177-.461-.177-.673a2.287,2.287,0,0,1,.461-1.346A2.853,2.853,0,0,1,187.406,275Z"/>
  <path id="path9797" d="M201.437,285.236c-.638.142-1.311.886-2.516,2.126l-2.693,2.693-2.657,2.693c-3.472,2.941-2.339,3.047.744,5.7l3.508,3.012,3.437,2.976c3.26,3.118,3.154,3.4,5.811,0l2.339-3.047,2.374-2.976c2.87-3.118,2.2-3.189-.815-5.74l-3.118-2.693-3.118-2.657c-1.7-1.665-2.48-2.339-3.3-2.091Zm.39,5.528a2.776,2.776,0,0,1,2.055.425,1.846,1.846,0,0,1,.638,1.24c.071.213-.177.531,0,.673s.354-.248.6-.248a2.162,2.162,0,0,1,1.417.213,2.879,2.879,0,0,1,.638,3.827,2.142,2.142,0,0,1-1.276.673c-.213.035-.5-.213-.638-.035-.106.177.213.39.248.6a2.409,2.409,0,0,1-.213,1.417,2.879,2.879,0,0,1-3.827.638,2.087,2.087,0,0,1-.709-1.276c-.035-.213.248-.5.071-.638s-.39.213-.638.248a2.06,2.06,0,0,1-1.382-.213,2.732,2.732,0,0,1-1.063-1.772,2.776,2.776,0,0,1,.425-2.055,2.052,2.052,0,0,1,1.24-.673c.213-.071.531.213.673.035.106-.177-.248-.39-.283-.6a2.137,2.137,0,0,1,.248-1.417,2.732,2.732,0,0,1,1.772-1.063Z"/>
  <path id="path9799" d="M217.311,297.567c-.567.354-.957,1.276-1.736,2.835l-1.7,3.4-1.665,3.4c-2.374,3.862-1.24,3.614,2.516,5.173l4.252,1.736,4.217,1.736c4.075,1.913,4.075,2.232,5.492-1.843l1.276-3.614,1.311-3.579c1.736-3.9,1.063-3.72-2.587-5.209l-3.791-1.524-3.827-1.559c-2.126-1.028-3.047-1.453-3.756-.957Zm2.126,5.138a2.765,2.765,0,0,1,2.055-.248,2.074,2.074,0,0,1,1.028.957c.106.213-.035.567.177.638.213.106.283-.319.5-.425a2.2,2.2,0,0,1,1.417-.213,2.66,2.66,0,0,1,1.559,1.346,2.625,2.625,0,0,1,.248,2.055,2,2,0,0,1-.992,1.028c-.177.142-.567-.035-.6.213-.071.213.283.283.39.461a2.1,2.1,0,0,1,.248,1.453,2.861,2.861,0,0,1-3.4,1.807,2.066,2.066,0,0,1-1.063-.992c-.106-.177.035-.567-.142-.638-.213-.071-.319.319-.531.425a1.917,1.917,0,0,1-1.382.248,2.727,2.727,0,0,1-1.594-1.346,2.877,2.877,0,0,1-.248-2.091,2,2,0,0,1,.992-1.028c.177-.106.567.035.638-.177s-.354-.319-.461-.5a2.2,2.2,0,0,1-.213-1.417,2.719,2.719,0,0,1,1.382-1.559Z"/>
  <path id="path9801" d="M236.02,305.4c-.425.531-.567,1.524-.815,3.224l-.638,3.756-.6,3.756c-1.134,4.358-.142,3.791,3.933,4.181l4.571.425,4.571.425c4.429.638,4.5.921,4.677-3.366l.177-3.827.177-3.827c.531-4.217-.071-3.827-3.969-4.181l-4.11-.39-4.11-.354c-2.339-.354-3.331-.461-3.862.177Zm3.508,4.287a2.84,2.84,0,0,1,1.913-.815,1.854,1.854,0,0,1,1.276.638c.142.142.142.531.354.531.248,0,.177-.39.354-.531a2.1,2.1,0,0,1,1.276-.638,2.627,2.627,0,0,1,1.913.815,2.809,2.809,0,0,1,.85,1.913,2.152,2.152,0,0,1-.673,1.276c-.142.177-.531.142-.531.354s.39.177.531.354a2.152,2.152,0,0,1,.673,1.276,2.92,2.92,0,0,1-2.728,2.764,2.143,2.143,0,0,1-1.311-.673c-.177-.142-.106-.531-.354-.531-.213,0-.177.39-.354.531a2.248,2.248,0,0,1-1.276.673,2.727,2.727,0,0,1-1.878-.85,2.809,2.809,0,0,1-.85-1.913,2.049,2.049,0,0,1,.6-1.276c.177-.177.6-.106.567-.354,0-.213-.425-.177-.567-.354a1.967,1.967,0,0,1-.6-1.276A2.84,2.84,0,0,1,239.528,309.685Z"/>
  <path id="path9803" d="M173.693,272.693c.638-.071,1.417-.673,2.835-1.665l3.083-2.232,3.118-2.2c3.862-2.3,2.764-2.622.177-5.776l-2.941-3.508-2.906-3.543c-2.693-3.579-2.551-3.862-5.7-.957l-2.835,2.622-2.835,2.551c-3.366,2.587-2.693,2.764-.142,5.776l2.622,3.154,2.657,3.154c1.382,1.913,2.02,2.728,2.87,2.622Zm.531-5.528a2.791,2.791,0,0,1-1.949-.744,1.981,1.981,0,0,1-.425-1.346c-.035-.213.248-.5.106-.638-.142-.177-.39.177-.6.142a2.312,2.312,0,0,1-1.382-.461,2.791,2.791,0,0,1-.744-1.949,2.853,2.853,0,0,1,.744-1.949,2.286,2.286,0,0,1,1.382-.425c.213,0,.461.283.6.142.142-.177-.142-.425-.106-.638a2.075,2.075,0,0,1,.425-1.382,2.791,2.791,0,0,1,1.949-.744,2.706,2.706,0,0,1,1.913.744,2.13,2.13,0,0,1,.5,1.382c0,.213-.319.461-.177.638.177.142.425-.142.673-.142a2.255,2.255,0,0,1,1.346.425,2.853,2.853,0,0,1,.744,1.949,2.791,2.791,0,0,1-.744,1.949,2.287,2.287,0,0,1-1.346.461c-.248.035-.5-.319-.673-.142-.142.142.177.425.177.638a2.036,2.036,0,0,1-.5,1.346A2.706,2.706,0,0,1,174.224,267.165Z"/>
  <path id="path9805" d="M160.476,256.642c.638-.177,1.311-.921,2.551-2.126l2.657-2.728,2.693-2.693c3.437-2.906,2.3-3.012-.78-5.7l-3.472-2.976-3.472-3.012c-3.224-3.083-3.118-3.366-5.776.035l-2.339,3.012-2.374,3.012c-2.87,3.118-2.2,3.154.78,5.7l3.118,2.693,3.154,2.657c1.7,1.665,2.445,2.339,3.26,2.126Zm-.39-5.528a2.855,2.855,0,0,1-2.02-.425,2.046,2.046,0,0,1-.673-1.276c-.035-.213.213-.531.035-.638-.177-.142-.39.213-.6.248a2.176,2.176,0,0,1-1.417-.248A2.732,2.732,0,0,1,154.346,247a2.793,2.793,0,0,1,.39-2.055,2.1,2.1,0,0,1,1.311-.638c.213-.071.5.213.638,0,.106-.177-.213-.354-.248-.567a2.03,2.03,0,0,1,.213-1.453,2.732,2.732,0,0,1,1.772-1.063,2.81,2.81,0,0,1,2.055.425,2.142,2.142,0,0,1,.673,1.276c.035.213-.213.5-.035.638s.39-.213.6-.213a2.122,2.122,0,0,1,1.417.177,2.811,2.811,0,0,1,1.063,1.807,2.688,2.688,0,0,1-.425,2.02,2.1,2.1,0,0,1-1.24.709c-.213.035-.567-.248-.673-.071-.106.213.248.425.248.638a2.2,2.2,0,0,1-.213,1.417,2.967,2.967,0,0,1-1.807,1.063Z"/>
  <path id="path9807" d="M143.362,243.035c.567-.39.957-1.276,1.736-2.835l1.7-3.4,1.665-3.437c2.339-3.827,1.24-3.579-2.516-5.138l-4.252-1.736-4.252-1.772c-4.039-1.913-4.039-2.2-5.457,1.878l-1.276,3.614-1.311,3.579c-1.736,3.862-1.063,3.685,2.587,5.173l3.791,1.559,3.827,1.524C141.732,243.106,142.654,243.5,143.362,243.035Zm-2.126-5.138a2.765,2.765,0,0,1-2.055.248,2,2,0,0,1-1.028-.992c-.106-.177.035-.567-.177-.638s-.283.354-.5.425a2.009,2.009,0,0,1-1.417.248,2.835,2.835,0,0,1-1.594-1.346,2.877,2.877,0,0,1-.248-2.091,2.222,2.222,0,0,1,1.028-1.028c.177-.106.531.035.6-.177s-.319-.283-.39-.5a2.238,2.238,0,0,1-.283-1.417,2.846,2.846,0,0,1,1.382-1.559,2.765,2.765,0,0,1,2.055-.248,2.066,2.066,0,0,1,1.063.992c.106.177-.071.531.142.6s.319-.319.531-.39a1.917,1.917,0,0,1,1.382-.248,2.835,2.835,0,0,1,1.594,1.346,2.785,2.785,0,0,1,.248,2.055,2.22,2.22,0,0,1-.992,1.063c-.177.106-.567-.071-.638.177-.071.177.354.283.425.5a2.176,2.176,0,0,1,.248,1.417,2.969,2.969,0,0,1-1.382,1.559Z"/>
  <path id="path9809" d="M124.689,235.063c.425-.5.531-1.488.815-3.189l.6-3.756.6-3.756c1.134-4.394.142-3.827-3.933-4.217l-4.571-.425-4.535-.425c-4.429-.638-4.535-.921-4.713,3.4l-.142,3.827-.213,3.791c-.531,4.217.071,3.862,4,4.217l4.075.354,4.11.354c2.339.39,3.366.5,3.9-.177Zm-3.543-4.287a2.809,2.809,0,0,1-1.913.85,2.012,2.012,0,0,1-1.24-.638c-.177-.142-.177-.567-.39-.567s-.142.425-.319.567a2.1,2.1,0,0,1-1.311.638,2.88,2.88,0,0,1-1.913-.85,2.69,2.69,0,0,1-.815-1.878,2.01,2.01,0,0,1,.638-1.276c.142-.177.532-.142.532-.354,0-.248-.39-.213-.532-.354a2.344,2.344,0,0,1-.673-1.311,2.92,2.92,0,0,1,2.764-2.728,2.187,2.187,0,0,1,1.311.638c.142.142.106.567.319.567s.213-.425.39-.567a1.926,1.926,0,0,1,1.24-.638,2.809,2.809,0,0,1,1.913.85,2.69,2.69,0,0,1,.815,1.878,1.967,1.967,0,0,1-.6,1.276c-.142.177-.567.142-.567.354,0,.248.425.213.567.354A2.3,2.3,0,0,1,122,228.9a2.8,2.8,0,0,1-.85,1.878Z"/>
  <path id="path9811" d="M261.283,306.142l-1.559.319c-2.126.248-3.012.425-3.331,1.2a9.117,9.117,0,0,0,.071,3.26l.354,3.791.354,3.827c.071,4.5.78,3.72,4.394,3.047l4-.78,3.9-.709-1.913-3.3a2.677,2.677,0,0,1-.78.39,1.844,1.844,0,0,1-1.276-.283c-.177-.106-.213-.5-.39-.425-.213.035-.106.425-.213.638a1.785,1.785,0,0,1-.957.886,2.077,2.077,0,0,1-1.807-.283,2.842,2.842,0,0,1-1.169-1.665,2.335,2.335,0,0,1,.213-1.382c.071-.177.5-.248.425-.461s-.425-.106-.6-.213a1.974,1.974,0,0,1-.815-1.1,2.957,2.957,0,0,1,.283-2.055,2.6,2.6,0,0,1,1.417-1.276,1.561,1.561,0,0,1,1.24.283c.177.106.248.5.461.461l.106-.106-2.409-4.075Z"/>
  <path id="path9813" d="M99.354,234.354l1.559-.319c2.126-.248,3.012-.425,3.331-1.2.248-.6.106-1.559-.035-3.26l-.39-3.827-.354-3.791c-.035-4.5-.78-3.72-4.358-3.047l-4.039.78-3.9.709,1.949,3.3a2.147,2.147,0,0,1,.744-.39,1.844,1.844,0,0,1,1.276.283c.177.106.213.461.425.425.177-.035.071-.425.177-.638a2.005,2.005,0,0,1,.957-.921,2.218,2.218,0,0,1,1.807.319,3.1,3.1,0,0,1,1.2,1.63,2.215,2.215,0,0,1-.248,1.417c-.071.177-.5.248-.425.461s.425.106.6.213a1.974,1.974,0,0,1,.815,1.1,2.861,2.861,0,0,1-.283,2.02,2.342,2.342,0,0,1-1.417,1.311,1.752,1.752,0,0,1-1.24-.283c-.177-.106-.248-.5-.461-.461-.035,0-.071.071-.106.106l2.409,4.075Z"/>
  <path id="path9815" d="M95,100.984c2.02,4,7.016,10.028,12.012,10.028,9,0,13-8.008,13-18,0-10.028-4-19.028-13-19.028-5,0-8.008,5.031-11.02,8.008C95,82.984,94,81.992,95,81,98.008,77.988,103,70.016,103,63c0-8.008-5-18-13-18S77,54.992,77,63c0,7.016,5,14.988,8.008,18,.992.992,0,1.984-.992.992-3.012-2.976-6.024-8.008-11.02-8.008-9,0-13,9-13,19.028,0,9.992,4,18,13,18,5,0,9.992-6.024,12.012-10.028.992-.992.992,0,.992,1.028C85,109.984,85,112,84.012,117.992c-1.028,6.024-4,17.008-4,17.008,5-1.984,14.988-1.984,19.984,0,0,0-2.976-10.984-4-17.008C95,112,95,109.984,94,102.012,94,100.984,94,99.992,95,100.984Z"/>
  <path id="path9817" d="M32.492,117.992c.992,2.02,3.508,5,6.024,5,4.5,0,6.484-4,6.484-9s-1.984-9.5-6.484-9.5c-2.516,0-4,2.516-5.528,4-.5.5-.992,0-.5-.5,1.524-1.488,4-5.492,4-9,0-4-2.48-9-6.484-9s-6.52,5-6.52,9c0,3.508,2.516,7.512,4,9,.5.5,0,.992-.5.5-1.488-1.488-3.012-4-5.492-4-4.5,0-6.52,4.5-6.52,9.5s2.02,9,6.52,9c2.48,0,5-2.976,5.988-5,.5-.5.5,0,.5.5-.5,4-.5,5-.992,8.008s-1.984,8.5-1.984,8.5a17.144,17.144,0,0,1,9.992,0s-1.524-5.492-2.02-8.5-.5-4-.992-8.008C32,117.992,32,117.5,32.492,117.992Z"/>
  <path id="path9819" d="M265,439.016c-2.02-4-7.016-10.028-12.012-10.028-9,0-13,8.008-13,18,0,10.028,4,19.028,13,19.028,5,0,8.008-5.031,11.02-8.008.992-.992,1.984,0,.992.992-3.012,3.012-8.008,10.984-8.008,18,0,8.008,5,18,13,18s13-9.992,13-18c0-7.016-5-14.988-8.008-18-.992-.992,0-1.984.992-.992,3.012,2.976,6.024,8.008,11.02,8.008,9,0,13-9,13-19.028,0-9.992-4-18-13-18-5,0-9.992,6.024-12.012,10.028-.992.992-.992,0-.992-1.028.992-7.972.992-9.992,1.984-15.98,1.028-6.024,4-17.008,4-17.008-5,1.984-14.988,1.984-19.984,0,0,0,2.976,10.984,4,17.008C265,428,265,430.016,266,437.988,266,439.016,266,440.008,265,439.016Z"/>
  <path id="path9821" d="M327.508,422.008c-.992-2.02-3.508-5-6.024-5-4.5,0-6.484,4-6.484,9s1.984,9.5,6.484,9.5c2.516,0,4-2.516,5.528-4,.5-.5.992,0,.5.5-1.524,1.488-4,5.492-4,9,0,4,2.48,9,6.484,9s6.52-5,6.52-9c0-3.508-2.516-7.512-4-9-.5-.5,0-.992.5-.5,1.488,1.488,3.012,4,5.492,4,4.5,0,6.52-4.5,6.52-9.5s-2.02-9-6.52-9c-2.48,0-5,2.976-5.988,5-.5.5-.5,0-.5-.5.5-4,.5-5,.992-8.008s1.984-8.5,1.984-8.5a17.144,17.144,0,0,1-9.992,0s1.524,5.492,2.02,8.5.5,4,.992,8.008C328,422.008,328,422.5,327.508,422.008Z"/>
</svg>
