<svg xmlns="http://www.w3.org/2000/svg" width="360" height="540" viewBox="0 0 360 540">
  <g id="g3042" transform="translate(0 -512.362)">
    <rect id="rect6472-03" width="359" height="539" rx="29.944" transform="translate(0.5 512.862)" fill="#fff" stroke="#000" stroke-width="1"/>
    <path id="rect3163-5-1-4-3-4-0-8" d="M30,542.362a9.978,9.978,0,0,0-10,10v5h5v-5a5,5,0,0,1,10,0v5a4.989,4.989,0,0,1-5,5H25v5h5a4.989,4.989,0,0,1,5,5v10a5,5,0,0,1-10,0v-5H20v5a10,10,0,0,0,20,0v-10a9.938,9.938,0,0,0-3.406-7.5,9.938,9.938,0,0,0,3.406-7.5v-5A9.978,9.978,0,0,0,30,542.362Z" fill="#f55"/>
    <path id="rect3163-5-1-4-3-4-0-4-2" d="M330,1022.362a9.978,9.978,0,0,0,10-10v-5h-5v5a5,5,0,0,1-10,0v-5a4.989,4.989,0,0,1,5-5h5v-5h-5a4.989,4.989,0,0,1-5-5v-10a5,5,0,0,1,10,0v5h5v-5a10,10,0,0,0-20,0v10a9.938,9.938,0,0,0,3.406,7.5,9.938,9.938,0,0,0-3.406,7.5v5a9.978,9.978,0,0,0,10,10Z" fill="#f55"/>
    <path id="path3204-24-1-52" d="M30,602.362a74.451,74.451,0,0,0,6.5,12.5,88.5,88.5,0,0,0,8.5,10,88.5,88.5,0,0,0-8.5,10,74.451,74.451,0,0,0-6.5,12.5,74.451,74.451,0,0,0-6.5-12.5,88.5,88.5,0,0,0-8.5-10,88.5,88.5,0,0,0,8.5-10,74.451,74.451,0,0,0,6.5-12.5" fill="#f55"/>
    <path id="path3204-24-1-1-0" d="M330,917.362a74.451,74.451,0,0,0,6.5,12.5,88.5,88.5,0,0,0,8.5,10,88.5,88.5,0,0,0-8.5,10,74.451,74.451,0,0,0-6.5,12.5,74.451,74.451,0,0,0-6.5-12.5,88.5,88.5,0,0,0-8.5-10,88.5,88.5,0,0,0,8.5-10,74.451,74.451,0,0,0,6.5-12.5" fill="#f55"/>
    <path id="path3204-24-4-3" d="M180,557.362s6,15,13,25a176.992,176.992,0,0,0,17,20,176.992,176.992,0,0,0-17,20c-7,10-13,25-13,25s-6-15-13-25a176.992,176.992,0,0,0-17-20,176.992,176.992,0,0,0,17-20c7-10,13-25,13-25" fill="#f55"/>
    <path id="path3204-24-72" d="M180,737.362s6,15,13,25a176.992,176.992,0,0,0,17,20,176.992,176.992,0,0,0-17,20c-7,10-13,25-13,25s-6-15-13-25a176.992,176.992,0,0,0-17-20,176.992,176.992,0,0,0,17-20c7-10,13-25,13-25" fill="#f55"/>
    <path id="path3204-24-0-97" d="M180,917.362s6,15,13,25a176.992,176.992,0,0,0,17,20,176.992,176.992,0,0,0-17,20c-7,10-13,25-13,25s-6-15-13-25a176.992,176.992,0,0,0-17-20,176.992,176.992,0,0,0,17-20c7-10,13-25,13-25" fill="#f55"/>
  </g>
</svg>
