<svg xmlns="http://www.w3.org/2000/svg" width="360" height="540" viewBox="0 0 360 540">
  <g id="g3044" transform="translate(0 -512.362)">
    <rect id="rect6472-33" width="359" height="539" rx="29.944" transform="translate(0.5 512.862)" fill="#fff" stroke="#000" stroke-width="1"/>
    <path id="rect3980-7-6-2-9-9" d="M30,542.362l-10,35v5H32v10h5v-10h3v-5H37v-15H32v15H25.2l10-35Z" fill="#f55"/>
    <path id="rect3980-7-6-2-9-9-8" d="M330,1022.362l10-35v-5H328v-10h-5v10h-3v5h3v15h5v-15h6.8l-10,35Z" fill="#f55"/>
    <path id="path3204-24-55" d="M90,557.362s6,15,13,25a176.992,176.992,0,0,0,17,20,176.992,176.992,0,0,0-17,20c-7,10-13,25-13,25s-6-15-13-25a176.992,176.992,0,0,0-17-20,176.992,176.992,0,0,0,17-20c7-10,13-25,13-25" fill="#f55"/>
    <path id="path3204-24-1-32" d="M270,557.362s6,15,13,25a176.992,176.992,0,0,0,17,20,176.992,176.992,0,0,0-17,20c-7,10-13,25-13,25s-6-15-13-25a176.992,176.992,0,0,0-17-20,176.992,176.992,0,0,0,17-20c7-10,13-25,13-25" fill="#f55"/>
    <path id="path3204-24-7-8" d="M90,917.362s6,15,13,25a176.992,176.992,0,0,0,17,20,176.992,176.992,0,0,0-17,20c-7,10-13,25-13,25s-6-15-13-25a176.992,176.992,0,0,0-17-20,176.992,176.992,0,0,0,17-20c7-10,13-25,13-25" fill="#f55"/>
    <path id="path3204-24-4-25" d="M270,917.362s6,15,13,25a176.992,176.992,0,0,0,17,20,176.992,176.992,0,0,0-17,20c-7,10-13,25-13,25s-6-15-13-25a176.992,176.992,0,0,0-17-20,176.992,176.992,0,0,0,17-20c7-10,13-25,13-25" fill="#f55"/>
    <path id="path3204-24-1-0-3" d="M30,602.362a74.451,74.451,0,0,0,6.5,12.5,88.5,88.5,0,0,0,8.5,10,88.5,88.5,0,0,0-8.5,10,74.451,74.451,0,0,0-6.5,12.5,74.451,74.451,0,0,0-6.5-12.5,88.5,88.5,0,0,0-8.5-10,88.5,88.5,0,0,0,8.5-10,74.451,74.451,0,0,0,6.5-12.5" fill="#f55"/>
    <path id="path3204-24-1-9-6" d="M330,917.362a74.451,74.451,0,0,0,6.5,12.5,88.5,88.5,0,0,0,8.5,10,88.5,88.5,0,0,0-8.5,10,74.451,74.451,0,0,0-6.5,12.5,74.451,74.451,0,0,0-6.5-12.5,88.5,88.5,0,0,0-8.5-10,88.5,88.5,0,0,0,8.5-10,74.451,74.451,0,0,0,6.5-12.5" fill="#f55"/>
  </g>
</svg>
