<svg xmlns="http://www.w3.org/2000/svg" width="360" height="540" viewBox="0 0 360 540">
  <g id="g3015" transform="translate(0 -512.362)">
    <rect id="rect6472-4" width="359" height="539" rx="29.944" transform="translate(0.5 512.862)" fill="#fff" stroke="#000" stroke-width="1"/>
    <path id="rect3163-7-1-7-3-1" d="M30,542.362a9.978,9.978,0,0,0-10,10v30a10,10,0,0,0,20,0v-10a9.995,9.995,0,0,0-15-8.656V552.362a5,5,0,0,1,10,0v1h5v-1A9.978,9.978,0,0,0,30,542.362Zm0,25a4.989,4.989,0,0,1,5,5v10a5,5,0,0,1-10,0v-10A4.989,4.989,0,0,1,30,567.362Z" fill="#f55"/>
    <path id="rect3163-7-1-7-3-1-9" d="M330,1022.362a9.978,9.978,0,0,0,10-10v-30a10,10,0,0,0-20,0v10a9.995,9.995,0,0,0,15,8.656v11.344a5,5,0,0,1-10,0v-1h-5v1A9.978,9.978,0,0,0,330,1022.362Zm0-25a4.989,4.989,0,0,1-5-5v-10a5,5,0,0,1,10,0v10A4.989,4.989,0,0,1,330,997.362Z" fill="#f55"/>
    <path id="path3204-24-1-9" d="M90,557.362s6,15,13,25a176.992,176.992,0,0,0,17,20,176.992,176.992,0,0,0-17,20c-7,10-13,25-13,25s-6-15-13-25a176.992,176.992,0,0,0-17-20,176.992,176.992,0,0,0,17-20c7-10,13-25,13-25" fill="#f55"/>
    <path id="path3204-24-7-9" d="M270,557.362s6,15,13,25a176.992,176.992,0,0,0,17,20,176.992,176.992,0,0,0-17,20c-7,10-13,25-13,25s-6-15-13-25a176.992,176.992,0,0,0-17-20,176.992,176.992,0,0,0,17-20c7-10,13-25,13-25" fill="#f55"/>
    <path id="path3204-24-25" d="M90,737.362s6,15,13,25a176.992,176.992,0,0,0,17,20,176.992,176.992,0,0,0-17,20c-7,10-13,25-13,25s-6-15-13-25a176.992,176.992,0,0,0-17-20,176.992,176.992,0,0,0,17-20c7-10,13-25,13-25" fill="#f55"/>
    <path id="path3204-24-4-5" d="M270,737.362s6,15,13,25a176.992,176.992,0,0,0,17,20,176.992,176.992,0,0,0-17,20c-7,10-13,25-13,25s-6-15-13-25a176.992,176.992,0,0,0-17-20,176.992,176.992,0,0,0,17-20c7-10,13-25,13-25" fill="#f55"/>
    <path id="path3204-24-0-3" d="M90,917.362s6,15,13,25a176.992,176.992,0,0,0,17,20,176.992,176.992,0,0,0-17,20c-7,10-13,25-13,25s-6-15-13-25a176.992,176.992,0,0,0-17-20,176.992,176.992,0,0,0,17-20c7-10,13-25,13-25" fill="#f55"/>
    <path id="path3204-24-9-33" d="M270,917.362s6,15,13,25a176.992,176.992,0,0,0,17,20,176.992,176.992,0,0,0-17,20c-7,10-13,25-13,25s-6-15-13-25a176.992,176.992,0,0,0-17-20,176.992,176.992,0,0,0,17-20c7-10,13-25,13-25" fill="#f55"/>
    <path id="path3204-24-1-4-7" d="M30,602.362a74.451,74.451,0,0,0,6.5,12.5,88.5,88.5,0,0,0,8.5,10,88.5,88.5,0,0,0-8.5,10,74.451,74.451,0,0,0-6.5,12.5,74.451,74.451,0,0,0-6.5-12.5,88.5,88.5,0,0,0-8.5-10,88.5,88.5,0,0,0,8.5-10,74.451,74.451,0,0,0,6.5-12.5" fill="#f55"/>
    <path id="path3204-24-1-8-4" d="M330,917.362a74.451,74.451,0,0,0,6.5,12.5,88.5,88.5,0,0,0,8.5,10,88.5,88.5,0,0,0-8.5,10,74.451,74.451,0,0,0-6.5,12.5,74.451,74.451,0,0,0-6.5-12.5,88.5,88.5,0,0,0-8.5-10,88.5,88.5,0,0,0,8.5-10,74.451,74.451,0,0,0,6.5-12.5" fill="#f55"/>
  </g>
</svg>
