<svg xmlns="http://www.w3.org/2000/svg" width="360" height="540" viewBox="0 0 360 540">
  <g id="g3092" transform="translate(0 -512.362)">
    <rect id="rect6472-39" width="359" height="539" rx="29.944" transform="translate(0.5 512.862)" fill="#fff" stroke="#000" stroke-width="1"/>
    <path id="rect3980-2-1-93-8" d="M20,542.362v10h5v-5H35l-10,45h5l10-45v-5Z" fill="#f55"/>
    <path id="rect3980-2-1-93-0-80" d="M340,1022.362v-10h-5v5H325l10-45h-5l-10,45v5Z" fill="#f55"/>
    <path id="path3204-24-1-8" d="M30,602.362a74.451,74.451,0,0,0,6.5,12.5,88.5,88.5,0,0,0,8.5,10,88.5,88.5,0,0,0-8.5,10,74.451,74.451,0,0,0-6.5,12.5,74.451,74.451,0,0,0-6.5-12.5,88.5,88.5,0,0,0-8.5-10,88.5,88.5,0,0,0,8.5-10,74.451,74.451,0,0,0,6.5-12.5" fill="#f55"/>
    <path id="path3204-24-1-1-7" d="M330,917.362a74.451,74.451,0,0,0,6.5,12.5,88.5,88.5,0,0,0,8.5,10,88.5,88.5,0,0,0-8.5,10,74.451,74.451,0,0,0-6.5,12.5,74.451,74.451,0,0,0-6.5-12.5,88.5,88.5,0,0,0-8.5-10,88.5,88.5,0,0,0,8.5-10,74.451,74.451,0,0,0,6.5-12.5" fill="#f55"/>
    <path id="path3204-24-9-7" d="M90,557.362s6,15,13,25a176.992,176.992,0,0,0,17,20,176.992,176.992,0,0,0-17,20c-7,10-13,25-13,25s-6-15-13-25a176.992,176.992,0,0,0-17-20,176.992,176.992,0,0,0,17-20c7-10,13-25,13-25" fill="#f55"/>
    <path id="path3204-24-4-83" d="M270,557.362s6,15,13,25a176.992,176.992,0,0,0,17,20,176.992,176.992,0,0,0-17,20c-7,10-13,25-13,25s-6-15-13-25a176.992,176.992,0,0,0-17-20,176.992,176.992,0,0,0,17-20c7-10,13-25,13-25" fill="#f55"/>
    <path id="path3204-24-8-8" d="M180,647.362s6,15,13,25a176.992,176.992,0,0,0,17,20,176.992,176.992,0,0,0-17,20c-7,10-13,25-13,25s-6-15-13-25a176.992,176.992,0,0,0-17-20,176.992,176.992,0,0,0,17-20c7-10,13-25,13-25" fill="#f55"/>
    <path id="path3204-24-37" d="M90,737.362s6,15,13,25a176.992,176.992,0,0,0,17,20,176.992,176.992,0,0,0-17,20c-7,10-13,25-13,25s-6-15-13-25a176.992,176.992,0,0,0-17-20,176.992,176.992,0,0,0,17-20c7-10,13-25,13-25" fill="#f55"/>
    <path id="path3204-24-82" d="M270,737.362s6,15,13,25a176.992,176.992,0,0,0,17,20,176.992,176.992,0,0,0-17,20c-7,10-13,25-13,25s-6-15-13-25a176.992,176.992,0,0,0-17-20,176.992,176.992,0,0,0,17-20c7-10,13-25,13-25" fill="#f55"/>
    <path id="path3204-24-45-1" d="M90,917.362s6,15,13,25a176.992,176.992,0,0,0,17,20,176.992,176.992,0,0,0-17,20c-7,10-13,25-13,25s-6-15-13-25a176.992,176.992,0,0,0-17-20,176.992,176.992,0,0,0,17-20c7-10,13-25,13-25" fill="#f55"/>
    <path id="path3204-24-5" d="M270,917.362s6,15,13,25a176.992,176.992,0,0,0,17,20,176.992,176.992,0,0,0-17,20c-7,10-13,25-13,25s-6-15-13-25a176.992,176.992,0,0,0-17-20,176.992,176.992,0,0,0,17-20c7-10,13-25,13-25" fill="#f55"/>
  </g>
</svg>
