<svg xmlns="http://www.w3.org/2000/svg" width="360" height="540" viewBox="0 0 360 540">
  <g id="g3197" transform="translate(0 -512.362)">
    <rect id="rect6472-38" width="359" height="539" rx="29.944" transform="translate(0.5 512.862)" fill="#fff" stroke="#000" stroke-width="1"/>
    <path id="path3204-24-49" d="M180,737.362s6,15,13,25a176.992,176.992,0,0,0,17,20,176.992,176.992,0,0,0-17,20c-7,10-13,25-13,25s-6-15-13-25a176.992,176.992,0,0,0-17-20,176.992,176.992,0,0,0,17-20c7-10,13-25,13-25" fill="#f55"/>
    <path id="path3497-2" d="M27.5,542.362l-9,50h5l2.344-13h8.313l2.344,13h5l-9-50ZM30,556.268l3.25,18.094h-6.5Z" fill="#f55"/>
    <path id="path3497-5-6" d="M327.5,1022.362l-9-50h5l2.344,13h8.313l2.344-13h5l-9,50Zm2.5-13.906,3.25-18.094h-6.5l3.25,18.094Z" fill="#f55"/>
    <path id="path3204-24-1-57" d="M30,602.362a74.451,74.451,0,0,0,6.5,12.5,88.5,88.5,0,0,0,8.5,10,88.5,88.5,0,0,0-8.5,10,74.451,74.451,0,0,0-6.5,12.5,74.451,74.451,0,0,0-6.5-12.5,88.5,88.5,0,0,0-8.5-10,88.5,88.5,0,0,0,8.5-10,74.451,74.451,0,0,0,6.5-12.5" fill="#f55"/>
    <path id="path3204-24-1-7" d="M330,917.362a74.451,74.451,0,0,0,6.5,12.5,88.5,88.5,0,0,0,8.5,10,88.5,88.5,0,0,0-8.5,10,74.451,74.451,0,0,0-6.5,12.5,74.451,74.451,0,0,0-6.5-12.5,88.5,88.5,0,0,0-8.5-10,88.5,88.5,0,0,0,8.5-10,74.451,74.451,0,0,0,6.5-12.5" fill="#f55"/>
  </g>
</svg>
