<svg xmlns="http://www.w3.org/2000/svg" width="360" height="540" viewBox="0 0 360 540">
  <g id="g3035" transform="translate(0 -512.362)">
    <rect id="rect6472-18" width="359" height="539" rx="29.944" transform="translate(0.5 512.862)" fill="#fff" stroke="#000" stroke-width="1"/>
    <path id="rect3163-5-1-4-3-4-0" d="M30,542.362a9.978,9.978,0,0,0-10,10v5h5v-5a5,5,0,0,1,10,0v5a4.989,4.989,0,0,1-5,5H25v5h5a4.989,4.989,0,0,1,5,5v10a5,5,0,0,1-10,0v-5H20v5a10,10,0,0,0,20,0v-10a9.938,9.938,0,0,0-3.406-7.5,9.938,9.938,0,0,0,3.406-7.5v-5A9.978,9.978,0,0,0,30,542.362Z" fill="#f55"/>
    <path id="rect3163-5-1-4-3-4-0-4" d="M330,1022.362a9.978,9.978,0,0,0,10-10v-5h-5v5a5,5,0,0,1-10,0v-5a4.989,4.989,0,0,1,5-5h5v-5h-5a4.989,4.989,0,0,1-5-5v-10a5,5,0,0,1,10,0v5h5v-5a10,10,0,0,0-20,0v10a9.938,9.938,0,0,0,3.406,7.5,9.938,9.938,0,0,0-3.406,7.5v5a9.978,9.978,0,0,0,10,10Z" fill="#f55"/>
    <path id="path3126-62" d="M179,575.362c0-11.046-5.716-18-14-18s-15,8.954-15,20c.035.956.018,1.891,0,2.813,0,7.3,2.677,14.377,5,21,2.389,6.811,5.834,12.781,9.063,18.875,5,9.439,15.938,27.313,15.938,27.313s10.936-17.873,15.938-27.312c3.229-6.094,6.673-12.064,9.063-18.875,2.323-6.623,5-13.7,5-21-.028-.974-.019-1.915,0-2.812,0-11.046-6.716-20-15-20s-14,6.954-14,18C181,577.362,179,577.362,179,575.362Z" fill="#f55"/>
    <path id="path3126-1-14" d="M179,755.362c0-11.046-5.716-18-14-18s-15,8.954-15,20c.035.956.018,1.891,0,2.813,0,7.3,2.677,14.377,5,21,2.389,6.811,5.834,12.781,9.063,18.875,5,9.439,15.938,27.313,15.938,27.313s10.936-17.873,15.938-27.312c3.229-6.094,6.673-12.064,9.063-18.875,2.323-6.623,5-13.7,5-21-.028-.974-.019-1.915,0-2.812,0-11.046-6.716-20-15-20s-14,6.954-14,18C181,757.362,179,757.362,179,755.362Z" fill="#f55"/>
    <path id="path3126-7-6" d="M179,989.362c0,11.046-5.716,18-14,18s-15-8.954-15-20c.035-.956.018-1.891,0-2.812,0-7.3,2.677-14.377,5-21,2.389-6.811,5.834-12.781,9.063-18.875,5-9.439,15.938-27.312,15.938-27.312s10.936,17.873,15.938,27.313c3.229,6.094,6.673,12.064,9.063,18.875,2.323,6.623,5,13.7,5,21-.028.974-.019,1.915,0,2.813,0,11.046-6.716,20-15,20s-14-6.954-14-18C181,987.362,179,987.362,179,989.362Z" fill="#f55"/>
    <path id="path3126-1-4-2" d="M29.5,611.362c0-5.523-2.858-9-7-9s-7.5,4.477-7.5,10c.017.478.009.946,0,1.406,0,3.649,1.338,7.188,2.5,10.5a68.552,68.552,0,0,0,4.531,9.438c2.5,4.72,7.969,13.656,7.969,13.656s5.468-8.937,7.969-13.656a68.552,68.552,0,0,0,4.531-9.437c1.162-3.312,2.5-6.851,2.5-10.5-.014-.487-.009-.957,0-1.406,0-5.523-3.358-10-7.5-10s-7,3.477-7,9C30.5,612.362,29.5,612.362,29.5,611.362Z" fill="#f55"/>
    <path id="path3126-1-0" d="M329.5,953.362c0,5.523-2.858,9-7,9s-7.5-4.477-7.5-10c.017-.478.009-.946,0-1.406,0-3.649,1.338-7.188,2.5-10.5a68.552,68.552,0,0,1,4.531-9.437c2.5-4.72,7.969-13.656,7.969-13.656s5.468,8.937,7.969,13.656a68.552,68.552,0,0,1,4.531,9.438c1.162,3.312,2.5,6.851,2.5,10.5-.014.487-.009.957,0,1.406,0,5.523-3.358,10-7.5,10s-7-3.477-7-9C330.5,952.362,329.5,952.362,329.5,953.362Z" fill="#f55"/>
  </g>
</svg>
