<svg xmlns="http://www.w3.org/2000/svg" width="360" height="540" viewBox="0 0 360 540">
  <g id="g3033" transform="translate(0 -512.362)">
    <rect id="rect6472-07" width="359" height="539" rx="29.944" transform="translate(0.5 512.862)" fill="#fff" stroke="#000" stroke-width="1"/>
    <path id="rect3163-52-9-8-1-38" d="M30,542.362a9.978,9.978,0,0,0-10,10v5h5v-5a5,5,0,0,1,10,0v5a8.091,8.091,0,0,1-1,3.9c-4.463,9.1-9.278,17.129-14,26.1v5H40v-10H35v5H25.5c4.489-7.915,8.218-15.572,12.5-23.6a11.207,11.207,0,0,0,2-6.4v-5A9.978,9.978,0,0,0,30,542.362Z"/>
    <path id="rect3163-52-9-8-1-38-8" d="M330,1022.362a9.978,9.978,0,0,0,10-10v-5h-5v5a5,5,0,0,1-10,0v-5a8.091,8.091,0,0,1,1-3.9c4.463-9.1,9.278-17.129,14-26.1v-5H320v10h5v-5h9.5c-4.489,7.916-8.218,15.572-12.5,23.6a11.207,11.207,0,0,0-2,6.4v5A9.978,9.978,0,0,0,330,1022.362Z"/>
    <path id="path3037-7-4-0" d="M32.5,630.362c.5,2,2.5,7,6,7,4.5,0,6.5-4,6.5-9,0-3.5-1.289-5.806-2.5-8.5a49.591,49.591,0,0,0-5-8c-2.323-3.3-7.5-9.5-7.5-9.5s-5.177,6.2-7.5,9.5a49.591,49.591,0,0,0-5,8c-1.211,2.694-2.5,5-2.5,8.5,0,5,2,9,6.5,9,3.5,0,5.5-5,6-7,.5-.5.5,0,.5.5-.5,4-.5,5-1,8s-2,8.5-2,8.5a17.042,17.042,0,0,1,10,0s-1.5-5.5-2-8.5-.5-4-1-8C32,630.362,32,629.862,32.5,630.362Z"/>
    <path id="path3037-7-4-1-3" d="M332.5,934.362c.5-2,2.5-7,6-7,4.5,0,6.5,4,6.5,9,0,3.5-1.289,5.806-2.5,8.5a49.591,49.591,0,0,1-5,8c-2.323,3.3-7.5,9.5-7.5,9.5s-5.177-6.2-7.5-9.5a49.591,49.591,0,0,1-5-8c-1.211-2.694-2.5-5-2.5-8.5,0-5,2-9,6.5-9,3.5,0,5.5,5,6,7,.5.5.5,0,.5-.5-.5-4-.5-5-1-8s-2-8.5-2-8.5a17.042,17.042,0,0,0,10,0s-1.5,5.5-2,8.5-.5,4-1,8C332,934.362,332,934.862,332.5,934.362Z"/>
    <path id="path3037-7-40" d="M185,613.362c1,4,5,14,12,14,9,0,13-8,13-18,0-7-2.579-11.612-5-17-2.578-5.737-6.379-10.857-10-16-4.645-6.6-15-19-15-19s-10.355,12.4-15,19c-3.621,5.143-7.422,10.263-10,16-2.421,5.388-5,10-5,17,0,10,4,18,13,18,7,0,11-10,12-14,1-1,1,0,1,1-1,8-1,10-2,16s-4,17-4,17c5-2,15-2,20,0,0,0-3-11-4-17s-1-8-2-16C184,613.362,184,612.362,185,613.362Z"/>
    <path id="path3037-7-7-0" d="M185,951.362c1-4,5-14,12-14,9,0,13,8,13,18,0,7-2.579,11.612-5,17-2.578,5.737-6.379,10.857-10,16-4.645,6.6-15,19-15,19s-10.355-12.4-15-19c-3.621-5.143-7.422-10.263-10-16-2.421-5.388-5-10-5-17,0-10,4-18,13-18,7,0,11,10,12,14,1,1,1,0,1-1-1-8-1-10-2-16s-4-17-4-17c5,2,15,2,20,0,0,0-3,11-4,17s-1,8-2,16C184,951.362,184,952.362,185,951.362Z"/>
  </g>
</svg>
