<svg xmlns="http://www.w3.org/2000/svg" width="360" height="540" viewBox="0 0 360 540">
  <g id="g3088" transform="translate(0 -512.362)">
    <rect id="rect6472-8" width="359" height="539" rx="29.944" transform="translate(0.5 512.862)" fill="#fff" stroke="#000" stroke-width="1"/>
    <path id="rect3163-6-0-0-2-6" d="M20,542.362v20H30a4.989,4.989,0,0,1,5,5v15a5,5,0,0,1-10,0v-5H20v5a10,10,0,1,0,20,0v-15a9.978,9.978,0,0,0-10-10H25v-10H40v-5H20Z"/>
    <path id="rect3163-6-0-0-2-4-7" d="M340,1022.362v-20H330a4.989,4.989,0,0,1-5-5v-15a5,5,0,0,1,10,0v5h5v-5a10,10,0,0,0-20,0v15a9.978,9.978,0,0,0,10,10h5v10H320v5h20Z"/>
    <g id="g3008" transform="translate(60 557.362)">
      <path id="path3010" d="M35.008,55.984c.992,4,5,14.031,11.976,14.031,9,0,13-8.008,13-18,0-7.016-2.551-11.622-5-17.008C52.406,29.268,48.614,24.13,45,18.992,40.358,12.4,30.012,0,30.012,0S19.63,12.4,14.988,18.992C11.374,24.13,7.583,29.268,5,35.008,2.587,40.394,0,45,0,52.016c0,9.992,4,18,13,18,6.98,0,10.984-10.028,12.012-14.031.992-.992.992,0,.992,1.028-.992,7.972-.992,9.992-2.02,15.98C23,79.016,19.984,90,19.984,90c5.031-1.984,15.024-1.984,20.02,0,0,0-3.012-10.984-4-17.008-.992-5.988-.992-8.008-1.984-15.98C34.016,55.984,34.016,54.992,35.008,55.984Z"/>
    </g>
    <g id="g3022" transform="translate(240 557.362)">
      <path id="path3024" d="M35.008,55.984c.992,4,5,14.031,11.976,14.031,9,0,13-8.008,13-18,0-7.016-2.551-11.622-5-17.008C52.406,29.268,48.614,24.13,45,18.992,40.358,12.4,30.012,0,30.012,0S19.63,12.4,14.988,18.992C11.374,24.13,7.583,29.268,5,35.008,2.587,40.394,0,45,0,52.016c0,9.992,4,18,13,18,6.98,0,10.984-10.028,12.012-14.031.992-.992.992,0,.992,1.028-.992,7.972-.992,9.992-2.02,15.98C23,79.016,19.984,90,19.984,90c5.031-1.984,15.024-1.984,20.02,0,0,0-3.012-10.984-4-17.008-.992-5.988-.992-8.008-1.984-15.98C34.016,55.984,34.016,54.992,35.008,55.984Z"/>
    </g>
    <g id="g3036" transform="translate(150 737.362)">
      <path id="path3038" d="M35.008,55.984c.992,4,5,14.031,11.976,14.031,9,0,13-8.008,13-18,0-7.016-2.551-11.622-5-17.008C52.406,29.268,48.614,24.13,45,18.992,40.358,12.4,30.012,0,30.012,0S19.63,12.4,14.988,18.992C11.374,24.13,7.583,29.268,5,35.008,2.587,40.394,0,45,0,52.016c0,9.992,4,18,13,18,6.98,0,10.984-10.028,12.012-14.031.992-.992.992,0,.992,1.028-.992,7.972-.992,9.992-2.02,15.98C23,79.016,19.984,90,19.984,90c5.031-1.984,15.024-1.984,20.02,0,0,0-3.012-10.984-4-17.008-.992-5.988-.992-8.008-1.984-15.98C34.016,55.984,34.016,54.992,35.008,55.984Z"/>
    </g>
    <g id="g3050" transform="translate(60 1007.362)">
      <path id="path3052" d="M35.008-55.984c.992-4,5-14.031,11.976-14.031,9,0,13,8.008,13,18,0,7.016-2.551,11.622-5,17.008C52.406-29.268,48.614-24.13,45-18.992,40.358-12.4,30.012,0,30.012,0S19.63-12.4,14.988-18.992C11.374-24.13,7.583-29.268,5-35.008,2.587-40.394,0-45,0-52.016c0-9.992,4-18,13-18,6.98,0,10.984,10.028,12.012,14.031.992.992.992,0,.992-1.028-.992-7.972-.992-9.992-2.02-15.98C23-79.016,19.984-90,19.984-90c5.031,1.984,15.024,1.984,20.02,0,0,0-3.012,10.984-4,17.008-.992,5.988-.992,8.008-1.984,15.98C34.016-55.984,34.016-54.992,35.008-55.984Z"/>
    </g>
    <g id="g3064" transform="translate(240 1007.362)">
      <path id="path3066" d="M35.008-55.984c.992-4,5-14.031,11.976-14.031,9,0,13,8.008,13,18,0,7.016-2.551,11.622-5,17.008C52.406-29.268,48.614-24.13,45-18.992,40.358-12.4,30.012,0,30.012,0S19.63-12.4,14.988-18.992C11.374-24.13,7.583-29.268,5-35.008,2.587-40.394,0-45,0-52.016c0-9.992,4-18,13-18,6.98,0,10.984,10.028,12.012,14.031.992.992.992,0,.992-1.028-.992-7.972-.992-9.992-2.02-15.98C23-79.016,19.984-90,19.984-90c5.031,1.984,15.024,1.984,20.02,0,0,0-3.012,10.984-4,17.008-.992,5.988-.992,8.008-1.984,15.98C34.016-55.984,34.016-54.992,35.008-55.984Z"/>
    </g>
    <path id="path3037-7-4-72" d="M32.5,630.362c.5,2,2.5,7,6,7,4.5,0,6.5-4,6.5-9,0-3.5-1.289-5.806-2.5-8.5a49.591,49.591,0,0,0-5-8c-2.323-3.3-7.5-9.5-7.5-9.5s-5.177,6.2-7.5,9.5a49.591,49.591,0,0,0-5,8c-1.211,2.694-2.5,5-2.5,8.5,0,5,2,9,6.5,9,3.5,0,5.5-5,6-7,.5-.5.5,0,.5.5-.5,4-.5,5-1,8s-2,8.5-2,8.5a17.042,17.042,0,0,1,10,0s-1.5-5.5-2-8.5-.5-4-1-8C32,630.362,32,629.862,32.5,630.362Z"/>
    <path id="path3037-7-4-1-2" d="M332.5,934.362c.5-2,2.5-7,6-7,4.5,0,6.5,4,6.5,9,0,3.5-1.289,5.806-2.5,8.5a49.591,49.591,0,0,1-5,8c-2.323,3.3-7.5,9.5-7.5,9.5s-5.177-6.2-7.5-9.5a49.591,49.591,0,0,1-5-8c-1.211-2.694-2.5-5-2.5-8.5,0-5,2-9,6.5-9,3.5,0,5.5,5,6,7,.5.5.5,0,.5-.5-.5-4-.5-5-1-8s-2-8.5-2-8.5a17.042,17.042,0,0,0,10,0s-1.5,5.5-2,8.5-.5,4-1,8C332,934.362,332,934.862,332.5,934.362Z"/>
  </g>
</svg>
