<svg xmlns="http://www.w3.org/2000/svg" width="360" height="540" viewBox="0 0 360 540">
  <g id="g3071" transform="translate(0 -512.362)">
    <rect id="rect6472-3" width="359" height="539" rx="29.944" transform="translate(0.5 512.862)" fill="#fff" stroke="#000" stroke-width="1"/>
    <path id="rect3980-2-1-93" d="M20,542.362v10h5v-5H35l-10,45h5l10-45v-5Z"/>
    <path id="rect3980-2-1-93-0" d="M340,1022.362v-10h-5v5H325l10-45h-5l-10,45v5Z"/>
    <path id="path3037-7-59" d="M95,613.362c1,4,5,14,12,14,9,0,13-8,13-18,0-7-2.579-11.612-5-17-2.578-5.737-6.379-10.857-10-16-4.645-6.6-15-19-15-19s-10.355,12.4-15,19c-3.621,5.143-7.422,10.263-10,16-2.421,5.388-5,10-5,17,0,10,4,18,13,18,7,0,11-10,12-14,1-1,1,0,1,1-1,8-1,10-2,16s-4,17-4,17c5-2,15-2,20,0,0,0-3-11-4-17s-1-8-2-16C94,613.362,94,612.362,95,613.362Z"/>
    <path id="path3037-7-17" d="M275,613.362c1,4,5,14,12,14,9,0,13-8,13-18,0-7-2.579-11.612-5-17-2.578-5.737-6.379-10.857-10-16-4.645-6.6-15-19-15-19s-10.355,12.4-15,19c-3.621,5.143-7.422,10.263-10,16-2.421,5.388-5,10-5,17,0,10,4,18,13,18,7,0,11-10,12-14,1-1,1,0,1,1-1,8-1,10-2,16s-4,17-4,17c5-2,15-2,20,0,0,0-3-11-4-17s-1-8-2-16C274,613.362,274,612.362,275,613.362Z"/>
    <path id="path3037-7-4-9" d="M185,703.362c1,4,5,14,12,14,9,0,13-8,13-18,0-7-2.579-11.612-5-17-2.578-5.737-6.379-10.857-10-16-4.645-6.6-15-19-15-19s-10.355,12.4-15,19c-3.621,5.143-7.422,10.263-10,16-2.421,5.388-5,10-5,17,0,10,4,18,13,18,7,0,11-10,12-14,1-1,1,0,1,1-1,8-1,10-2,16s-4,17-4,17c5-2,15-2,20,0,0,0-3-11-4-17s-1-8-2-16C184,703.362,184,702.362,185,703.362Z"/>
    <path id="path3037-7-0" d="M95,793.362c1,4,5,14,12,14,9,0,13-8,13-18,0-7-2.579-11.612-5-17-2.578-5.737-6.379-10.857-10-16-4.645-6.6-15-19-15-19s-10.355,12.4-15,19c-3.621,5.143-7.422,10.263-10,16-2.421,5.388-5,10-5,17,0,10,4,18,13,18,7,0,11-10,12-14,1-1,1,0,1,1-1,8-1,10-2,16s-4,17-4,17c5-2,15-2,20,0,0,0-3-11-4-17s-1-8-2-16C94,793.362,94,792.362,95,793.362Z"/>
    <path id="path3037-7-94" d="M275,793.362c1,4,5,14,12,14,9,0,13-8,13-18,0-7-2.579-11.612-5-17-2.578-5.737-6.379-10.857-10-16-4.645-6.6-15-19-15-19s-10.355,12.4-15,19c-3.621,5.143-7.422,10.263-10,16-2.421,5.388-5,10-5,17,0,10,4,18,13,18,7,0,11-10,12-14,1-1,1,0,1,1-1,8-1,10-2,16s-4,17-4,17c5-2,15-2,20,0,0,0-3-11-4-17s-1-8-2-16C274,793.362,274,792.362,275,793.362Z"/>
    <path id="path3037-7-8-8" d="M95,951.362c1-4,5-14,12-14,9,0,13,8,13,18,0,7-2.579,11.612-5,17-2.578,5.737-6.379,10.857-10,16-4.645,6.6-15,19-15,19s-10.355-12.4-15-19c-3.621-5.143-7.422-10.263-10-16-2.421-5.388-5-10-5-17,0-10,4-18,13-18,7,0,11,10,12,14,1,1,1,0,1-1-1-8-1-10-2-16s-4-17-4-17c5,2,15,2,20,0,0,0-3,11-4,17s-1,8-2,16C94,951.362,94,952.362,95,951.362Z"/>
    <path id="path3037-7-82-1" d="M275,951.362c1-4,5-14,12-14,9,0,13,8,13,18,0,7-2.579,11.612-5,17-2.578,5.737-6.379,10.857-10,16-4.645,6.6-15,19-15,19s-10.355-12.4-15-19c-3.621-5.143-7.422-10.263-10-16-2.421-5.388-5-10-5-17,0-10,4-18,13-18,7,0,11,10,12,14,1,1,1,0,1-1-1-8-1-10-2-16s-4-17-4-17c5,2,15,2,20,0,0,0-3,11-4,17s-1,8-2,16C274,951.362,274,952.362,275,951.362Z"/>
    <path id="path3037-7-4-4-82" d="M32.5,630.362c.5,2,2.5,7,6,7,4.5,0,6.5-4,6.5-9,0-3.5-1.289-5.806-2.5-8.5a49.591,49.591,0,0,0-5-8c-2.323-3.3-7.5-9.5-7.5-9.5s-5.177,6.2-7.5,9.5a49.591,49.591,0,0,0-5,8c-1.211,2.694-2.5,5-2.5,8.5,0,5,2,9,6.5,9,3.5,0,5.5-5,6-7,.5-.5.5,0,.5.5-.5,4-.5,5-1,8s-2,8.5-2,8.5a17.042,17.042,0,0,1,10,0s-1.5-5.5-2-8.5-.5-4-1-8C32,630.362,32,629.862,32.5,630.362Z"/>
    <path id="path3037-7-4-5" d="M332.5,934.362c.5-2,2.5-7,6-7,4.5,0,6.5,4,6.5,9,0,3.5-1.289,5.806-2.5,8.5a49.591,49.591,0,0,1-5,8c-2.323,3.3-7.5,9.5-7.5,9.5s-5.177-6.2-7.5-9.5a49.591,49.591,0,0,1-5-8c-1.211-2.694-2.5-5-2.5-8.5,0-5,2-9,6.5-9,3.5,0,5.5,5,6,7,.5.5.5,0,.5-.5-.5-4-.5-5-1-8s-2-8.5-2-8.5a17.042,17.042,0,0,0,10,0s-1.5,5.5-2,8.5-.5,4-1,8C332,934.362,332,934.862,332.5,934.362Z"/>
  </g>
</svg>
