<svg xmlns="http://www.w3.org/2000/svg" width="360" height="540" viewBox="0 0 360 540">
  <g id="g3102" transform="translate(0 -512.362)">
    <rect id="rect6472-66" width="359" height="539" rx="29.944" transform="translate(0.5 512.862)" fill="#fff" stroke="#000" stroke-width="1"/>
    <path id="rect3163-5-18-0-7" d="M30,542.362a9.978,9.978,0,0,0-10,10v5a9.938,9.938,0,0,0,3.406,7.5,9.938,9.938,0,0,0-3.406,7.5v10a10,10,0,0,0,20,0v-10a9.939,9.939,0,0,0-3.406-7.5,9.939,9.939,0,0,0,3.406-7.5v-5A9.978,9.978,0,0,0,30,542.362Zm0,5a4.989,4.989,0,0,1,5,5v5a5,5,0,0,1-10,0v-5A4.989,4.989,0,0,1,30,547.362Zm0,20a4.989,4.989,0,0,1,5,5v10a5,5,0,0,1-10,0v-10A4.989,4.989,0,0,1,30,567.362Z"/>
    <path id="rect3163-5-18-0-7-4" d="M330,1022.362a9.978,9.978,0,0,1-10-10v-5a9.938,9.938,0,0,1,3.406-7.5,9.938,9.938,0,0,1-3.406-7.5v-10a10,10,0,0,1,20,0v10a9.938,9.938,0,0,1-3.406,7.5,9.939,9.939,0,0,1,3.406,7.5v5a9.978,9.978,0,0,1-10,10Zm0-5a4.989,4.989,0,0,0,5-5v-5a5,5,0,0,0-10,0v5A4.989,4.989,0,0,0,330,1017.362Zm0-20a4.989,4.989,0,0,0,5-5v-10a5,5,0,0,0-10,0v10A4.989,4.989,0,0,0,330,997.362Z"/>
    <path id="path3037-7-4-7-1" d="M32.5,630.362c.5,2,2.5,7,6,7,4.5,0,6.5-4,6.5-9,0-3.5-1.289-5.806-2.5-8.5a49.591,49.591,0,0,0-5-8c-2.323-3.3-7.5-9.5-7.5-9.5s-5.177,6.2-7.5,9.5a49.591,49.591,0,0,0-5,8c-1.211,2.694-2.5,5-2.5,8.5,0,5,2,9,6.5,9,3.5,0,5.5-5,6-7,.5-.5.5,0,.5.5-.5,4-.5,5-1,8s-2,8.5-2,8.5a17.042,17.042,0,0,1,10,0s-1.5-5.5-2-8.5-.5-4-1-8C32,630.362,32,629.862,32.5,630.362Z"/>
    <path id="path3037-7-4-4-8" d="M332.5,934.362c.5-2,2.5-7,6-7,4.5,0,6.5,4,6.5,9,0,3.5-1.289,5.806-2.5,8.5a49.591,49.591,0,0,1-5,8c-2.323,3.3-7.5,9.5-7.5,9.5s-5.177-6.2-7.5-9.5a49.591,49.591,0,0,1-5-8c-1.211-2.694-2.5-5-2.5-8.5,0-5,2-9,6.5-9,3.5,0,5.5,5,6,7,.5.5.5,0,.5-.5-.5-4-.5-5-1-8s-2-8.5-2-8.5a17.042,17.042,0,0,0,10,0s-1.5,5.5-2,8.5-.5,4-1,8C332,934.362,332,934.862,332.5,934.362Z"/>
    <path id="path3037-7-49" d="M95,613.362c1,4,5,14,12,14,9,0,13-8,13-18,0-7-2.579-11.612-5-17-2.578-5.737-6.379-10.857-10-16-4.645-6.6-15-19-15-19s-10.355,12.4-15,19c-3.621,5.143-7.422,10.263-10,16-2.421,5.388-5,10-5,17,0,10,4,18,13,18,7,0,11-10,12-14,1-1,1,0,1,1-1,8-1,10-2,16s-4,17-4,17c5-2,15-2,20,0,0,0-3-11-4-17s-1-8-2-16C94,613.362,94,612.362,95,613.362Z"/>
    <path id="path3037-7-09-6" d="M275,613.362c1,4,5,14,12,14,9,0,13-8,13-18,0-7-2.579-11.612-5-17-2.578-5.737-6.379-10.857-10-16-4.645-6.6-15-19-15-19s-10.355,12.4-15,19c-3.621,5.143-7.422,10.263-10,16-2.421,5.388-5,10-5,17,0,10,4,18,13,18,7,0,11-10,12-14,1-1,1,0,1,1-1,8-1,10-2,16s-4,17-4,17c5-2,15-2,20,0,0,0-3-11-4-17s-1-8-2-16C274,613.362,274,612.362,275,613.362Z"/>
    <path id="path3037-7-4-3" d="M185,703.362c1,4,5,14,12,14,9,0,13-8,13-18,0-7-2.579-11.612-5-17-2.578-5.737-6.379-10.857-10-16-4.645-6.6-15-19-15-19s-10.355,12.4-15,19c-3.621,5.143-7.422,10.263-10,16-2.421,5.388-5,10-5,17,0,10,4,18,13,18,7,0,11-10,12-14,1-1,1,0,1,1-1,8-1,10-2,16s-4,17-4,17c5-2,15-2,20,0,0,0-3-11-4-17s-1-8-2-16C184,703.362,184,702.362,185,703.362Z"/>
    <path id="path3037-7-8-7" d="M95,793.362c1,4,5,14,12,14,9,0,13-8,13-18,0-7-2.579-11.612-5-17-2.578-5.737-6.379-10.857-10-16-4.645-6.6-15-19-15-19s-10.355,12.4-15,19c-3.621,5.143-7.422,10.263-10,16-2.421,5.388-5,10-5,17,0,10,4,18,13,18,7,0,11-10,12-14,1-1,1,0,1,1-1,8-1,10-2,16s-4,17-4,17c5-2,15-2,20,0,0,0-3-11-4-17s-1-8-2-16C94,793.362,94,792.362,95,793.362Z"/>
    <path id="path3037-7-82-8" d="M275,793.362c1,4,5,14,12,14,9,0,13-8,13-18,0-7-2.579-11.612-5-17-2.578-5.737-6.379-10.857-10-16-4.645-6.6-15-19-15-19s-10.355,12.4-15,19c-3.621,5.143-7.422,10.263-10,16-2.421,5.388-5,10-5,17,0,10,4,18,13,18,7,0,11-10,12-14,1-1,1,0,1,1-1,8-1,10-2,16s-4,17-4,17c5-2,15-2,20,0,0,0-3-11-4-17s-1-8-2-16C274,793.362,274,792.362,275,793.362Z"/>
    <path id="path3037-7-45-8" d="M185,861.362c1-4,5-14,12-14,9,0,13,8,13,18,0,7-2.579,11.612-5,17-2.578,5.737-6.379,10.857-10,16-4.645,6.6-15,19-15,19s-10.355-12.4-15-19c-3.621-5.143-7.422-10.263-10-16-2.421-5.388-5-10-5-17,0-10,4-18,13-18,7,0,11,10,12,14,1,1,1,0,1-1-1-8-1-10-2-16s-4-17-4-17c5,2,15,2,20,0,0,0-3,11-4,17s-1,8-2,16C184,861.362,184,862.362,185,861.362Z"/>
    <path id="path3037-7-5-2" d="M95,951.362c1-4,5-14,12-14,9,0,13,8,13,18,0,7-2.579,11.612-5,17-2.578,5.737-6.379,10.857-10,16-4.645,6.6-15,19-15,19s-10.355-12.4-15-19c-3.621-5.143-7.422-10.263-10-16-2.421-5.388-5-10-5-17,0-10,4-18,13-18,7,0,11,10,12,14,1,1,1,0,1-1-1-8-1-10-2-16s-4-17-4-17c5,2,15,2,20,0,0,0-3,11-4,17s-1,8-2,16C94,951.362,94,952.362,95,951.362Z"/>
    <path id="path3037-7-1-9" d="M275,951.362c1-4,5-14,12-14,9,0,13,8,13,18,0,7-2.579,11.612-5,17-2.578,5.737-6.379,10.857-10,16-4.645,6.6-15,19-15,19s-10.355-12.4-15-19c-3.621-5.143-7.422-10.263-10-16-2.421-5.388-5-10-5-17,0-10,4-18,13-18,7,0,11,10,12,14,1,1,1,0,1-1-1-8-1-10-2-16s-4-17-4-17c5,2,15,2,20,0,0,0-3,11-4,17s-1,8-2,16C274,951.362,274,952.362,275,951.362Z"/>
  </g>
</svg>
